<svg class="svgicon footer-icon" xmlns="http://www.w3.org/2000/svg" width="24" height="24" viewBox="0 0 24 24"><path d="M1.04668 8.29455H5.82522V23.6445H1.04668V8.29455ZM3.43668 0.66675C3.9838 0.667416 4.51843 0.830288 4.97299 1.13477C5.42755 1.43926 5.78162 1.87169 5.99044 2.37738C6.19926 2.88308 6.25345 3.43934 6.14617 3.97583C6.03888 4.51232 5.77493 5.00496 5.38769 5.39146C5.00044 5.77795 4.5073 6.04095 3.9706 6.14721C3.4339 6.25346 2.87775 6.1982 2.37246 5.9884C1.86716 5.77861 1.43542 5.4237 1.13181 4.96856C0.828202 4.51341 0.66636 3.97847 0.666749 3.43135C0.667005 3.06792 0.738865 2.7081 0.878224 2.37246C1.01758 2.03681 1.22171 1.7319 1.47894 1.47517C1.73617 1.21843 2.04146 1.0149 2.37738 0.876184C2.7133 0.737473 3.07325 0.666306 3.43668 0.66675ZM8.81902 23.6445H13.5878V16.0518C13.5878 14.0501 13.9663 12.1112 16.4501 12.1112C18.895 12.1112 18.9297 14.4004 18.9297 16.1818V23.6445H23.6977V15.2257C23.6977 11.0916 22.807 7.91462 17.9763 7.91462C17.0693 7.88052 16.17 8.09314 15.3743 8.52982C14.5787 8.9665 13.9164 9.61088 13.458 10.3943H13.3958V8.29455H8.81902V23.6445Z"/></svg>