<svg class="svgicon footer-icon" xmlns="http://www.w3.org/2000/svg" width="24" height="18" viewBox="0 0 24 18"><path d="M22.1238 0.251709H1.8763C1.36164 0.269807 0.875138 0.491208 0.523433 0.867388C0.171729 1.24357 -0.0164913 1.74384 2.55075e-05 2.25856V15.7412C-0.0164913 16.256 0.171729 16.7562 0.523433 17.1324C0.875138 17.5086 1.36164 17.73 1.8763 17.7481H22.1238C22.6384 17.73 23.1249 17.5086 23.4766 17.1324C23.8283 16.7562 24.0165 16.256 24 15.7412V2.25856C24.0165 1.74384 23.8283 1.24357 23.4766 0.867388C23.1249 0.491208 22.6384 0.269807 22.1238 0.251709ZM22.5 15.7412C22.5123 15.8575 22.4804 15.9741 22.4107 16.068C22.341 16.1619 22.2386 16.2262 22.1238 16.2481H1.8763C1.76146 16.2262 1.65904 16.1619 1.58935 16.068C1.51966 15.9741 1.48778 15.8575 1.50003 15.7412V6.41378L9.80493 12.5386C10.4874 13.0434 11.3149 13.3138 12.1638 13.3092C13.0126 13.3045 13.8372 13.0252 14.5141 12.5129L22.5 6.49216V15.7412ZM13.6109 11.3152C13.1921 11.6329 12.6816 11.8062 12.1559 11.8092C11.6302 11.8121 11.1177 11.6445 10.6954 11.3315L1.50003 4.55003V2.25856C1.48778 2.14228 1.51966 2.02565 1.58935 1.93178C1.65904 1.8379 1.76146 1.77363 1.8763 1.75171H22.1238C22.2386 1.77363 22.341 1.8379 22.4107 1.93178C22.4804 2.02565 22.5123 2.14228 22.5 2.25856V4.61363L13.6109 11.3152Z"/></svg>