<svg class="svgicon footer-icon" xmlns="http://www.w3.org/2000/svg" width="24" height="22" viewBox="0 0 24 22"><path d="M21.9405 4.22686H18.419V1.89998C18.4065 1.69064 18.3525 1.48588 18.2601 1.29758C18.1678 1.10928 18.039 0.941187 17.8812 0.803069C17.7234 0.66495 17.5397 0.559554 17.3409 0.492997C17.142 0.426441 16.9319 0.40005 16.7227 0.415357H7.27745C7.06829 0.40005 6.85817 0.42644 6.6593 0.492996C6.46042 0.559551 6.27674 0.664947 6.11893 0.803064C5.96111 0.941181 5.8323 1.10927 5.73998 1.29757C5.64765 1.48587 5.59365 1.69064 5.5811 1.89998V4.22686H2.05887C1.50866 4.23187 0.982909 4.45492 0.596942 4.84707C0.210975 5.23923 -0.0036863 5.76846 4.85699e-05 6.31868V15.4403C-0.00371098 15.9905 0.210921 16.5199 0.596874 16.9121C0.982828 17.3044 1.5086 17.5276 2.05887 17.5328H5.57967V19.9996C5.58021 20.4198 5.74737 20.8226 6.04449 21.1197C6.34162 21.4169 6.74445 21.584 7.16465 21.5846H16.8355C17.2556 21.584 17.6584 21.4168 17.9554 21.1196C18.2524 20.8225 18.4194 20.4197 18.4197 19.9996V17.5328H21.9405C22.4909 17.5278 23.0168 17.3046 23.4029 16.9124C23.789 16.5201 24.0038 15.9907 24 15.4403V6.31868C24.0038 5.76834 23.789 5.23901 23.4029 4.84684C23.0167 4.45467 22.4908 4.2317 21.9405 4.22686ZM7.0811 1.96366C7.141 1.93015 7.20884 1.91347 7.27745 1.91536H16.7227C16.7913 1.91346 16.8591 1.93015 16.919 1.96366V4.22686H7.0811V1.96366ZM16.9197 19.9996C16.9198 20.022 16.9109 20.0435 16.8951 20.0594C16.8794 20.0753 16.8579 20.0844 16.8355 20.0846H7.16465C7.14212 20.0845 7.12051 20.0756 7.10458 20.0596C7.08865 20.0437 7.07969 20.0221 7.07967 19.9996V12.8057H16.9197V19.9996ZM22.5 15.4403C22.5041 15.5929 22.4475 15.741 22.3426 15.852C22.2377 15.9631 22.0931 16.0281 21.9405 16.0328H18.4197V12.8057H19.6817C19.8806 12.8057 20.0714 12.7267 20.212 12.5861C20.3527 12.4454 20.4317 12.2546 20.4317 12.0557C20.4317 11.8568 20.3527 11.6661 20.212 11.5254C20.0714 11.3848 19.8806 11.3057 19.6817 11.3057H4.1939C3.99499 11.3057 3.80422 11.3848 3.66357 11.5254C3.52292 11.6661 3.4439 11.8568 3.4439 12.0557C3.4439 12.2546 3.52292 12.4454 3.66357 12.5861C3.80422 12.7267 3.99499 12.8057 4.1939 12.8057H5.57967V16.0328H2.05887C1.90629 16.028 1.76181 15.963 1.65707 15.8519C1.55233 15.7409 1.49587 15.5929 1.50005 15.4403V6.31868C1.49588 6.16615 1.55236 6.01819 1.65712 5.90725C1.76188 5.79631 1.90636 5.73143 2.05887 5.72686H6.18095C6.20623 5.72319 6.2313 5.71813 6.25602 5.71171C6.28076 5.71812 6.30582 5.72317 6.3311 5.72686H17.669C17.6943 5.72319 17.7193 5.71813 17.7441 5.71171C17.7688 5.71812 17.7939 5.72317 17.8191 5.72686H21.9405C22.0931 5.73139 22.2377 5.79622 22.3425 5.90715C22.4474 6.01809 22.5041 6.16607 22.5 6.31868V15.4403Z"/><path d="M19.443 7.02841C19.2946 7.02844 19.1497 7.07245 19.0263 7.15488C18.903 7.23731 18.8069 7.35445 18.7502 7.4915C18.6934 7.62855 18.6786 7.77934 18.7076 7.92482C18.7365 8.07029 18.808 8.20392 18.9128 8.30879C19.0177 8.41366 19.1514 8.48508 19.2969 8.51401C19.4423 8.54293 19.5931 8.52807 19.7302 8.4713C19.8672 8.41453 19.9843 8.3184 20.0667 8.19507C20.1491 8.07174 20.1931 7.92674 20.1931 7.77841C20.1931 7.6799 20.1738 7.58235 20.1361 7.49134C20.0984 7.40033 20.0431 7.31763 19.9734 7.24798C19.9038 7.17833 19.8211 7.12309 19.7301 7.08542C19.639 7.04774 19.5415 7.02837 19.443 7.02841Z"/></svg>