<svg class="svgicon footer-icon" xmlns="http://www.w3.org/2000/svg" width="26" height="26" viewBox="0 0 26 26"><path d="M21.3244 6.10994C21.3244 6.4059 21.2367 6.69521 21.0722 6.94128C20.9078 7.18736 20.6741 7.37915 20.4006 7.49239C20.1272 7.60564 19.8263 7.63526 19.5361 7.57751C19.2458 7.51976 18.9792 7.37723 18.7699 7.16794C18.5606 6.95866 18.4181 6.69202 18.3604 6.40174C18.3027 6.11147 18.3323 5.81059 18.4456 5.53716C18.5589 5.26374 18.7507 5.03004 18.9967 4.86562C19.2428 4.70121 19.5322 4.61346 19.8281 4.61347C20.0246 4.61348 20.2192 4.65219 20.4008 4.72739C20.5823 4.8026 20.7473 4.91283 20.8862 5.05179C21.0252 5.19075 21.1354 5.35572 21.2106 5.53728C21.2858 5.71884 21.3245 5.91343 21.3244 6.10994ZM19.4612 12.8182C19.4612 14.0614 19.0926 15.2768 18.4019 16.3105C17.7113 17.3442 16.7296 18.1499 15.581 18.6257C14.4324 19.1015 13.1685 19.226 11.9492 18.9834C10.7298 18.7409 9.6098 18.1422 8.73071 17.2631C7.85161 16.3841 7.25295 15.264 7.01042 14.0447C6.76789 12.8253 6.89239 11.5615 7.36817 10.4129C7.84395 9.26429 8.64965 8.28259 9.68338 7.59192C10.7171 6.90125 11.9324 6.53263 13.1756 6.53267C14.8421 6.53466 16.4397 7.19752 17.618 8.37586C18.7963 9.55419 19.4592 11.1518 19.4612 12.8182ZM17.2021 12.8182C17.2021 12.0218 16.9659 11.2433 16.5235 10.5812C16.081 9.91903 15.4521 9.40295 14.7164 9.09821C13.9806 8.79346 13.171 8.71374 12.3899 8.86913C11.6088 9.02451 10.8914 9.40802 10.3283 9.97116C9.76516 10.5343 9.38168 11.2518 9.22633 12.0329C9.07099 12.8139 9.15075 13.6235 9.45553 14.3593C9.76031 15.0951 10.2764 15.7239 10.9386 16.1663C11.6008 16.6088 12.3793 16.8449 13.1756 16.8449C14.2432 16.8436 15.2666 16.4189 16.0215 15.6641C16.7763 14.9092 17.2009 13.8857 17.2021 12.8182ZM25.8981 7.76857C25.898 5.73519 25.0902 3.78511 23.6524 2.34732C22.2145 0.909527 20.2644 0.101792 18.2311 0.101807H7.76898C5.73562 0.101805 3.78553 0.909545 2.3477 2.34734C0.909876 3.78513 0.102093 5.7352 0.102051 7.76857V18.2313C0.102102 20.2647 0.909889 22.2147 2.34771 23.6525C3.78554 25.0903 5.73562 25.898 7.76898 25.898H18.2311C20.2644 25.8981 22.2145 25.0903 23.6524 23.6525C25.0902 22.2147 25.898 20.2647 25.8981 18.2313V7.76857ZM23.3813 18.1158C23.3812 19.5124 22.8264 20.8517 21.8389 21.8391C20.8514 22.8266 19.5121 23.3814 18.1156 23.3814H7.88452C7.19302 23.3814 6.50829 23.2452 5.86942 22.9806C5.23055 22.716 4.65006 22.3281 4.16108 21.8392C3.67211 21.3502 3.28423 20.7698 3.01959 20.1309C2.75495 19.4921 2.61873 18.8073 2.61872 18.1158V7.88401C2.61873 7.19251 2.75494 6.50778 3.01958 5.86892C3.28421 5.23007 3.67209 4.64959 4.16107 4.16064C4.65005 3.67169 5.23054 3.28383 5.86941 3.01923C6.50828 2.75462 7.19302 2.61845 7.88452 2.61847H18.1156C19.5121 2.61848 20.8514 3.17323 21.8389 4.16071C22.8265 5.14818 23.3813 6.48748 23.3813 7.88401V18.1158Z"/></svg>