<svg class="svgicon footer-icon" xmlns="http://www.w3.org/2000/svg" width="12" height="26" viewBox="0 0 12 26"><path fill-rule="evenodd" clip-rule="evenodd" d="M2.71602 13.0996V25.3206C2.71602 25.3624 2.72426 25.4037 2.74026 25.4424C2.75626 25.481 2.77971 25.5161 2.80927 25.5456C2.83883 25.5752 2.87392 25.5986 2.91254 25.6146C2.95116 25.6306 2.99255 25.6388 3.03435 25.6388H7.57235C7.61415 25.6388 7.65554 25.6306 7.69416 25.6146C7.73278 25.5986 7.76787 25.5752 7.79743 25.5456C7.82699 25.5161 7.85044 25.481 7.86644 25.4424C7.88244 25.4037 7.89068 25.3624 7.89068 25.3206V12.9004H11.181C11.2608 12.9004 11.3377 12.8705 11.3965 12.8165C11.4552 12.7625 11.4916 12.6885 11.4984 12.6089L11.8146 8.86688C11.8183 8.82297 11.8128 8.77876 11.7985 8.73707C11.7843 8.69537 11.7615 8.65708 11.7317 8.62464C11.7019 8.59219 11.6656 8.56628 11.6253 8.54856C11.5849 8.53084 11.5414 8.52169 11.4973 8.52168H7.89068V5.86668C7.8907 5.71872 7.91986 5.57221 7.9765 5.43552C8.03314 5.29883 8.11615 5.17463 8.22079 5.07003C8.32543 4.96542 8.44966 4.88244 8.58636 4.82584C8.72307 4.76924 8.86959 4.74012 9.01755 4.74015H11.5532C11.595 4.74014 11.6364 4.73189 11.675 4.71587C11.7136 4.69985 11.7487 4.67638 11.7783 4.64679C11.8078 4.6172 11.8313 4.58208 11.8473 4.54344C11.8632 4.50479 11.8715 4.46337 11.8714 4.42155V0.679484C11.8714 0.637679 11.8632 0.596281 11.8472 0.557654C11.8312 0.519027 11.8078 0.483928 11.7782 0.454361C11.7487 0.424794 11.7136 0.401339 11.675 0.385334C11.6364 0.369329 11.595 0.361089 11.5532 0.361084H7.26835C6.06097 0.361188 4.90308 0.840887 4.04936 1.69466C3.19565 2.54844 2.71603 3.70637 2.71602 4.91375V8.52168H0.446751C0.362346 8.52172 0.281406 8.55526 0.221717 8.61493C0.162027 8.67461 0.128469 8.75554 0.128418 8.83995V12.5821C0.128432 12.6665 0.161975 12.7475 0.221671 12.8072C0.281367 12.8669 0.362328 12.9004 0.446751 12.9004H2.71602V13.0996Z"/></svg>