<svg class="svgicon footer-icon" xmlns="http://www.w3.org/2000/svg" width="24" height="24" viewBox="0 0 24 24"><path d="M22.0477 1.1443H7.50638C7.29633 0.826689 7.01157 0.565461 6.67705 0.383532C6.34254 0.201604 5.96849 0.104532 5.58773 0.10083H2.28892C1.68205 0.101446 1.10021 0.342797 0.67109 0.771921C0.241967 1.20104 0.000615499 1.78288 0 2.38976V21.6099C0.000629371 22.2168 0.241985 22.7986 0.671106 23.2277C1.10023 23.6569 1.68206 23.8982 2.28892 23.8989H5.58773C5.96987 23.9024 6.3466 23.8084 6.68231 23.6258C7.01803 23.4432 7.30165 23.1781 7.50638 22.8554H21.5428C22.1934 22.8518 22.8163 22.5917 23.2763 22.1317C23.7363 21.6716 23.9964 21.0487 24 20.3982V3.60153C24 2.25513 22.9229 1.1443 22.0477 1.1443ZM6.39555 21.6099C6.39265 21.8233 6.30661 22.0271 6.15574 22.178C6.00487 22.3289 5.80108 22.4149 5.58773 22.4178H2.28892C2.07557 22.4149 1.87178 22.3289 1.72091 22.178C1.57004 22.0271 1.484 21.8233 1.4811 21.6099V2.42343C1.484 2.21008 1.57004 2.00628 1.72091 1.85539C1.87178 1.70451 2.07557 1.61845 2.28892 1.61553H5.58773C5.80108 1.61845 6.00487 1.70451 6.15574 1.85539C6.30661 2.00628 6.39265 2.21008 6.39555 2.42343V21.6099ZM22.519 20.3982C22.5188 20.657 22.4159 20.9052 22.2328 21.0882C22.0498 21.2712 21.8016 21.3741 21.5428 21.3743H7.87657V2.62541H21.9804C22.1437 2.73111 22.2783 2.87554 22.3723 3.04584C22.4662 3.21615 22.5166 3.40704 22.519 3.60153V20.3982Z"/><path d="M18.6964 6.44793V7.79013H11.6319V6.44793H18.6964ZM19.4557 4.94793H10.8724C10.6765 4.94964 10.4891 5.02822 10.3506 5.16673C10.2121 5.30524 10.1336 5.49261 10.1319 5.68848V8.54965C10.1336 8.74551 10.2122 8.93287 10.3507 9.07137C10.4892 9.20987 10.6765 9.28843 10.8724 9.29013H19.4557C19.6516 9.28843 19.839 9.20988 19.9775 9.07138C20.1161 8.93289 20.1947 8.74553 20.1964 8.54965V5.68848C20.1947 5.49259 20.1161 5.30522 19.9776 5.16671C19.839 5.0282 19.6516 4.94963 19.4557 4.94793Z"/><path d="M11.8822 11.0069C12.0753 11.0069 12.264 11.0641 12.4246 11.1714C12.5851 11.2787 12.7102 11.4311 12.7841 11.6095C12.858 11.7879 12.8773 11.9842 12.8396 12.1735C12.8019 12.3629 12.709 12.5368 12.5724 12.6733C12.4359 12.8098 12.262 12.9028 12.0726 12.9405C11.8833 12.9781 11.687 12.9588 11.5086 12.8849C11.3302 12.811 11.1778 12.6859 11.0705 12.5253C10.9633 12.3648 10.906 12.1761 10.906 11.983C10.906 11.8548 10.9313 11.7279 10.9804 11.6094C11.0294 11.491 11.1013 11.3834 11.192 11.2928C11.2826 11.2021 11.3902 11.1302 11.5087 11.0812C11.6271 11.0321 11.7541 11.0069 11.8822 11.0069Z"/><path d="M15.181 11.0069C15.374 11.0069 15.5628 11.0641 15.7233 11.1714C15.8838 11.2787 16.0089 11.4311 16.0828 11.6095C16.1567 11.7879 16.176 11.9842 16.1383 12.1735C16.1007 12.3629 16.0077 12.5368 15.8712 12.6733C15.7346 12.8098 15.5607 12.9028 15.3713 12.9405C15.182 12.9781 14.9857 12.9588 14.8073 12.8849C14.629 12.811 14.4765 12.6859 14.3693 12.5253C14.262 12.3648 14.2048 12.1761 14.2048 11.983C14.2048 11.8548 14.23 11.7279 14.2791 11.6094C14.3281 11.491 14.4001 11.3834 14.4907 11.2928C14.5814 11.2021 14.689 11.1302 14.8074 11.0812C14.9258 11.0321 15.0528 11.0069 15.181 11.0069Z"/><path d="M18.446 11.0069C18.6391 11.0069 18.8278 11.0641 18.9884 11.1714C19.1489 11.2786 19.274 11.4311 19.3479 11.6095C19.4218 11.7878 19.4411 11.9841 19.4035 12.1735C19.3658 12.3628 19.2728 12.5368 19.1363 12.6733C18.9998 12.8098 18.8259 12.9028 18.6365 12.9404C18.4471 12.9781 18.2509 12.9588 18.0725 12.8849C17.8941 12.811 17.7417 12.6859 17.6344 12.5253C17.5271 12.3648 17.4699 12.1761 17.4699 11.983C17.4699 11.7241 17.5728 11.4759 17.7558 11.2928C17.9389 11.1097 18.1871 11.0069 18.446 11.0069Z"/><path d="M11.8822 14.2046C12.0753 14.2046 12.264 14.2618 12.4246 14.3691C12.5851 14.4764 12.7102 14.6288 12.7841 14.8072C12.858 14.9856 12.8773 15.1818 12.8396 15.3712C12.8019 15.5605 12.709 15.7345 12.5725 15.871C12.4359 16.0075 12.262 16.1005 12.0727 16.1381C11.8833 16.1758 11.687 16.1565 11.5087 16.0826C11.3303 16.0087 11.1778 15.8836 11.0706 15.7231C10.9633 15.5626 10.9061 15.3738 10.906 15.1808C10.906 15.0526 10.9313 14.9256 10.9804 14.8072C11.0294 14.6888 11.1013 14.5811 11.192 14.4905C11.2826 14.3998 11.3902 14.3279 11.5087 14.2789C11.6271 14.2298 11.7541 14.2046 11.8822 14.2046Z"/><path d="M15.181 14.2046C15.374 14.2046 15.5628 14.2618 15.7233 14.3691C15.8838 14.4764 16.0089 14.6288 16.0828 14.8072C16.1567 14.9856 16.176 15.1818 16.1383 15.3712C16.1007 15.5605 16.0077 15.7345 15.8712 15.871C15.7347 16.0075 15.5607 16.1005 15.3714 16.1381C15.182 16.1758 14.9858 16.1565 14.8074 16.0826C14.629 16.0087 14.4766 15.8836 14.3693 15.7231C14.262 15.5626 14.2048 15.3738 14.2048 15.1808C14.2048 15.0526 14.23 14.9256 14.2791 14.8072C14.3281 14.6888 14.4 14.5811 14.4907 14.4905C14.5813 14.3998 14.689 14.3279 14.8074 14.2789C14.9258 14.2298 15.0528 14.2046 15.181 14.2046Z"/><path d="M18.446 14.2046C18.6391 14.2046 18.8278 14.2618 18.9884 14.3691C19.1489 14.4763 19.274 14.6288 19.3479 14.8071C19.4218 14.9855 19.4411 15.1818 19.4035 15.3711C19.3658 15.5605 19.2729 15.7344 19.1363 15.871C18.9998 16.0075 18.8259 16.1005 18.6365 16.1381C18.4472 16.1758 18.2509 16.1565 18.0725 16.0826C17.8942 16.0087 17.7417 15.8836 17.6344 15.7231C17.5272 15.5626 17.4699 15.3738 17.4699 15.1808C17.4699 14.9219 17.5728 14.6736 17.7558 14.4905C17.9389 14.3075 18.1871 14.2046 18.446 14.2046Z"/><path d="M11.8822 17.3687C12.0753 17.3687 12.264 17.4259 12.4246 17.5332C12.5851 17.6405 12.7102 17.7929 12.7841 17.9713C12.858 18.1497 12.8773 18.3459 12.8396 18.5353C12.8019 18.7246 12.709 18.8986 12.5725 19.0351C12.4359 19.1716 12.262 19.2646 12.0727 19.3022C11.8833 19.3399 11.687 19.3206 11.5087 19.2467C11.3303 19.1728 11.1778 19.0477 11.0706 18.8872C10.9633 18.7267 10.9061 18.5379 10.906 18.3449C10.906 18.2167 10.9313 18.0897 10.9804 17.9713C11.0294 17.8529 11.1013 17.7452 11.192 17.6546C11.2826 17.5639 11.3902 17.492 11.5087 17.443C11.6271 17.3939 11.7541 17.3687 11.8822 17.3687Z"/><path d="M15.181 17.3687C15.374 17.3687 15.5628 17.4259 15.7233 17.5332C15.8838 17.6405 16.0089 17.7929 16.0828 17.9713C16.1567 18.1497 16.176 18.3459 16.1383 18.5353C16.1007 18.7246 16.0077 18.8986 15.8712 19.0351C15.7347 19.1716 15.5607 19.2646 15.3714 19.3022C15.182 19.3399 14.9858 19.3206 14.8074 19.2467C14.629 19.1728 14.4766 19.0477 14.3693 18.8872C14.262 18.7267 14.2048 18.5379 14.2048 18.3449C14.2048 18.2167 14.23 18.0897 14.2791 17.9713C14.3281 17.8529 14.4 17.7452 14.4907 17.6546C14.5813 17.5639 14.689 17.492 14.8074 17.443C14.9258 17.3939 15.0528 17.3687 15.181 17.3687Z"/><path d="M18.446 17.3687C18.6391 17.3687 18.8278 17.4259 18.9884 17.5332C19.1489 17.6404 19.274 17.7929 19.3479 17.9712C19.4218 18.1496 19.4411 18.3459 19.4035 18.5352C19.3658 18.7246 19.2729 18.8985 19.1363 19.0351C18.9998 19.1716 18.8259 19.2646 18.6365 19.3022C18.4472 19.3399 18.2509 19.3206 18.0725 19.2467C17.8942 19.1728 17.7417 19.0477 17.6344 18.8872C17.5272 18.7267 17.4699 18.5379 17.4699 18.3449C17.4699 18.086 17.5728 17.8377 17.7558 17.6546C17.9389 17.4716 18.1871 17.3687 18.446 17.3687Z"/></svg>