<svg class="svgicon svgicon-reputable" xmlns="http://www.w3.org/2000/svg" width="43" height="64" viewBox="0 0 43 64"><path d="M21.5353 58.0014C21.3102 58.0016 21.0917 57.9256 20.9153 57.7859L15.8698 53.7966L10.8244 57.7859C10.677 57.9023 10.4998 57.9749 10.3131 57.9952C10.1265 58.0156 9.9378 57.983 9.76877 57.9012C9.59975 57.8193 9.45719 57.6916 9.35741 57.5325C9.25764 57.3734 9.20468 57.1894 9.2046 57.0016V39.6987C9.20455 39.5478 9.23865 39.3989 9.30436 39.263C9.37006 39.1272 9.46565 39.008 9.58397 38.9144C9.7023 38.8208 9.84028 38.7552 9.98757 38.7224C10.1349 38.6897 10.2877 38.6908 10.4345 38.7256C11.0632 38.8575 11.7184 38.7547 12.2765 38.4366C12.8372 38.1215 13.4571 37.9258 14.0971 37.862C14.7371 37.7982 15.3834 37.8675 15.9953 38.0657C16.6072 38.2639 17.1715 38.5865 17.6526 39.0134C18.1336 39.4403 18.5212 39.9621 18.7907 40.5461C18.996 41.0128 19.3341 41.4089 19.7629 41.6848C20.1917 41.9607 20.6922 42.1044 21.202 42.0979C21.2944 42.0979 21.3872 42.0921 21.4744 42.0869C21.6106 42.0776 21.7473 42.0967 21.8757 42.1431C22.0042 42.1895 22.1215 42.2621 22.2203 42.3563C22.3197 42.4499 22.3988 42.5627 22.453 42.688C22.5071 42.8132 22.535 42.9482 22.535 43.0847V57.0016C22.5349 57.2667 22.4295 57.5209 22.242 57.7083C22.0545 57.8958 21.8004 58.0012 21.5353 58.0014ZM15.8698 51.5223C16.0949 51.5221 16.3134 51.598 16.4898 51.7378L20.5355 54.9363V44.0513C19.7648 43.9434 19.0341 43.6421 18.4113 43.1754C17.7886 42.7088 17.2943 42.092 16.9744 41.3826C16.7604 40.9216 16.4192 40.5314 15.9909 40.2579C15.5626 39.9844 15.0651 39.8389 14.5569 39.8386C14.1035 39.8361 13.6572 39.9523 13.2626 40.1758C12.6339 40.5372 11.9285 40.7442 11.2042 40.7798V54.9363L15.2498 51.7378C15.4263 51.598 15.6448 51.5221 15.8698 51.5223Z"/><path d="M32.8661 64C32.6411 64.0002 32.4226 63.9243 32.2462 63.7846L27.2007 59.7952L22.1553 63.7845C22.0079 63.9009 21.8307 63.9735 21.644 63.9939C21.4573 64.0143 21.2687 63.9817 21.0996 63.8998C20.9306 63.818 20.7881 63.6902 20.6883 63.5311C20.5885 63.372 20.5356 63.188 20.5355 63.0002V43.0846C20.5355 42.8355 20.6285 42.5953 20.7964 42.4112C20.9642 42.2271 21.1948 42.1123 21.4428 42.0894C21.91 42.0508 22.3582 41.8871 22.7402 41.6154C23.1222 41.3437 23.4239 40.9741 23.6136 40.5455C23.8832 39.9618 24.2706 39.4402 24.7515 39.0135C25.2324 38.5868 25.7964 38.2642 26.408 38.066C27.0196 37.8678 27.6656 37.7983 28.3054 37.8618C28.9451 37.9254 29.5648 38.1206 30.1255 38.4352C30.4779 38.6402 30.8739 38.7586 31.281 38.7807C31.6881 38.8028 32.0946 38.7279 32.4671 38.5622C32.6192 38.4958 32.7855 38.4684 32.9508 38.4824C33.1162 38.4964 33.2755 38.5513 33.4143 38.6423C33.5531 38.7332 33.6671 38.8573 33.7459 39.0033C33.8248 39.1493 33.866 39.3127 33.8659 39.4786V63.0002C33.8657 63.2653 33.7603 63.5195 33.5729 63.7069C33.3854 63.8944 33.1312 63.9998 32.8661 64ZM27.2007 57.5209C27.4258 57.5207 27.6443 57.5966 27.8207 57.7364L31.8664 60.9349V40.7602C30.9198 40.8503 29.9685 40.6464 29.142 40.1764C28.7474 39.9525 28.301 39.836 27.8474 39.8385C27.339 39.8388 26.8413 39.9843 26.4129 40.258C25.9845 40.5316 25.6432 40.922 25.4293 41.3831C25.156 41.9866 24.7561 42.5242 24.2567 42.9595C23.7573 43.3948 23.1702 43.7176 22.535 43.9061V60.9349L26.5807 57.7364C26.7571 57.5966 26.9756 57.5207 27.2007 57.5209Z"/><path d="M21.2022 44.0972C20.3104 44.1021 19.4364 43.8481 18.686 43.3663C17.9357 42.8844 17.341 42.1955 16.9744 41.3826C16.7604 40.9216 16.4192 40.5314 15.9909 40.2579C15.5626 39.9844 15.0651 39.8389 14.5569 39.8386C14.1035 39.8361 13.6572 39.9523 13.2626 40.1758C12.5676 40.5758 11.7797 40.7856 10.9778 40.7848C10.6401 40.7858 10.3034 40.7478 9.97442 40.6715C8.78061 40.4123 7.7371 39.6929 7.07012 38.6694C6.40315 37.6459 6.16646 36.4008 6.41139 35.204C6.44878 35.027 6.4669 34.8465 6.46542 34.6657C6.46287 34.0171 6.22222 33.392 5.78916 32.9092C5.35611 32.4263 4.76081 32.1193 4.11631 32.0465C2.97995 31.9115 1.93277 31.3638 1.17385 30.5073C0.414934 29.6508 -0.00281685 28.5453 1.81792e-05 27.401C-0.0017886 26.7602 0.131102 26.1262 0.39007 25.5401C0.649039 24.954 1.0283 24.4288 1.50327 23.9987C1.77339 23.7498 1.98895 23.4476 2.13633 23.1111C2.28372 22.7747 2.35972 22.4113 2.35954 22.044C2.35935 21.6766 2.28299 21.3133 2.13527 20.977C1.98755 20.6407 1.77169 20.3387 1.50132 20.0901C1.02728 19.6611 0.64868 19.1373 0.39005 18.5527C0.13142 17.968 -0.00146142 17.3356 1.81792e-05 16.6963C-0.00277871 15.5518 0.415112 14.4462 1.17423 13.5897C1.93335 12.7332 2.98075 12.1855 4.11729 12.0508C4.76243 11.9769 5.35797 11.6686 5.79084 11.1846C6.22371 10.7006 6.46377 10.0744 6.46545 9.42505C6.46713 9.24931 6.45011 9.07388 6.41467 8.90173C6.23673 8.02725 6.3138 7.12005 6.63672 6.28812C6.95964 5.45619 7.51479 4.73456 8.23612 4.20913C8.95744 3.6837 9.81454 3.37659 10.7054 3.32436C11.5963 3.27213 12.4834 3.47698 13.2612 3.91453C13.5805 4.0959 13.9341 4.20876 14.2994 4.24593C14.6647 4.2831 15.0338 4.24376 15.3831 4.13041C15.7324 4.01706 16.0542 3.8322 16.3281 3.58759C16.602 3.34299 16.822 3.04401 16.9739 2.70971C17.3457 1.90109 17.9416 1.21603 18.6908 0.735757C19.4401 0.255484 20.3114 0.000140364 21.2014 5.78523e-08C22.0914 -0.000140248 22.9628 0.254928 23.7122 0.734965C24.4617 1.215 25.0577 1.89987 25.4298 2.70838C25.5819 3.04236 25.8018 3.34107 26.0756 3.58552C26.3493 3.82998 26.6709 4.01485 27.0199 4.12838C27.3689 4.24192 27.7377 4.28166 28.1029 4.24506C28.4681 4.20846 28.8217 4.09633 29.1412 3.9158C29.8365 3.51599 30.6245 3.30569 31.4265 3.30593C32.1187 3.31176 32.8012 3.46942 33.4259 3.76779C34.0505 4.06617 34.6021 4.49798 35.0416 5.03277C35.4802 5.56205 35.7936 6.18355 35.9584 6.85088C36.1231 7.51822 36.1351 8.21415 35.9932 8.88674C35.9556 9.06366 35.9373 9.24417 35.9389 9.42504C35.9406 10.0745 36.1808 10.7008 36.6139 11.1849C37.0469 11.6689 37.6427 11.9771 38.288 12.0508C39.4244 12.1857 40.4715 12.7334 41.2305 13.5899C41.9894 14.4464 42.4071 15.5519 42.4043 16.6963C42.4057 17.336 42.2725 17.9689 42.0136 18.5539C41.7546 19.1389 41.3756 19.6629 40.901 20.092C40.631 20.3408 40.4155 20.6429 40.2682 20.9792C40.1208 21.3155 40.0447 21.6787 40.0448 22.0458C40.0448 22.413 40.121 22.7762 40.2685 23.1124C40.416 23.4486 40.6316 23.7506 40.9017 23.9994C41.3765 24.4295 41.7555 24.9545 42.0144 25.5405C42.2732 26.1265 42.4061 26.7604 42.4043 27.401C42.4071 28.5455 41.9892 29.6511 41.2301 30.5076C40.471 31.3641 39.4236 31.9117 38.287 32.0464C37.6427 32.1195 37.0476 32.4266 36.6148 32.9094C36.1819 33.3923 35.9414 34.0172 35.9389 34.6657C35.9371 34.841 35.9542 35.016 35.99 35.1877C36.2064 36.2369 36.0533 37.3287 35.5566 38.2779C35.0598 39.2271 34.2501 39.9753 33.2647 40.3955C32.608 40.6829 31.8932 40.8127 31.1774 40.7746C30.4616 40.7365 29.7645 40.5318 29.142 40.1764C28.7474 39.9525 28.301 39.836 27.8474 39.8385C27.339 39.8388 26.8413 39.9843 26.4129 40.258C25.9845 40.5316 25.6432 40.922 25.4293 41.3831C25.0917 42.1293 24.5618 42.7722 23.8938 43.246C23.2257 43.7199 22.4437 44.0076 21.6278 44.0796C21.47 44.0901 21.3362 44.0972 21.2022 44.0972ZM14.5571 37.8388C15.4474 37.8399 16.3188 38.0952 17.0688 38.5748C17.8189 39.0544 18.4162 39.7384 18.7907 40.5461C18.996 41.0128 19.3341 41.4089 19.7629 41.6848C20.1917 41.9607 20.6922 42.1044 21.202 42.0979C21.2944 42.0979 21.3872 42.0921 21.4744 42.0869C21.9361 42.0443 22.3782 41.8787 22.7544 41.6077C23.1305 41.3366 23.4271 40.97 23.6136 40.5455C23.8832 39.9618 24.2706 39.4402 24.7515 39.0135C25.2324 38.5868 25.7964 38.2642 26.408 38.066C27.0196 37.8678 27.6656 37.7983 28.3054 37.8618C28.9451 37.9254 29.5648 38.1206 30.1255 38.4352C30.4779 38.6402 30.8739 38.7586 31.281 38.7807C31.6881 38.8028 32.0946 38.7279 32.4671 38.5622C33.0297 38.326 33.4933 37.9021 33.7789 37.363C34.0645 36.8238 34.1546 36.2024 34.034 35.6043C33.9691 35.2957 33.9373 34.981 33.9393 34.6657C33.9419 33.527 34.3625 32.4288 35.1213 31.5798C35.8801 30.7307 36.9243 30.1899 38.0556 30.0599C38.7076 29.9881 39.3095 29.6759 39.7438 29.1843C40.1781 28.6927 40.4137 28.0569 40.4047 27.401C40.4072 27.0369 40.3322 26.6765 40.1845 26.3438C40.0369 26.011 39.82 25.7135 39.5484 25.4711L39.5465 25.4691C39.0743 25.033 38.6973 24.5041 38.4389 23.9155C38.1806 23.3269 38.0465 22.6914 38.0452 22.0486C38.0423 21.4042 38.1744 20.7664 38.433 20.1762C38.6915 19.5859 39.0709 19.0564 39.5465 18.6216C39.8164 18.3788 40.0324 18.0818 40.1802 17.7502C40.3281 17.4185 40.4045 17.0594 40.4047 16.6963C40.4138 16.0405 40.1783 15.4048 39.7442 14.9133C39.3101 14.4217 38.7084 14.1094 38.0566 14.0373C36.9243 13.9066 35.8795 13.3647 35.1205 12.5144C34.3615 11.6642 33.9412 10.5648 33.9393 9.42505C33.9374 9.10749 33.9696 8.79063 34.0353 8.47993C34.1146 8.09958 34.1073 7.70625 34.0139 7.32912C33.9205 6.95198 33.7434 6.60071 33.4957 6.30137C33.0972 5.81851 32.5427 5.48982 31.9278 5.37195C31.3129 5.25408 30.6761 5.35442 30.1273 5.65567C29.5668 5.97269 28.9466 6.16978 28.306 6.23446C27.6654 6.29914 27.0183 6.23 26.4058 6.03141C25.7933 5.83282 25.2287 5.50912 24.7479 5.08084C24.2671 4.65257 23.8806 4.12905 23.6128 3.5435C23.4005 3.08259 23.0606 2.69218 22.6333 2.41854C22.206 2.14489 21.7092 1.99949 21.2018 1.99956C20.6943 1.99963 20.1976 2.14517 19.7703 2.41893C19.3431 2.69269 19.0033 3.08319 18.7912 3.54416C18.5238 4.12969 18.1376 4.65323 17.6571 5.08156C17.1765 5.5099 16.6122 5.83367 16 6.03234C15.3877 6.231 14.7408 6.30023 14.1003 6.23561C13.4599 6.17099 12.8399 5.97395 12.2796 5.65699C11.8795 5.4239 11.4243 5.30245 10.9613 5.30531C10.4983 5.30818 10.0445 5.43524 9.64735 5.67326C9.16596 5.94825 8.78346 6.36795 8.55421 6.87273C8.32495 7.37751 8.2606 7.9417 8.3703 8.48515C8.43522 8.79418 8.46697 9.10927 8.465 9.42505C8.46317 10.5646 8.04296 11.6639 7.28415 12.5141C6.52535 13.3644 5.48077 13.9064 4.34871 14.0373C3.69668 14.1092 3.0948 14.4214 2.66048 14.913C2.22616 15.4046 1.99054 16.0403 1.9996 16.6963C1.99965 17.0589 2.0759 17.4176 2.22341 17.7489C2.37091 18.0803 2.58639 18.3769 2.85587 18.6197C3.33199 19.0546 3.71174 19.5844 3.97065 20.1749C4.22957 20.7655 4.3619 21.4038 4.35914 22.0486C4.35776 22.6914 4.22371 23.3269 3.96538 23.9155C3.70705 24.5041 3.33 25.033 2.85784 25.4691C2.58573 25.7116 2.36845 26.0094 2.22046 26.3425C2.07248 26.6756 1.99719 27.0365 1.99963 27.401C1.99052 28.0568 2.226 28.6924 2.66013 29.184C3.09426 29.6756 3.69592 29.9878 4.34778 30.0599C5.47924 30.1896 6.52365 30.7304 7.28267 31.5795C8.04169 32.4285 8.46245 33.5268 8.46506 34.6657C8.46699 34.9828 8.43491 35.2992 8.36937 35.6095C8.23348 36.2937 8.37245 37.0039 8.75623 37.5864C9.14001 38.1689 9.73773 38.5769 10.42 38.7221C11.0528 38.8643 11.7158 38.7625 12.2765 38.4366C12.9725 38.0444 13.7582 37.8384 14.5571 37.8388Z"/><path d="M21.5249 34.7104C19.0202 34.7104 16.5717 33.9676 14.4892 32.5761C12.4066 31.1846 10.7834 29.2067 9.82492 26.8927C8.86641 24.5787 8.61563 22.0324 9.10427 19.5758C9.59291 17.1193 10.799 14.8628 12.5701 13.0917C14.3412 11.3206 16.5977 10.1145 19.0542 9.62585C21.5108 9.13721 24.0571 9.388 26.3711 10.3465C28.6852 11.305 30.663 12.9282 32.0545 15.0107C33.4461 17.0933 34.1888 19.5418 34.1888 22.0464C34.185 25.404 32.8495 28.6229 30.4754 30.997C28.1013 33.3711 24.8824 34.7066 21.5249 34.7104ZM21.5249 11.3821C19.4156 11.3821 17.3538 12.0075 15.6001 13.1794C13.8463 14.3512 12.4794 16.0167 11.6723 17.9654C10.8651 19.914 10.6539 22.0583 11.0654 24.127C11.4769 26.1956 12.4926 28.0958 13.984 29.5873C15.4755 31.0787 17.3757 32.0944 19.4443 32.5059C21.513 32.9174 23.6573 32.7062 25.6059 31.899C27.5546 31.0919 29.2201 29.725 30.3919 27.9712C31.5638 26.2175 32.1892 24.1557 32.1892 22.0464C32.186 19.2191 31.0614 16.5084 29.0621 14.5092C27.0629 12.5099 24.3522 11.3853 21.5249 11.3821Z"/><path d="M19.9584 26.0086C19.7133 26.0088 19.4767 25.9186 19.2939 25.7554L15.9665 22.7931C15.769 22.6167 15.6496 22.369 15.6345 22.1046C15.6194 21.8402 15.7099 21.5806 15.8861 21.3828C16.0622 21.185 16.3096 21.0652 16.574 21.0497C16.8384 21.0341 17.0982 21.1242 17.2963 21.3L19.9119 23.6283L25.0518 18.3853C25.1435 18.2907 25.253 18.2152 25.3739 18.1631C25.4949 18.111 25.625 18.0833 25.7567 18.0817C25.8884 18.08 26.0192 18.1044 26.1414 18.1534C26.2637 18.2024 26.3751 18.2751 26.4691 18.3673C26.5632 18.4595 26.6381 18.5693 26.6896 18.6906C26.7411 18.8118 26.7681 18.942 26.7691 19.0738C26.7701 19.2055 26.7451 19.3361 26.6954 19.4581C26.6458 19.5801 26.5725 19.6911 26.4798 19.7847L20.6728 25.7085C20.5798 25.8037 20.4686 25.8792 20.346 25.9308C20.2233 25.9823 20.0915 26.0088 19.9584 26.0086Z"/></svg>