<svg class="svgicon svgicon-effective" xmlns="http://www.w3.org/2000/svg" width="56" height="64" viewBox="0 0 56 64"><path d="M27.597 40.1925C31.5717 40.1925 35.4571 39.0139 38.7619 36.8057C42.0667 34.5975 44.6425 31.4589 46.1636 27.7868C47.6846 24.1147 48.0826 20.074 47.3072 16.1757C46.5317 12.2774 44.6178 8.69658 41.8072 5.88607C38.9967 3.07556 35.4159 1.16157 31.5176 0.386153C27.6193 -0.389266 23.5786 0.00870743 19.9065 1.52975C16.2344 3.05078 13.0958 5.62657 10.8876 8.93139C8.6794 12.2362 7.50077 16.1216 7.50077 20.0963C7.50681 25.4243 9.62603 30.5323 13.3935 34.2998C17.161 38.0673 22.269 40.1865 27.597 40.1925ZM27.597 2.00964C31.1742 2.00964 34.6711 3.0704 37.6454 5.05778C40.6198 7.04517 42.938 9.86992 44.3069 13.1748C45.6758 16.4797 46.034 20.1163 45.3361 23.6248C44.6383 27.1333 42.9157 30.356 40.3862 32.8855C37.8568 35.4149 34.634 37.1375 31.1256 37.8354C27.6171 38.5333 23.9805 38.1751 20.6756 36.8062C17.3707 35.4372 14.5459 33.119 12.5585 30.1447C10.5712 27.1703 9.5104 23.6735 9.5104 20.0963C9.51586 15.3011 11.4232 10.7038 14.8139 7.31312C18.2046 3.92239 22.8018 2.01509 27.597 2.00964Z"/><path d="M27.597 34.8335C30.5118 34.8335 33.3611 33.9692 35.7846 32.3499C38.2082 30.7305 40.0971 28.4289 41.2125 25.736C42.3279 23.0431 42.6198 20.0799 42.0511 17.2212C41.4825 14.3624 40.0789 11.7365 38.0179 9.67545C35.9568 7.61441 33.3309 6.21082 30.4721 5.64218C27.6134 5.07354 24.6502 5.36539 21.9573 6.48082C19.2644 7.59625 16.9628 9.48516 15.3435 11.9087C13.7241 14.3322 12.8598 17.1815 12.8598 20.0963C12.8642 24.0035 14.4183 27.7494 17.1811 30.5122C19.9439 33.275 23.6898 34.8291 27.597 34.8335ZM27.597 7.36864C30.1143 7.36864 32.5751 8.1151 34.6681 9.51363C36.7612 10.9122 38.3925 12.8999 39.3558 15.2256C40.3192 17.5513 40.5712 20.1104 40.0801 22.5793C39.589 25.0482 38.3768 27.3161 36.5968 29.0961C34.8168 30.8761 32.549 32.0882 30.0801 32.5793C27.6112 33.0704 25.0521 32.8184 22.7264 31.8551C20.4007 30.8917 18.4129 29.2604 17.0144 27.1674C15.6159 25.0743 14.8694 22.6136 14.8694 20.0963C14.8732 16.7219 16.2154 13.4868 18.6015 11.1007C20.9875 8.71464 24.2226 7.37247 27.597 7.36864Z"/><path d="M21.3547 19.6136H22.2944L24.4869 23.4854H26.7929L24.4158 19.4568C25.0914 19.3057 25.6916 18.9198 26.1095 18.3677C26.485 17.8536 26.6847 17.232 26.6789 16.5953C26.686 16.0533 26.5458 15.5195 26.2733 15.0509C25.9842 14.5739 25.5609 14.1927 25.0563 13.9549C24.4419 13.6688 23.7693 13.53 23.0918 13.5493H19.3618V23.4854H21.3547L21.3547 19.6136ZM21.3547 15.2008H23.0207C23.4574 15.1664 23.8906 15.3013 24.2306 15.5775C24.3677 15.7165 24.474 15.8827 24.5427 16.0654C24.6114 16.2482 24.6409 16.4433 24.6293 16.6382C24.6409 16.8373 24.6115 17.0367 24.5429 17.224C24.4743 17.4114 24.368 17.5826 24.2306 17.7272C23.8951 18.0129 23.4599 18.1537 23.0207 18.1189H21.3547V15.2008Z"/><path d="M29.6252 22.3605C29.915 22.7331 30.2817 23.0389 30.7003 23.2569C31.1726 23.5015 31.6986 23.6238 32.2303 23.6127C32.8765 23.6205 33.5113 23.4428 34.0594 23.1006C34.6159 22.7472 35.0642 22.2473 35.355 21.6557C35.6831 20.9899 35.8466 20.2551 35.8319 19.513C35.8476 18.7756 35.684 18.0454 35.355 17.3852C35.0634 16.8017 34.6147 16.3111 34.0594 15.9687C33.5083 15.6349 32.8746 15.4623 32.2303 15.4705C31.6933 15.4605 31.1623 15.5852 30.6859 15.8333C30.2671 16.0484 29.904 16.3578 29.6252 16.7372V15.5984H27.6324V27.2426H29.6252L29.6252 22.3605ZM29.9174 18.303C30.0949 17.9696 30.3608 17.6915 30.6859 17.4992C30.994 17.3167 31.3457 17.2207 31.7038 17.2214C32.0656 17.2195 32.4216 17.3127 32.736 17.4917C33.0605 17.6788 33.3266 17.9525 33.5045 18.2821C33.7066 18.6602 33.8071 19.0843 33.7962 19.5129C33.8077 19.9486 33.7072 20.3799 33.5045 20.7657C33.3258 21.1004 33.0604 21.3808 32.736 21.5776C32.4264 21.7627 32.0727 21.861 31.7119 21.8623C31.3512 21.8635 30.9968 21.7676 30.6859 21.5845C30.3608 21.392 30.0949 21.1137 29.9174 20.7802C29.7253 20.3956 29.6252 19.9715 29.6252 19.5416C29.6252 19.1117 29.7253 18.6876 29.9174 18.303Z"/><path d="M54.4137 41.8058C53.945 41.3569 53.3517 41.06 52.7114 40.954C52.0711 40.8481 51.4138 40.938 50.8255 41.212C49.7257 40.8969 46.9456 40.6356 44.0489 44.5978C42.3916 46.8573 40.4658 47.4173 38.3314 48.4077L38.3305 48.4083C34.5936 47.8023 32.1351 48.0988 26.6845 45.7949C17.4689 41.9756 12.5055 41.531 8.11922 45.0291L7.54464 43.7905C7.48919 43.6706 7.41062 43.5627 7.31345 43.4732C7.21627 43.3836 7.10239 43.3141 6.97832 43.2686C6.85425 43.2231 6.72242 43.2025 6.59038 43.208C6.45835 43.2135 6.32868 43.2449 6.20882 43.3006L0.581602 45.9133C0.340349 46.0254 0.153361 46.2285 0.0616335 46.4781C-0.0300937 46.7278 -0.019074 47.0037 0.0922776 47.2452L6.79758 61.6881L7.59501 63.4165C7.65044 63.5365 7.72899 63.6443 7.82617 63.7339C7.92334 63.8235 8.03722 63.893 8.1613 63.9385C8.28538 63.984 8.41722 64.0046 8.54927 63.9991C8.68131 63.9936 8.81098 63.9621 8.93084 63.9065L14.5574 61.2937C14.799 61.1815 14.9861 60.978 15.0776 60.7278C15.1692 60.4777 15.1576 60.2014 15.0454 59.9598L14.647 59.101C15.442 59.0598 16.2386 59.1432 17.0079 59.3481C21.2563 60.405 33.2821 62.1549 39.6921 61.269C44.1238 59.8776 51.5529 52.4187 54.2914 46.8253C55.9477 43.9279 54.9298 42.3507 54.4137 41.8058ZM45.6713 45.7832C46.2993 44.8511 47.1262 44.0699 48.0924 43.4959C47.4645 44.1772 45.6589 46.3959 44.7776 47.2986C43.0282 49.1321 41.6643 49.9843 40.6639 50.3268C40.6023 50.1217 40.5182 49.9242 40.413 49.7377C40.4039 49.7226 40.3954 49.7076 40.3862 49.6925C42.1904 48.8977 44.0404 48.0152 45.6713 45.7832ZM8.99822 61.6594L2.87514 48.4803L2.33674 47.314L6.14208 45.547L6.84813 47.0684C6.85144 47.0759 6.85095 47.0841 6.85446 47.0915L12.8003 59.8944L8.99822 61.6594ZM52.5316 45.8538C49.5279 52.1245 41.394 58.9009 39.312 59.2958C35.2535 60.0789 21.9345 58.6279 17.547 57.4125C16.3069 57.0787 15.0139 56.9876 13.7393 57.1442L9.01406 46.9582C12.6791 43.4941 17.1602 44.0431 25.8891 47.6403C31.6847 50.1509 34.4447 49.6995 38.3432 50.4959C38.4929 50.544 38.6174 50.6495 38.6894 50.7893C38.7614 50.9291 38.775 51.0918 38.7272 51.2416C38.476 52.0692 36.6849 53.0877 33.9818 52.8437C31.1946 52.7679 24.4326 50.5199 23.2678 52.1868C23.098 52.3788 23.008 52.6283 23.016 52.8844C23.0241 53.1406 23.1296 53.3839 23.3111 53.5648C23.4926 53.7458 23.7363 53.8505 23.9924 53.8578C24.2486 53.865 24.4978 53.7742 24.6892 53.6038C26.7632 53.3895 31.2152 54.7174 33.8026 54.8454C36.3752 55.1457 39.4625 54.1778 40.3642 52.4732C42.5116 52.1154 44.8297 50.4366 47.4296 47.3558C47.9655 46.7182 49.6194 44.7845 49.6689 44.7483C49.7069 44.7065 49.7304 44.6803 49.7548 44.6516C49.8966 44.4826 50.088 44.2127 50.2505 44.0363C51.9463 42.1067 54.367 42.7039 52.5316 45.8538Z"/></svg>