<svg class="svgicon svgicon-solving" xmlns="http://www.w3.org/2000/svg" width="65" height="64" viewBox="0 0 65 64"><path d="M22.2587 35.9745C23.1465 36.0289 24.0178 36.2389 24.8328 36.5948C25.2428 36.746 25.6296 36.8883 26.0253 36.9973C26.1806 37.0401 26.3437 37.0465 26.5018 37.0159C26.66 36.9853 26.8089 36.9186 26.937 36.821C27.0652 36.7234 27.169 36.5975 27.2405 36.4531C27.312 36.3088 27.3492 36.1498 27.3491 35.9888V27.3491H34.5219C34.1326 28.3089 33.9164 29.33 33.8832 30.3652C33.8979 31.6963 34.4374 32.9678 35.3843 33.9034C36.3313 34.839 37.6093 35.3631 38.9405 35.3618C40.2717 35.3604 41.5486 34.8338 42.4936 33.8962C43.4387 32.9587 43.9756 31.6861 43.9876 30.355C43.9536 29.3232 43.7373 28.3056 43.3489 27.3491H51.5677C51.8451 27.349 52.1111 27.2388 52.3072 27.0426C52.5034 26.8465 52.6136 26.5805 52.6137 26.3031V7.98456C52.6104 5.86675 51.7672 3.83672 50.269 2.33984C48.7709 0.842958 46.7401 0.00147482 44.6223 0H7.98456C5.86767 0.00243802 3.83818 0.844449 2.34132 2.34132C0.84445 3.83818 0.00243802 5.86767 0 7.98456V44.6216C0.00147482 46.7394 0.84296 48.7702 2.33984 50.2684C3.83672 51.7665 5.86675 52.6097 7.98456 52.613H26.3031C26.5805 52.613 26.8465 52.5027 27.0426 52.3066C27.2388 52.1104 27.349 51.8444 27.3491 51.567V41.8881C27.3489 41.7266 27.3114 41.5674 27.2395 41.4228C27.1676 41.2782 27.0631 41.1522 26.9344 41.0546C26.8057 40.9571 26.6561 40.8907 26.4975 40.8606C26.3388 40.8304 26.1753 40.8374 26.0198 40.881C25.6528 40.9845 25.2687 41.1241 24.8683 41.2705C24.0447 41.6281 23.1651 41.8394 22.2689 41.8949C21.4909 41.8856 20.7478 41.5702 20.2004 41.0172C19.6531 40.4642 19.3455 39.7179 19.3441 38.9397C19.3428 38.1616 19.6478 37.4143 20.1933 36.8593C20.7387 36.3044 21.4807 35.9865 22.2587 35.9745ZM50.5217 7.98456V25.2571H41.8888C41.7281 25.2571 41.5695 25.2942 41.4254 25.3654C41.2813 25.4367 41.1555 25.5402 41.0579 25.6679C40.9603 25.7956 40.8934 25.9441 40.8625 26.1019C40.8316 26.2596 40.8374 26.4224 40.8796 26.5775C40.9886 26.98 41.1377 27.3899 41.2821 27.7863C41.6324 28.5974 41.84 29.4629 41.8956 30.3447C41.8863 31.1228 41.5709 31.8659 41.0179 32.4132C40.4648 32.9606 39.7185 33.2682 38.9404 33.2696C38.1623 33.2709 37.415 32.9659 36.86 32.4204C36.3051 31.875 35.9872 31.133 35.9751 30.355C36.0296 29.4697 36.2372 28.6006 36.5887 27.7863C36.7331 27.3899 36.8822 26.98 36.9912 26.5775C37.0334 26.4224 37.0392 26.2596 37.0083 26.1019C36.9774 25.9441 36.9105 25.7956 36.8129 25.6679C36.7153 25.5402 36.5895 25.4367 36.4454 25.3654C36.3013 25.2942 36.1427 25.2571 35.982 25.2571H27.3491V18.0877C28.309 18.4762 29.3301 18.6913 30.3652 18.723C31.0319 18.7457 31.6961 18.6302 32.316 18.3838C32.9359 18.1374 33.4982 17.7654 33.9674 17.2912C34.4367 16.817 34.8028 16.2509 35.0427 15.6285C35.2826 15.006 35.3912 14.3406 35.3615 13.6742C35.3908 13.007 35.2817 12.341 35.0409 11.718C34.8002 11.0951 34.4332 10.5287 33.9629 10.0545C33.4927 9.58035 32.9293 9.20865 32.3084 8.9628C31.6874 8.71696 31.0223 8.6023 30.3549 8.62605C29.3233 8.65867 28.3056 8.87378 27.3491 9.26141V2.09199H44.6223C46.1855 2.09286 47.6845 2.71375 48.7904 3.81844C49.8964 4.92312 50.519 6.4214 50.5217 7.98456ZM2.09199 7.98456C2.09382 6.42232 2.71523 4.92458 3.81991 3.8199C4.92458 2.71523 6.42232 2.09382 7.98456 2.09199H25.2571V10.7249C25.2571 10.8861 25.2944 11.0451 25.3661 11.1896C25.4378 11.334 25.5418 11.4599 25.6702 11.5575C25.7985 11.6551 25.9477 11.7216 26.1061 11.752C26.2644 11.7824 26.4276 11.7758 26.583 11.7327C26.9752 11.6238 27.375 11.478 27.7611 11.3371C28.5799 10.9826 29.4542 10.7732 30.3447 10.718C30.7371 10.6967 31.1296 10.7589 31.4962 10.9003C31.8628 11.0418 32.1953 11.2593 32.4717 11.5387C32.748 11.818 32.9621 12.1528 33.0996 12.5209C33.2371 12.889 33.2951 13.2821 33.2696 13.6742C33.2954 14.0656 33.238 14.4579 33.1012 14.8255C32.9644 15.1931 32.7513 15.5276 32.476 15.8069C32.2007 16.0862 31.8693 16.304 31.5037 16.4461C31.1382 16.5881 30.7467 16.6512 30.355 16.631C29.4609 16.5771 28.5831 16.3676 27.7611 16.012C27.375 15.871 26.9752 15.7253 26.583 15.6164C26.4276 15.5733 26.2644 15.5666 26.1061 15.597C25.9477 15.6274 25.7985 15.694 25.6702 15.7916C25.5418 15.8892 25.4378 16.0151 25.3661 16.1595C25.2944 16.3039 25.2571 16.463 25.2571 16.6242V25.2571H18.0897C18.4773 24.2973 18.6917 23.2764 18.723 22.2417C18.7452 21.5755 18.6294 20.9112 18.3828 20.2919C18.1361 19.6726 17.7641 19.111 17.29 18.6424C16.8159 18.1738 16.25 17.8083 15.6279 17.5689C15.0057 17.3296 14.3408 17.2214 13.6749 17.2514C13.0082 17.2218 12.3425 17.3305 11.7199 17.5707C11.0972 17.8108 10.5309 18.1772 10.0567 18.6468C9.58252 19.1164 9.21062 19.6791 8.9644 20.2994C8.71818 20.9197 8.60299 21.5842 8.62605 22.2512C8.63849 23.0412 8.77379 23.8252 9.02711 24.5736C9.10143 24.8085 9.18071 25.0361 9.26002 25.2571H2.09199V7.98456ZM22.2587 43.9869C23.2877 43.9551 24.3028 43.7412 25.2571 43.355V50.521H7.98456C6.42139 50.5183 4.92312 49.8957 3.81843 48.7897C2.71374 47.6838 2.09286 46.1848 2.09199 44.6216V27.3491H10.7249C10.8863 27.3492 11.0456 27.3119 11.1902 27.2401C11.3348 27.1684 11.4609 27.0641 11.5585 26.9354C11.656 26.8068 11.7225 26.6573 11.7526 26.4987C11.7827 26.3401 11.7757 26.1766 11.732 26.0212C11.6929 25.8807 11.6461 25.7414 11.6001 25.6018C11.5193 25.3572 11.4332 25.1117 11.3405 24.8574C10.9843 24.0347 10.7738 23.1565 10.7181 22.2618C10.6974 21.8698 10.7601 21.4779 10.9019 21.112C11.0437 20.746 11.2615 20.4142 11.5409 20.1385C11.8203 19.8629 12.1549 19.6495 12.5227 19.5126C12.8906 19.3756 13.2832 19.3182 13.6749 19.3441C14.0657 19.3178 14.4577 19.3746 14.825 19.5108C15.1923 19.647 15.5265 19.8594 15.8058 20.134C16.0851 20.4087 16.303 20.7394 16.4452 21.1044C16.5875 21.4694 16.6508 21.8604 16.631 22.2516C16.5765 23.1497 16.3659 24.0315 16.0086 24.8574C15.9145 25.1155 15.8272 25.3646 15.7456 25.6129C15.7009 25.7488 15.6552 25.8844 15.6171 26.0212C15.561 26.2107 15.5614 26.4125 15.6182 26.6019C15.6749 26.7912 15.7857 26.9599 15.9368 27.0874C15.9446 27.0942 15.9505 27.1032 15.9584 27.1099C15.9688 27.1184 15.9814 27.1236 15.9921 27.1316C16.1732 27.2715 16.3954 27.3479 16.6242 27.349H25.2571V34.5226C24.3004 34.1314 23.2815 33.9146 22.2485 33.8824C20.9174 33.8972 19.6459 34.4366 18.7103 35.3836C17.7746 36.3306 17.2506 37.6085 17.2519 38.9397C17.2533 40.2709 17.7799 41.5478 18.7174 42.4929C19.655 43.438 20.9276 43.9749 22.2587 43.9869Z"/><path d="M63.5947 36.8041H53.9771C53.8157 36.8041 53.6564 36.8415 53.5119 36.9133C53.3673 36.9851 53.2413 37.0894 53.1437 37.218C53.0462 37.3466 52.9797 37.496 52.9496 37.6546C52.9194 37.8132 52.9264 37.9766 52.9699 38.1321C53.0768 38.5161 53.2144 38.892 53.3594 39.2897C53.7144 40.1096 53.9236 40.9851 53.9778 41.8768C53.9644 42.6473 53.6486 43.3816 53.0985 43.9213C52.5485 44.4609 51.8083 44.7626 51.0377 44.7613C50.2671 44.7599 49.528 44.4557 48.9798 43.9141C48.4316 43.3725 48.1184 42.6371 48.1077 41.8666C48.1629 40.9897 48.3707 40.1292 48.7219 39.3238C48.8724 38.9125 49.0154 38.5243 49.1244 38.126C49.1668 37.9707 49.1728 37.8079 49.1419 37.6499C49.1111 37.492 49.0443 37.3434 48.9466 37.2155C48.849 37.0876 48.7232 36.984 48.579 36.9126C48.4348 36.8413 48.276 36.8042 48.1152 36.8042H38.4908C38.2134 36.8042 37.9474 36.9145 37.7512 37.1106C37.5551 37.3067 37.4449 37.5728 37.4448 37.8502V46.0043C36.4996 45.6179 35.4929 45.4034 34.4723 45.3709C33.1476 45.3829 31.8812 45.9172 30.9483 46.8577C30.0153 47.7982 29.4912 49.0689 29.4899 50.3936C29.4885 51.7183 30.0101 52.9901 30.9411 53.9324C31.8721 54.8748 33.1374 55.4117 34.4621 55.4264C35.4855 55.3962 36.4954 55.1845 37.4448 54.8012V62.954C37.4449 63.2314 37.5551 63.4974 37.7512 63.6936C37.9474 63.8897 38.2134 63.9999 38.4908 64H56.6493C58.768 63.9977 60.7993 63.155 62.2975 61.6568C63.7957 60.1586 64.6384 58.1273 64.6407 56.0086V37.8501C64.6406 37.5727 64.5304 37.3067 64.3342 37.1106C64.1381 36.9144 63.8721 36.8042 63.5947 36.8041ZM62.5487 56.0086C62.547 57.5727 61.9249 59.0722 60.8189 60.1782C59.7129 61.2842 58.2134 61.9063 56.6493 61.908H39.5368V53.3337C39.5369 53.1721 39.4995 53.0127 39.4275 52.8679C39.3556 52.7232 39.2511 52.5971 39.1222 52.4996C38.9933 52.4021 38.8436 52.3357 38.6848 52.3058C38.5259 52.2759 38.3623 52.2832 38.2068 52.3272C37.8425 52.4294 37.4618 52.5676 37.0648 52.7133C36.2435 53.07 35.3661 53.2802 34.4723 53.3344C33.7007 53.3224 32.965 53.0071 32.4241 52.4567C31.8832 51.9064 31.5807 51.1653 31.582 50.3936C31.5834 49.622 31.8884 48.8819 32.4312 48.3334C32.974 47.785 33.7109 47.4723 34.4825 47.4629C35.3602 47.5184 36.2215 47.7269 37.0274 48.0792C37.4353 48.229 37.82 48.3707 38.213 48.479C38.3682 48.5218 38.5313 48.5281 38.6895 48.4975C38.8476 48.467 38.9966 48.4003 39.1247 48.3026C39.2529 48.205 39.3567 48.0791 39.4282 47.9348C39.4997 47.7904 39.5368 47.6315 39.5368 47.4704V38.8961H46.6511C46.2636 39.844 46.0485 40.8534 46.0157 41.8768C46.0289 43.2005 46.5637 44.4656 47.5039 45.3974C48.4441 46.3292 49.7139 46.8526 51.0377 46.854C52.3615 46.8553 53.6323 46.3345 54.5744 45.4046C55.5166 44.4747 56.0539 43.2107 56.0698 41.887C56.039 40.8608 55.8265 39.8481 55.4419 38.8961H62.5487L62.5487 56.0086Z"/></svg>