<svg class="svgicon svgicon-commited" xmlns="http://www.w3.org/2000/svg" width="68" height="64" viewBox="0 0 68 64"><path d="M21.6753 11.2575L27.2121 15.3048L25.1122 21.8338C24.9901 22.2132 24.9909 22.6214 25.1146 23.0002C25.2382 23.379 25.4784 23.7091 25.8007 23.9434C26.1231 24.1776 26.5113 24.304 26.9098 24.3046C27.3083 24.3052 27.6968 24.1798 28.0198 23.9465L33.5805 19.9325L39.1411 23.9465C39.4626 24.1838 39.8518 24.3115 40.2513 24.3109C40.6509 24.3103 41.0396 24.1814 41.3604 23.9432C41.686 23.7119 41.9287 23.3821 42.0526 23.0025C42.1766 22.6228 42.1752 22.2133 42.0487 21.8345L39.9492 15.3049L45.4849 11.2575C45.8066 11.0224 46.0458 10.6917 46.1685 10.3127C46.2911 9.93357 46.2909 9.52544 46.1679 9.14647C46.0449 8.76751 45.8053 8.43706 45.4834 8.20227C45.1615 7.96747 44.7737 7.84033 44.3753 7.83896L37.5166 7.81801L35.3778 1.30212C35.2572 0.921158 35.0175 0.588996 34.6939 0.354583C34.3703 0.12017 33.98 -0.0040944 33.5805 0.000105269C33.1809 -0.00413991 32.7903 0.120112 32.4668 0.354537C32.1432 0.588962 31.9036 0.92115 31.7832 1.30212L29.6447 7.81802L22.7863 7.83896C22.3878 7.84009 21.9998 7.96706 21.6777 8.20175C21.3556 8.43645 21.1159 8.76688 20.9927 9.14589C20.8695 9.5249 20.8692 9.93313 20.9918 10.3123C21.1144 10.6915 21.3536 11.0223 21.6753 11.2575ZM29.7347 9.82794C30.1325 9.82768 30.5202 9.7017 30.8422 9.46799C31.1642 9.23428 31.4041 8.9048 31.5277 8.52659L33.5805 2.27109L35.6329 8.52659C35.7564 8.90464 35.9962 9.23402 36.318 9.46771C36.6398 9.70141 37.0273 9.82748 37.425 9.82794L44.0083 9.84757L38.6943 13.7326C38.3728 13.9668 38.1335 14.2965 38.0106 14.6747C37.8877 15.053 37.8875 15.4604 38.0099 15.8387L40.0251 22.106L34.6875 18.2524C34.3652 18.0196 33.9777 17.8944 33.5802 17.8945C33.1826 17.8946 32.7953 18.0201 32.4731 18.253L27.1362 22.1061L29.1514 15.8394C29.2738 15.4609 29.2735 15.0535 29.1506 14.6751C29.0277 14.2968 28.7885 13.967 28.467 13.7327L23.1527 9.8476L29.7347 9.82794Z"/><path d="M67.1272 45.7266L61.9486 26.3889C61.8795 26.1314 61.711 25.9118 61.4802 25.7785C61.2493 25.6451 60.9749 25.6089 60.7173 25.6777L53.9933 27.4822C53.736 27.5512 53.5167 27.7195 53.3835 27.9501C53.2502 28.1808 53.214 28.4549 53.2828 28.7122L53.7039 30.2841C50.3921 30.7941 48.0518 29.752 45.3838 28.5585C43.2181 27.5895 40.9785 26.5871 38.0683 26.3313C35.5841 26.0192 29.624 27.0641 27.8345 27.8015C26.7111 28.2627 26.1233 29.1146 25.3787 30.1935C25.2505 30.379 25.1102 30.5812 24.9611 30.7918C24.92 30.8209 24.8805 30.8492 24.8219 30.8864C22.7318 32.2808 18.6174 32.0578 13.4557 30.292L13.8789 28.7122C13.9475 28.4549 13.9113 28.1808 13.7781 27.9502C13.6448 27.7196 13.4256 27.5513 13.1684 27.4822L6.4444 25.6777C6.18685 25.6088 5.91248 25.645 5.68163 25.7784C5.45078 25.9118 5.28235 26.1314 5.21338 26.3889L0.0341613 45.7266C-0.0347299 45.984 0.00145438 46.2583 0.134757 46.4891C0.26806 46.7199 0.487566 46.8883 0.745005 46.9573L7.46929 48.7559C7.72697 48.8246 8.00139 48.7881 8.23218 48.6545C8.46297 48.5209 8.63124 48.301 8.69997 48.0434L8.93313 47.1732C9.50431 47.4737 10.0285 47.7681 10.4647 48.0169C9.01659 49.504 9.28067 50.8182 9.56756 51.4691C9.8742 52.0346 10.3029 52.5246 10.8225 52.9037C11.3422 53.2828 11.9397 53.5414 12.5718 53.6608C12.7312 54.8691 13.6204 56.0042 14.3542 56.9304L14.5341 57.158C14.7334 57.4193 14.985 57.6362 15.2729 57.7947C15.5607 57.9532 15.8785 58.0499 16.2058 58.0786C16.2781 58.0851 16.3507 58.0877 16.423 58.0877C16.7739 58.0836 17.1213 58.0181 17.4495 57.8942C17.859 58.511 18.424 59.0089 19.0876 59.3374C19.8855 59.7741 20.7709 60.0271 21.6791 60.078C22.14 60.1067 22.5934 59.9517 22.9402 59.6469C22.964 59.6259 22.9938 59.5973 23.0287 59.5617C23.0734 59.6948 23.1297 59.8238 23.1967 59.9472L23.1987 59.9511C23.4988 60.4469 23.9291 60.8509 24.4428 61.1193C24.9564 61.3877 25.5338 61.5103 26.1122 61.4736H26.1396C27.1427 61.4495 28.1253 61.1842 29.0042 60.7001C29.7014 61.286 30.7938 62.2173 31.8073 63.0877C32.3969 63.6642 33.1866 63.9905 34.0112 63.9984C34.0439 63.9998 34.0763 63.9997 34.1087 63.9997C34.7507 64.0072 35.3837 63.8476 35.9455 63.5366C36.5073 63.2257 36.9787 62.774 37.3133 62.226C37.3532 62.1521 37.3892 62.0775 37.4212 62.0016C38.2062 62.3267 39.0613 62.4457 39.9052 62.3475C40.7491 62.2492 41.5539 61.9369 42.2432 61.4402C42.8692 60.9952 43.3048 60.3309 43.4635 59.5795C44.1143 59.6334 44.7689 59.5393 45.3782 59.3042C45.9875 59.0691 46.5356 58.699 46.9815 58.2218C47.5463 57.6368 47.9073 56.8851 48.0107 56.0784C48.6285 56.0635 49.2371 55.9202 49.7966 55.6577C50.3561 55.3951 50.8548 55.019 51.2611 54.5533C51.7478 54.0033 52.048 53.3133 52.1186 52.5822C52.1892 51.8511 52.0267 51.1164 51.6543 50.4834C54.0396 50.0409 56.3421 49.232 58.48 48.0854C58.5432 48.2887 58.6695 48.4665 58.8406 48.5932C59.0118 48.7199 59.2188 48.7888 59.4317 48.7899C59.5196 48.7897 59.6071 48.7783 59.6921 48.7558L66.416 46.9572C66.6735 46.8882 66.893 46.7198 67.0263 46.4891C67.1597 46.2583 67.1959 45.9841 67.1272 45.7266ZM2.23546 45.2751L6.89454 27.88L11.6782 29.1637L7.30836 45.4603C7.30751 45.4635 7.30836 45.4667 7.30755 45.4699L7.01688 46.5543L2.23546 45.2751ZM11.4071 50.6598C11.2598 50.3255 11.4283 49.9068 11.8941 49.4291C12.0566 49.2775 12.8168 48.7551 13.3084 48.4277C13.4218 48.3502 13.535 48.274 13.6471 48.2063C13.6641 48.1955 13.6877 48.1803 13.6993 48.1732C13.7261 48.1574 13.7521 48.146 13.7788 48.1307C13.929 48.0445 14.0785 47.9641 14.2256 47.896C14.2635 47.8784 14.3 47.8661 14.3375 47.8497C14.4758 47.7898 14.6133 47.7337 14.7472 47.6901C14.7735 47.6816 14.7988 47.676 14.8248 47.668C14.9624 47.6253 15.1023 47.5908 15.2439 47.5646C15.2655 47.5608 15.2864 47.5589 15.3078 47.5554C15.4364 47.5349 15.5663 47.5234 15.6965 47.5211C15.7204 47.5208 15.7436 47.5221 15.7672 47.5225C15.9188 47.5246 16.0696 47.5436 16.2169 47.5793C16.2391 47.5849 16.2629 47.5875 16.2847 47.5939C16.4299 47.6349 16.5683 47.6972 16.6953 47.7787C16.7295 47.8031 16.7624 47.8293 16.7939 47.8571C16.8534 47.902 16.9087 47.9522 16.9591 48.0071C16.9826 48.0358 17.0045 48.0657 17.0247 48.0969C17.0627 48.1501 17.0951 48.2071 17.1215 48.267C17.1298 48.2868 17.1364 48.3061 17.1429 48.3258C16.6068 48.7696 15.8011 49.4783 15.026 50.198C14.4324 50.7435 13.8456 51.3062 13.4117 51.7786C13.0155 51.7524 12.6301 51.6385 12.2834 51.445C11.9366 51.2515 11.6373 50.9833 11.4071 50.6598ZM16.3815 56.0765C16.3269 56.0719 16.2742 56.0547 16.2274 56.0263C16.1806 55.998 16.141 55.9592 16.1116 55.913L15.9297 55.6827C15.3513 55.0455 14.8923 54.3095 14.5744 53.5098C14.5923 53.4864 14.6114 53.4616 14.6309 53.4369L14.6332 53.4346C14.6676 53.3922 14.7088 53.3451 14.749 53.2988C14.7686 53.2762 14.7857 53.2552 14.8065 53.2318C14.8561 53.176 14.9112 53.1166 14.9675 53.0564C14.9834 53.0393 14.9983 53.0229 15.0147 53.0056C15.0817 52.9348 15.1525 52.8616 15.2271 52.7859L15.24 52.7726C15.9688 52.0345 17.0205 51.0926 17.8359 50.3842L17.8573 50.3656C17.9054 50.3237 17.9505 50.2849 17.9968 50.2449C18.3919 49.9037 18.6828 49.659 18.7679 49.5898C18.9807 49.3912 19.2419 49.252 19.5254 49.186C19.8089 49.1201 20.1047 49.1297 20.3833 49.2139C20.517 49.294 20.6313 49.4026 20.7179 49.5321C20.8046 49.6616 20.8614 49.8087 20.8844 49.9628C20.9074 50.0731 20.9192 50.1854 20.9195 50.298C20.9178 50.4696 20.8963 50.6404 20.8554 50.8071C20.805 50.9157 20.6588 51.1859 20.5152 51.4345L19.7938 52.4198C19.7736 52.4427 19.7543 52.4663 19.7359 52.4912L19.2681 53.1219L19.2633 53.1317L17.4807 55.5479L17.478 55.5515L17.4761 55.5538C17.4541 55.5741 17.4296 55.5963 17.4201 55.6061C17.4116 55.6146 17.4068 55.6259 17.3986 55.6347C17.1202 55.8942 16.7611 56.0502 16.3815 56.0765ZM21.6696 58.0714C20.7865 57.9853 19.954 57.6187 19.2943 57.0253C19.2119 56.9447 19.1474 56.8477 19.1049 56.7406C19.1154 56.7269 19.1245 56.7151 19.132 56.7047L19.1478 56.6844L20.8845 54.3309L20.8917 54.3231L21.3664 53.678C21.3776 53.663 21.3891 53.646 21.4004 53.6281L22.1688 52.5782C22.1895 52.5499 22.2087 52.5207 22.2264 52.4905C22.4687 52.1388 22.6592 51.754 22.792 51.3481C22.8236 51.225 22.8493 51.1024 22.8701 50.9804C22.994 50.9923 23.1164 51.0161 23.2357 51.0514C23.2497 51.0555 23.264 51.0602 23.2782 51.0647C23.3763 51.0959 23.4723 51.1336 23.5655 51.1773C23.6005 51.1935 23.6351 51.2088 23.6703 51.2273C23.7183 51.2524 23.7663 51.2812 23.8141 51.311C23.865 51.3427 23.915 51.3786 23.9648 51.4157C23.9956 51.4387 24.0273 51.459 24.0574 51.4842C24.2709 51.6462 24.4345 51.865 24.5295 52.1156C24.6244 52.3663 24.6469 52.6386 24.5942 52.9014C24.2468 53.728 23.8426 54.5297 23.3845 55.3006C23.3438 55.3775 23.2998 55.4545 23.2569 55.5315C23.1819 55.6653 23.1082 55.7989 23.0309 55.9326C22.6249 56.6748 22.1701 57.3893 21.6696 58.0714ZM25.7225 59.4343C25.5641 59.4231 25.4107 59.3738 25.2754 59.2907C25.1401 59.2075 25.0268 59.0929 24.9453 58.9567C24.7881 58.2873 24.8653 57.5843 25.1641 56.9651L25.1701 56.9494C25.2495 56.7233 25.342 56.502 25.4471 56.2866C25.5938 55.9738 25.768 55.6746 25.9676 55.3926C25.9771 55.3793 25.9869 55.3632 25.9964 55.3503C26.1629 55.0802 26.392 54.8542 26.6644 54.6915C26.6757 54.6899 26.6871 54.689 26.6984 54.6888C26.7415 54.6815 26.7855 54.6824 26.8282 54.6915C26.8483 54.6954 26.8681 54.7008 26.8874 54.7077C26.9381 54.7273 26.9852 54.755 27.0269 54.7897C27.0338 54.7954 27.0438 54.8024 27.0491 54.8073C27.1617 54.9316 27.2412 55.0823 27.28 55.2455C27.3188 55.4087 27.3158 55.579 27.2711 55.7407C27.2666 55.7654 27.2627 55.7908 27.2601 55.8155L27.2572 55.8344C27.2418 55.9607 27.2201 56.0868 27.1979 56.2126C27.0547 56.7997 27.0609 57.4134 27.2159 57.9974C27.2771 58.1891 27.3467 58.3799 27.4198 58.5688L27.4257 58.5833C27.4983 58.7697 27.576 58.9512 27.6574 59.1285L27.6608 59.1366C27.0504 59.3986 26.3834 59.5011 25.7225 59.4343ZM49.7334 53.2468C49.0955 53.9923 47.9172 54.3038 47.3839 53.8739L40.0246 47.0482C39.8291 46.8675 39.5699 46.7717 39.3039 46.7818C39.0378 46.792 38.7867 46.9073 38.6055 47.1025C38.4244 47.2976 38.3281 47.5567 38.3378 47.8227C38.3475 48.0888 38.4624 48.3402 38.6572 48.5216L45.9062 55.2451C46.0101 55.5203 46.0285 55.8205 45.9588 56.1062C45.8892 56.392 45.7348 56.6501 45.5159 56.8466C45.1758 57.2127 44.7251 57.4574 44.2328 57.5432C43.7405 57.6291 43.2337 57.5514 42.7897 57.3221L36.0192 50.722C35.9249 50.6288 35.8131 50.5551 35.6902 50.5053C35.5674 50.4555 35.4358 50.4305 35.3033 50.4317C35.1707 50.433 35.0397 50.4604 34.9178 50.5125C34.7959 50.5646 34.6854 50.6403 34.5929 50.7353C34.5004 50.8302 34.4276 50.9425 34.3786 51.0657C34.3297 51.1889 34.3056 51.3206 34.3078 51.4532C34.31 51.5857 34.3384 51.7166 34.3913 51.8381C34.4443 51.9596 34.5208 52.0695 34.6164 52.1614L41.4084 58.7824C41.5158 58.979 41.6423 59.3755 41.0315 59.8373C40.4107 60.2557 39.6578 60.4313 38.9159 60.3308C38.174 60.2304 37.4949 59.8607 37.0078 59.2923L37.0016 59.2875C36.9988 59.2844 36.9982 59.2803 36.9953 59.2772L32.5535 54.4579C32.3728 54.2619 32.1217 54.1456 31.8554 54.1348C31.5891 54.1239 31.3294 54.2193 31.1334 54.4C30.9374 54.5806 30.8212 54.8317 30.8103 55.098C30.7995 55.3643 30.8948 55.6241 31.0755 55.8201L35.4484 60.5639C35.5341 60.6584 35.5891 60.7767 35.6062 60.9031C35.6233 61.0296 35.6016 61.1582 35.5442 61.2721C35.3797 61.5095 35.1565 61.7004 34.8965 61.826C34.6364 61.9517 34.3482 62.0079 34.0599 61.9892C33.7443 61.9924 33.4401 61.8709 33.2137 61.6509C33.1927 61.6293 33.1705 61.6091 33.1476 61.5894C31.0415 59.7804 30.1198 58.992 29.6574 58.6342C29.6361 58.5942 29.6146 58.5554 29.5936 58.5139C29.5262 58.3799 29.46 58.2409 29.3976 58.095C29.3715 58.0341 29.3477 57.9718 29.323 57.91C29.2682 57.7726 29.2169 57.6342 29.1704 57.4956C29.1588 57.461 29.1452 57.426 29.1343 57.3916C29.0907 57.1164 29.1057 56.835 29.1781 56.5659C29.2028 56.4227 29.2253 56.279 29.244 56.1352C29.2469 56.1139 29.2514 56.0926 29.254 56.0713C29.259 56.0424 29.2597 56.014 29.264 55.9853C29.3518 55.5053 29.3197 55.011 29.1706 54.5464C29.0214 54.0818 28.7598 53.6612 28.409 53.322C28.2895 53.2146 28.1601 53.1187 28.0226 53.0355L27.9925 53.0168C27.8593 52.9363 27.7188 52.8685 27.5728 52.8145L27.5708 52.814C27.4253 52.7615 27.275 52.7233 27.1221 52.7L27.1019 52.6963C26.9472 52.6736 26.7907 52.6664 26.6346 52.6746L26.6284 52.6744C26.6267 52.5586 26.6191 52.443 26.6057 52.328C26.5995 52.2541 26.5989 52.179 26.5881 52.1062C26.5716 51.995 26.5426 51.8878 26.5155 51.7798C26.4966 51.7045 26.4801 51.6287 26.4561 51.5553C26.4223 51.4515 26.3799 51.3518 26.3362 51.2519C26.3045 51.1794 26.2725 51.1073 26.2357 51.0369C26.1855 50.9411 26.1301 50.8485 26.0707 50.7572C26.0266 50.6895 25.98 50.6236 25.9309 50.5585C25.8651 50.4712 25.7971 50.3859 25.7225 50.3039C25.6669 50.2426 25.6062 50.1848 25.5458 50.1266C25.4648 50.0487 25.3845 49.9712 25.2953 49.8993C25.2291 49.846 25.1561 49.7984 25.0855 49.7487C24.9896 49.681 24.8966 49.6116 24.7927 49.5508C24.7211 49.5089 24.6412 49.4749 24.5659 49.4364C24.4581 49.3813 24.3564 49.3204 24.2413 49.2727C24.1382 49.2298 24.0365 49.1994 23.9343 49.1656C23.8962 49.1528 23.8578 49.1369 23.8198 49.1255C23.7279 49.0978 23.638 49.0779 23.5475 49.0574C23.4921 49.0448 23.4368 49.0314 23.3821 49.0215C23.297 49.006 23.2138 48.9951 23.1306 48.9863C23.0724 48.9799 23.0152 48.9753 22.9581 48.9721C22.8795 48.9678 22.8019 48.9649 22.7258 48.9664C22.7093 48.9667 22.6917 48.9645 22.6753 48.9652C22.6123 48.8119 22.5375 48.6638 22.4515 48.5221C22.4323 48.4899 22.4106 48.4603 22.3903 48.429C22.3201 48.32 22.2429 48.2157 22.1593 48.1166C22.1346 48.0875 22.1098 48.059 22.084 48.0311C21.9907 47.929 21.8901 47.8339 21.7831 47.7464C21.7651 47.7318 21.7486 47.7158 21.7303 47.7016C21.4493 47.4741 21.1224 47.3101 20.7721 47.2207C20.7499 47.2145 20.7273 47.2103 20.705 47.2045C20.5361 47.1617 20.3637 47.1342 20.1898 47.1224C20.1688 47.121 20.1482 47.1185 20.1272 47.1174C19.7171 47.1013 19.3075 47.1585 18.9176 47.2863C18.9091 47.2889 18.9008 47.2894 18.8923 47.2922C18.8605 47.2304 18.8197 47.1725 18.7834 47.1125C18.7575 47.0698 18.7339 47.0262 18.7058 46.9845C18.6608 46.918 18.6101 46.8552 18.5596 46.7917C18.5209 46.743 18.4836 46.6937 18.4417 46.6469C18.3945 46.5946 18.3429 46.5456 18.2917 46.4959C18.2382 46.4436 18.1851 46.3914 18.1275 46.3426C18.0774 46.3003 18.0237 46.2614 17.9706 46.2217C17.9258 46.1883 17.8851 46.1512 17.8382 46.1198C17.8039 46.0969 17.7647 46.0723 17.7241 46.0475L17.7162 46.0419L17.7064 46.0363L17.6831 46.0229C17.6406 45.9977 17.5951 45.9719 17.5449 45.9452L17.5205 45.9328C17.4702 45.9066 17.4171 45.8804 17.3595 45.8539C17.3477 45.8485 17.3348 45.8435 17.3227 45.8381C17.2674 45.8134 17.2102 45.7892 17.1486 45.7654C17.1325 45.7592 17.1152 45.7536 17.0988 45.7475C17.0384 45.7252 16.9764 45.7035 16.9103 45.6828C16.8926 45.6774 16.8737 45.6725 16.8556 45.6673C16.7875 45.6472 16.7178 45.628 16.6442 45.6106C16.6286 45.6069 16.6121 45.604 16.5962 45.6006C16.5163 45.5827 16.434 45.5666 16.3478 45.5531L16.3267 45.5502C14.867 45.3966 13.4044 45.8138 12.2454 46.7145C12.0606 46.6137 11.8332 46.4835 11.5722 46.3343C11.0035 46.0102 10.274 45.5939 9.46613 45.1834L12.9363 32.2393C15.6784 33.1625 19.5256 34.125 22.7262 33.6945L22.1734 34.299C22.1498 34.3242 22.1299 34.3478 22.1066 34.3729C22.0134 34.4755 21.9207 34.5785 21.8323 34.6769C21.7692 34.7476 21.6992 34.8219 21.6401 34.8898C21.5836 34.9539 21.5227 35.0262 21.4637 35.094C21.4045 35.1621 21.3436 35.232 21.2873 35.2982C21.1552 35.4531 21.0326 35.6048 20.9115 35.758C20.8845 35.7925 20.853 35.8293 20.8269 35.8634C20.8098 35.8856 20.7887 35.9095 20.7722 35.9314C20.6426 36.0973 20.5216 36.2698 20.4098 36.4483C20.306 36.612 20.2113 36.7813 20.1262 36.9553C19.9004 37.3922 19.8515 37.8992 19.9894 38.3712C19.9956 38.3918 20.0065 38.4101 20.0135 38.4302C20.0153 38.4356 20.0148 38.441 20.0166 38.4464C20.0201 38.4552 20.0257 38.4606 20.0294 38.4692C20.0823 38.6129 20.1569 38.7478 20.2505 38.8691C20.2731 38.8981 20.298 38.9206 20.3211 38.9485C20.3881 39.0307 20.4565 39.11 20.52 39.1733L20.5264 39.1794L20.5367 39.191C20.6918 39.3595 20.8642 39.5112 21.051 39.6437C21.0838 39.6702 21.1235 39.6908 21.1586 39.7151C21.1867 39.7343 21.2146 39.753 21.2437 39.7716C21.2702 39.7877 21.2922 39.8072 21.3202 39.8224C21.3476 39.8414 21.3764 39.8585 21.4062 39.8734C21.4509 39.8999 21.4952 39.9163 21.5396 39.938C21.6111 39.9748 21.6854 40.0085 21.7618 40.0415C21.8532 40.0854 21.9477 40.1225 22.0445 40.1527C22.0532 40.1562 22.0649 40.1586 22.0744 40.1619C22.1361 40.182 22.2008 40.1984 22.2654 40.2156C22.3116 40.2278 22.357 40.2417 22.4043 40.2516C22.4762 40.2721 22.5496 40.287 22.6238 40.296C22.6327 40.2977 22.6411 40.2979 22.65 40.2995C22.7026 40.3078 22.7564 40.3142 22.8107 40.3206C22.8313 40.3227 22.8536 40.3271 22.8734 40.3287C22.9068 40.3326 22.9441 40.3276 22.9778 40.3306C23.1609 40.3453 23.3447 40.3486 23.5282 40.3405C23.637 40.3358 23.7464 40.3238 23.8577 40.3113C24.0031 40.2949 24.1523 40.2722 24.3071 40.2418C24.3658 40.23 24.4222 40.2288 24.4813 40.2149C24.6308 40.1829 24.7803 40.1436 24.9046 40.1044C25.3032 39.9877 25.6917 39.8394 26.0666 39.6608L26.0748 39.6566L26.082 39.6536C26.1062 39.6424 26.1317 39.6269 26.1559 39.6155C26.3312 39.5334 26.5098 39.4431 26.6826 39.348C26.7095 39.3338 26.7373 39.3161 26.7643 39.3016C26.8421 39.2586 26.9208 39.2134 26.9995 39.1677C27.1794 39.0642 27.3601 38.9535 27.5415 38.8354C27.5925 38.8027 27.6412 38.7767 27.6925 38.7428L27.8007 38.6674L27.8054 38.6643L27.9883 38.5459L27.9876 38.5445C28.019 38.5236 28.0517 38.4987 28.0828 38.4739C28.1037 38.4601 28.1227 38.4471 28.1387 38.4346C28.1482 38.4276 28.1613 38.4163 28.1714 38.4087L28.1773 38.4045L28.2078 38.3796C28.2407 38.3536 28.271 38.3307 28.3092 38.2992L28.356 38.2601C28.3889 38.2338 28.4192 38.2095 28.4596 38.1775C28.6069 38.0564 28.7822 37.9092 28.9759 37.7463C29.3807 37.4061 29.902 36.9687 30.4029 36.5755C30.4582 36.5323 30.517 36.4853 30.5698 36.4447C30.6237 36.4033 30.6755 36.3648 30.7283 36.325C30.8331 36.2463 30.9342 36.1715 31.0278 36.1047C31.0558 36.0848 31.0841 36.0642 31.1115 36.045C31.2372 35.957 31.3542 35.8784 31.4566 35.8149C31.5086 35.782 31.5593 35.7512 31.6152 35.7195C31.6686 35.6891 31.7246 35.6592 31.7877 35.6278C31.9791 35.5251 32.1775 35.4359 32.3814 35.3608C32.4023 35.3523 32.4245 35.3441 32.4463 35.3366L32.4596 35.3323C32.4825 35.3262 32.5051 35.3195 32.5276 35.3118C32.681 35.2605 32.8377 35.2196 32.9965 35.1893C33.1031 35.1685 33.21 35.1483 33.3288 35.1345C33.5334 35.1078 33.7398 35.0965 33.9461 35.1008C34.0793 35.1056 34.2115 35.1242 34.3408 35.1565C34.435 35.1804 34.5278 35.2095 34.6188 35.2436L34.7263 35.2836L34.7679 35.3014C34.8597 35.3399 34.9541 35.3841 35.0511 35.4341L35.1254 35.474C35.1455 35.4844 35.1668 35.4953 35.1928 35.5097C35.2309 35.531 35.2714 35.5573 35.3104 35.5803C35.4477 35.659 35.5898 35.7526 35.7334 35.851C35.7962 35.8946 35.86 35.94 35.9246 35.9875C36.0461 36.0765 36.1691 36.17 36.295 36.2729C36.3761 36.3381 36.4562 36.4011 36.5398 36.4717C36.5922 36.5163 36.6463 36.5632 36.7075 36.6177C36.7362 36.6422 36.7632 36.6672 36.7918 36.6921C36.9008 36.7884 37.0094 36.884 37.1222 36.9891C37.1826 37.0451 37.2425 37.104 37.3025 37.161C37.4429 37.2952 37.5845 37.4318 37.7306 37.579C37.8738 37.7231 38.0167 37.8676 38.1632 38.0237C38.2764 38.1421 38.389 38.2606 38.5074 38.3914C38.7599 38.6616 39.0125 38.9443 39.267 39.2348L39.3273 39.303C39.3705 39.3525 39.4131 39.4009 39.457 39.4517C39.5733 39.5856 39.6901 39.7225 39.8074 39.8622L40.0364 40.1318C40.5553 40.7488 41.0813 41.3899 41.608 42.054L42.3669 42.9943L42.4127 43.0519C42.5174 43.1867 42.6199 43.3161 42.7158 43.433L42.857 43.6105C42.9294 43.7015 43.0038 43.794 43.0767 43.8855C43.149 43.9764 43.2208 44.0684 43.2934 44.1588L43.578 44.5161C43.6188 44.5676 43.6592 44.6146 43.7 44.6659C44.1283 45.2007 44.5559 45.7275 44.9802 46.2375C45.0268 46.2936 45.0742 46.3546 45.1208 46.4102C45.1391 46.4351 45.1581 46.4599 45.1777 46.4835C45.2141 46.5268 45.2526 46.571 45.2895 46.6144L45.2562 46.7033L45.726 47.1266L46.0139 47.4538C46.2337 47.7037 46.4483 47.9477 46.6629 48.1839C46.9888 48.5418 47.3087 48.8801 47.6299 49.2013C47.9832 49.5468 48.2796 49.8294 48.5662 50.0728C48.6763 50.1693 48.7869 50.2608 48.9056 50.3561C48.9306 50.3763 48.9568 50.3998 48.9817 50.4196C48.9985 50.4356 49.0169 50.4497 49.0346 50.4644L49.297 50.7304H49.326C50.0076 51.4065 50.5223 52.325 49.7334 53.2468ZM50.0446 48.6885C49.9915 48.6439 49.9431 48.6066 49.8855 48.5563C49.6098 48.3157 49.3291 48.0521 49.0431 47.7725C48.7506 47.4801 48.4529 47.1641 48.1487 46.831C47.8949 46.551 47.6342 46.2544 47.3713 45.9535L47.3099 45.8836L46.6268 45.0717L46.6174 45.0653C46.584 45.0254 46.5503 44.9838 46.5168 44.9437C46.2035 44.5669 45.886 44.1785 45.5671 43.7826C45.5199 43.724 45.4728 43.6655 45.4256 43.6066C45.1017 43.2032 44.7775 42.7964 44.4582 42.3946C44.4215 42.348 44.3871 42.3048 44.3487 42.2557C44.2609 42.1512 44.1724 42.0369 44.0835 41.9237L43.9037 41.6976C43.6564 41.3875 43.4137 41.0819 43.1723 40.7921C42.7745 40.2942 42.3701 39.797 41.975 39.3135C41.6203 38.8854 41.2944 38.5031 40.9799 38.1399C40.9605 38.1175 40.9417 38.0946 40.9222 38.0723L40.8461 37.9866C40.2439 37.2964 39.6993 36.7042 39.1963 36.2011C38.9288 35.9307 38.6689 35.6802 38.4149 35.4463L38.3993 35.4311C38.2685 35.3133 38.137 35.1949 38.0284 35.1039C37.9735 35.0545 37.9242 35.0158 37.8716 34.9704C37.8038 34.913 37.7347 34.8519 37.6678 34.7972C37.6569 34.7883 37.6447 34.777 37.6338 34.7683C37.3024 34.4929 36.9526 34.2403 36.5869 34.0123C36.5003 33.957 36.4121 33.8969 36.3269 33.8467C36.2375 33.7904 36.1475 33.7408 36.0205 33.6736C35.9516 33.6366 35.8851 33.6078 35.8171 33.5746C35.7792 33.5563 35.7409 33.5364 35.7033 33.5192C35.6845 33.5109 35.664 33.4985 35.6456 33.491C35.5703 33.4564 35.4912 33.4223 35.463 33.4138L35.2556 33.336C35.2378 33.3291 35.2149 33.3237 35.1966 33.3172C35.1531 33.3023 35.1098 33.2892 35.0667 33.2758C35.0125 33.259 34.9651 33.2413 34.9043 33.2241C34.8295 33.2039 34.752 33.1924 34.6759 33.1768C34.6188 33.1649 34.5612 33.1506 34.5048 33.1413C34.3355 33.1136 34.1646 33.0967 33.9932 33.0906C33.6865 33.084 33.3798 33.1006 33.0756 33.1403L33.0598 33.1429C32.9166 33.1586 32.7686 33.1804 32.6519 33.2058C32.6324 33.2094 32.6115 33.2175 32.5918 33.2213C32.3774 33.2625 32.1659 33.3171 31.9584 33.3847C31.9511 33.3871 31.9441 33.3878 31.9368 33.3903C31.925 33.3935 31.9133 33.3968 31.9015 33.4007C31.8132 33.4275 31.716 33.4622 31.663 33.4845C31.3906 33.581 31.1264 33.6994 30.873 33.8384C30.7071 33.9202 30.546 34.0113 30.3904 34.1113L30.3882 34.1126L30.3734 34.1224C30.2542 34.1963 30.127 34.2815 29.9963 34.3723C29.9645 34.3944 29.9307 34.4187 29.8978 34.442C29.7849 34.5221 29.6696 34.6063 29.552 34.6946C29.5045 34.7302 29.4584 34.764 29.4091 34.8017C29.2807 34.9 29.1509 35.0014 29.0209 35.1047C28.9151 35.1885 28.8049 35.2775 28.6924 35.3689C28.6636 35.3924 28.6355 35.4155 28.6068 35.4391C28.4885 35.5359 28.3749 35.6271 28.2497 35.7319C28.1421 35.8195 28.0384 35.9066 27.9389 35.991L26.9501 36.8122L26.9477 36.814C26.9094 36.8389 26.8797 36.8611 26.8604 36.8762L26.6895 36.9934C26.6028 37.0524 26.5223 37.102 26.4393 37.1555C26.2973 37.2466 26.1567 37.3329 26.0174 37.4143C25.9404 37.4589 25.8627 37.5049 25.7867 37.546C25.6162 37.6399 25.4478 37.7285 25.2846 37.8056C25.2679 37.8134 25.2533 37.8226 25.2362 37.8302C24.9808 37.9483 24.7185 38.0508 24.4507 38.1374C24.4107 38.15 24.3721 38.1656 24.3316 38.1773C24.2234 38.2094 24.1197 38.2344 24.0175 38.2572C23.8719 38.2903 23.7244 38.3142 23.5759 38.3287C23.5338 38.3326 23.4944 38.3318 23.4534 38.3338C23.3605 38.339 23.2673 38.3385 23.1743 38.3323C22.7131 38.3128 22.2781 38.1124 21.9635 37.7745C22.0043 37.6953 22.0498 37.6148 22.1061 37.5265C22.1848 37.4001 22.2703 37.278 22.3622 37.1608C22.4734 37.0136 22.6012 36.8569 22.7328 36.7004L22.7539 36.6749C22.8717 36.5354 22.9916 36.3981 23.1077 36.2661C23.1687 36.1969 23.2318 36.1268 23.2943 36.0569C23.3939 35.9446 23.4938 35.8322 23.6029 35.7147L23.6882 35.6207L24.5105 34.7223C24.5989 34.6248 24.6849 34.524 24.7696 34.4246L24.8913 34.2826C24.9072 34.2639 24.9181 34.2481 24.9335 34.2296C24.9778 34.1701 25.0228 34.1159 25.0735 34.0543L25.0975 34.0237C25.1325 33.9787 25.1751 33.929 25.207 33.8861L25.3542 33.6964C25.4546 33.5629 25.5541 33.4301 25.6156 33.3385C25.8122 33.0755 25.9957 32.8203 26.1416 32.5991C26.243 32.4605 26.3448 32.3172 26.4426 32.1765L26.4992 32.0973C26.6951 31.8245 26.8705 31.57 27.0327 31.3351C27.722 30.3367 28.0498 29.8859 28.599 29.6602C30.1294 29.0294 35.7496 28.0703 37.8557 28.3294C40.1945 28.6211 42.4644 29.3195 44.5626 30.3931C47.3407 31.6368 50.2084 32.9205 54.2256 32.2401L57.9399 46.0982C55.507 47.479 52.8227 48.3597 50.0446 48.6885ZM60.143 46.5543L55.4838 29.1637L60.2671 27.88L64.9256 45.2751L60.143 46.5543Z"/></svg>