<svg class="svgicon svgicon-saop" xmlns="http://www.w3.org/2000/svg" width="48" height="48" viewBox="0 0 48 48"><path d="M24 12C27.3083 12 30 9.30835 30 6C30 2.69165 27.3083 0 24 0C20.6917 0 18 2.69165 18 6C18 9.30835 20.6917 12 24 12ZM24 2C26.2056 2 28 3.79443 28 6C28 8.20557 26.2056 10 24 10C21.7944 10 20 8.20557 20 6C20 3.79443 21.7944 2 24 2Z"/><path d="M35.75 14C38.6448 14 41 11.6448 41 8.75C41 5.85522 38.6448 3.5 35.75 3.5C32.8552 3.5 30.5 5.85522 30.5 8.75C30.5 11.6448 32.8552 14 35.75 14ZM35.75 5.5C37.542 5.5 39 6.95801 39 8.75C39 10.542 37.542 12 35.75 12C33.958 12 32.5 10.542 32.5 8.75C32.5 6.95801 33.958 5.5 35.75 5.5Z"/><path d="M11.75 14C14.6448 14 17 11.6448 17 8.75C17 5.85522 14.6448 3.5 11.75 3.5C8.85522 3.5 6.5 5.85522 6.5 8.75C6.5 11.6448 8.85522 14 11.75 14ZM11.75 5.5C13.542 5.5 15 6.95801 15 8.75C15 10.542 13.542 12 11.75 12C9.95801 12 8.5 10.542 8.5 8.75C8.5 6.95801 9.95801 5.5 11.75 5.5Z"/><path d="M39.2412 30.7686H8.75903C8.20679 30.7686 7.75903 31.2163 7.75903 31.7686V38.4707C7.75903 39.0229 8.20679 39.4707 8.75903 39.4707H39.2412C39.7935 39.4707 40.2412 39.0229 40.2412 38.4707V31.7686C40.2412 31.2163 39.7935 30.7686 39.2412 30.7686ZM38.2412 37.4707H9.75903V32.7686H38.2412V37.4707Z"/><path d="M47 29C47.5522 29 48 28.5522 48 28V24C48 23.4478 47.5522 23 47 23H46V21.71C46 18.1345 43.3267 15.0415 39.7817 14.5156L39.3789 14.4561L39.0488 14.6946C38.1487 15.3457 37.0859 15.6899 35.9751 15.6899C34.9518 15.6899 33.9751 15.3973 33.1411 14.8513C33.1172 14.8272 33.0937 14.8026 33.0691 14.7798C31.8159 13.5171 30.1533 12.6794 28.385 12.4204L27.9839 12.3618L27.6553 12.5986C26.574 13.3782 25.2998 13.79 23.97 13.79C22.6272 13.79 21.3491 13.3757 20.2742 12.5918L19.9495 12.3552L19.5513 12.4089C17.6393 12.6669 15.9009 13.545 14.6313 14.8755C13.8296 15.3499 12.9148 15.605 11.9751 15.605C10.853 15.605 9.78564 15.2598 8.88867 14.6067L8.56372 14.3701L8.16553 14.4241C4.4187 14.9331 1.77393 18.0393 2 21.6575V23H1C0.447753 23 0 23.4478 0 24V28C0 28.5522 0.447753 29 1 29H3.5V41.5H1C0.447753 41.5 0 41.9478 0 42.5V47C0 47.5522 0.447753 48 1 48H47C47.5522 48 48 47.5522 48 47V42.5C48 41.9478 47.5522 41.5 47 41.5H44.5V29H47ZM35.9751 17.6899C37.3623 17.6899 38.6953 17.3013 39.8569 16.5623C42.2434 17.0935 44 19.2434 44 21.71V23H35.5V20.645C35.5 19.5972 35.3025 18.5732 34.9249 17.6146C35.27 17.6643 35.6207 17.6899 35.9751 17.6899ZM19.4482 14.4514C20.7908 15.3286 22.345 15.79 23.97 15.79C25.5774 15.79 27.1233 15.3335 28.467 14.4653C28.8837 14.5525 29.2889 14.6847 29.6782 14.8527L31.7358 16.3259C31.7738 16.3531 31.8145 16.3773 31.854 16.4039C32.9142 17.5732 33.5 19.0737 33.5 20.645V23H14.5V20.645L14.4978 20.5776C14.3916 19.0037 14.9143 17.5071 15.9749 16.3579C16.8633 15.3811 18.0857 14.7124 19.4482 14.4514ZM3.9978 21.5576C3.83227 19.1055 5.56177 16.9766 8.06885 16.4678C9.23145 17.2131 10.573 17.605 11.9751 17.605C12.3036 17.605 12.6302 17.5822 12.9528 17.5384C12.5906 18.5244 12.4311 19.5865 12.5 20.6775V23H4V21.625L3.9978 21.5576ZM46 43.5V46H2V43.5H4.5H43.5H46ZM5.5 41.5V29H42.5V41.5H5.5ZM43.5 27H4.5H2V25H12.5H35.5H46V27H43.5Z"/></svg>