<svg class="svgicon svgicon-saop" xmlns="http://www.w3.org/2000/svg" width="48" height="48" viewBox="0 0 48 48"><path d="M8 37H1C0.447754 37 0 37.4478 0 38V47C0 47.5522 0.447754 48 1 48H8C8.55225 48 9 47.5522 9 47V38C9 37.4478 8.55225 37 8 37ZM7 46H2V39H7V46Z"/><path d="M47 37H40C39.4478 37 39 37.4478 39 38V47C39 47.5522 39.4478 48 40 48H47C47.5522 48 48 47.5522 48 47V38C48 37.4478 47.5522 37 47 37ZM46 46H41V39H46V46Z"/><path d="M13 19H35C35.5522 19 36 18.5522 36 18V7C36 6.44775 35.5522 6 35 6H29V1C29 0.447754 28.5522 0 28 0H20C19.4478 0 19 0.447754 19 1V6H13C12.4478 6 12 6.44775 12 7V18C12 18.5522 12.4478 19 13 19ZM34 8V17H29V8H34ZM21 2H27V17H21V2ZM14 8H19V17H14V8Z"/><path d="M4.5 35.5C5.05225 35.5 5.5 35.0522 5.5 34.5V27.5H23V28.5C23 29.0522 23.4478 29.5 24 29.5C24.5522 29.5 25 29.0522 25 28.5V27.5H42.5V34.5C42.5 35.0522 42.9478 35.5 43.5 35.5C44.0522 35.5 44.5 35.0522 44.5 34.5V26.5C44.5 25.9478 44.0522 25.5 43.5 25.5H25V23.3322L25.5159 23.8481C25.7109 24.0435 25.967 24.1411 26.2229 24.1411C26.4788 24.1411 26.7346 24.0435 26.9299 23.8481C27.3206 23.4575 27.3206 22.8247 26.9299 22.4341L24.707 20.2109C24.4765 19.9802 24.1615 19.8893 23.8615 19.9313C23.5614 19.8893 23.2464 19.9802 23.0159 20.2109L20.793 22.4341C20.4023 22.8247 20.4023 23.4575 20.793 23.8481C20.9883 24.0435 21.2441 24.1411 21.5 24.1411C21.7559 24.1411 22.012 24.0435 22.207 23.8481L23 23.0551V25.5H4.5C3.94775 25.5 3.5 25.9478 3.5 26.5V34.5C3.5 35.0522 3.94775 35.5 4.5 35.5Z"/><path d="M24 13.5C24.5522 13.5 25 13.0522 25 12.5V6.5C25 5.94775 24.5522 5.5 24 5.5C23.4478 5.5 23 5.94775 23 6.5V12.5C23 13.0522 23.4478 13.5 24 13.5Z"/><path d="M28 31H20C19.4478 31 19 31.4478 19 32V47C19 47.5522 19.4478 48 20 48H28C28.5522 48 29 47.5522 29 47V32C29 31.4478 28.5522 31 28 31ZM27 46H21V33H27V46Z"/><path d="M24 43.5C24.5522 43.5 25 43.0522 25 42.5V36.5C25 35.9478 24.5522 35.5 24 35.5C23.4478 35.5 23 35.9478 23 36.5V42.5C23 43.0522 23.4478 43.5 24 43.5Z"/><path d="M31.5 15C32.0522 15 32.5 14.5522 32.5 14V11C32.5 10.4478 32.0522 10 31.5 10C30.9478 10 30.5 10.4478 30.5 11V14C30.5 14.5522 30.9478 15 31.5 15Z"/><path d="M16.5 10C15.9478 10 15.5 10.4478 15.5 11V14C15.5 14.5522 15.9478 15 16.5 15C17.0522 15 17.5 14.5522 17.5 14V11C17.5 10.4478 17.0522 10 16.5 10Z"/></svg>