<svg class="svgicon svgicon-saop" xmlns="http://www.w3.org/2000/svg" width="38" height="48" viewBox="0 0 38 48"><path d="M36.7686 46.0664C36.3938 45.2893 36.355 42.6721 36.7075 41.9304C37.0979 41.7937 37.3774 41.4214 37.3765 40.9844C37.3762 40.8541 37.3493 40.7305 37.3037 40.6164V3.4834C37.3037 1.57007 35.7493 0.0134277 33.8386 0.0134277H4.09375C2.18042 0.0134277 0.623779 1.57007 0.623779 3.4834V44.2534C0.623779 44.3837 0.650452 44.5073 0.69577 44.6214C1.06509 46.5256 3.05823 47.9866 5.46118 47.9866H36.3687C36.3704 47.9866 36.3723 47.9866 36.3743 47.9866C36.3777 47.9866 36.3813 47.9866 36.385 47.9866C36.9355 47.9819 37.3789 47.533 37.3765 46.9824C37.3748 46.5708 37.1248 46.2183 36.7686 46.0664ZM4.09375 2.01343H33.8386C34.6465 2.01343 35.3037 2.67285 35.3037 3.4834V39.9866H5.46118C4.40045 39.9866 3.42163 40.2743 2.62378 40.7558V3.4834C2.62378 2.67285 3.2832 2.01343 4.09375 2.01343ZM5.46118 45.9866C3.92603 45.9866 2.62891 45.0708 2.62891 43.9866C2.62891 42.9023 3.92603 41.9866 5.46118 41.9866H34.6299C34.384 43.1985 34.4282 44.8015 34.6843 45.9866H5.46118Z"/><path d="M6.08691 35.1123C7.11719 35.1123 7.95532 35.9504 7.95532 36.9807C7.95532 37.533 8.40308 37.9807 8.95532 37.9807H29.2185C29.7708 37.9807 30.2185 37.533 30.2185 36.9807C30.2185 35.9504 31.0566 35.1123 32.0869 35.1123C32.6392 35.1123 33.0869 34.6646 33.0869 34.1123V7.84912C33.0869 7.29688 32.6392 6.84912 32.0869 6.84912C31.0566 6.84912 30.2185 6.01099 30.2185 4.98071C30.2185 4.42847 29.7708 3.98071 29.2185 3.98071H8.95532C8.40308 3.98071 7.95532 4.42847 7.95532 4.98071C7.95532 6.01099 7.11719 6.84912 6.08691 6.84912C5.53467 6.84912 5.08691 7.29688 5.08691 7.84912V34.1123C5.08691 34.6646 5.53467 35.1123 6.08691 35.1123ZM7.08691 8.71802C8.41772 8.36157 9.46777 7.31152 9.82422 5.98071H28.3496C28.7061 7.31152 29.7561 8.36157 31.0869 8.71802V33.2434C29.7561 33.5999 28.7061 34.6499 28.3496 35.9807H9.82422C9.46777 34.6499 8.41772 33.5999 7.08691 33.2434V8.71802Z"/><path d="M13.4931 24.5381C15.2028 24.5381 16.6543 23.2026 16.7976 21.498H16.7968C16.8127 21.3179 16.7827 21.1331 16.7065 20.9707C16.7004 20.9578 16.6941 20.9448 16.6875 20.9321L15.1137 17.9214H17.9912V26.4214H15.4912C14.9389 26.4214 14.4912 26.8691 14.4912 27.4214C14.4912 27.9736 14.9389 28.4214 15.4912 28.4214H22.4912C23.0434 28.4214 23.4912 27.9736 23.4912 27.4214C23.4912 26.8691 23.0434 26.4214 22.4912 26.4214H19.9912V17.9214H22.8561L21.3105 20.9526C21.2221 21.124 21.1862 21.3215 21.2033 21.5139H21.2026C21.3457 23.2188 22.7985 24.5542 24.5107 24.5542C26.2207 24.5542 27.6721 23.2188 27.8151 21.5139H27.8144C27.8305 21.3298 27.7988 21.1411 27.7187 20.9758C27.7143 20.9668 27.7097 20.9575 27.705 20.9487L25.4361 16.6079C25.304 16.2102 24.9332 15.9214 24.4912 15.9214H19.9912V14.4214C19.9912 13.8691 19.5434 13.4214 18.9912 13.4214C18.4389 13.4214 17.9912 13.8691 17.9912 14.4214V15.9214H13.4912C13.4855 15.9214 13.4803 15.923 13.4747 15.9231C13.4705 15.923 13.4668 15.9214 13.4626 15.9214C13.4609 15.9214 13.4592 15.9214 13.4572 15.9214C13.4301 15.9215 13.4049 15.9305 13.3781 15.9328C13.3405 15.9371 13.3028 15.9405 13.2666 15.9489C12.9711 16.0085 12.7119 16.1921 12.5717 16.467L10.2871 20.9478C10.2028 21.1162 10.1691 21.3096 10.1857 21.4978H10.185C10.3281 23.2026 11.781 24.5381 13.4931 24.5381ZM24.5107 22.5542C23.9099 22.5542 23.3894 22.1409 23.2365 21.5784L24.4917 19.1162L25.78 21.583C25.6259 22.1433 25.1081 22.5542 24.5107 22.5542ZM13.4741 19.0999L14.7624 21.5667C14.6084 22.127 14.0903 22.5381 13.4931 22.5381C12.8923 22.5381 12.3715 22.1248 12.219 21.562L13.4741 19.0999Z"/></svg>