<svg class="svgicon svgicon-saop" xmlns="http://www.w3.org/2000/svg" width="48" height="48" viewBox="0 0 48 48"><path d="M6.0603 11.1885C6.0603 12.1504 6.48193 13.0564 7.2168 13.6743C7.4043 13.8318 7.63281 13.9087 7.85986 13.9087C8.14502 13.9087 8.42798 13.7874 8.62598 13.5522C8.9812 13.1294 8.92651 12.4985 8.50391 12.1433C8.22192 11.9062 8.0603 11.5583 8.0603 11.1885C8.0603 10.6052 8.46826 10.0955 9.03003 9.97607C9.04218 9.97351 9.05277 9.96796 9.0647 9.96497C9.08719 9.95932 9.10874 9.95105 9.13098 9.94379C9.19479 9.92297 9.25494 9.89673 9.31168 9.86469C9.32303 9.85831 9.33551 9.85623 9.34668 9.84937C9.35431 9.84467 9.36008 9.83829 9.36752 9.83344C9.39908 9.81284 9.42767 9.78928 9.45645 9.76544C9.47919 9.74667 9.50256 9.72882 9.52326 9.7084C9.54703 9.68488 9.56757 9.659 9.58884 9.6333C9.60919 9.60873 9.63031 9.58496 9.64807 9.55878C9.66614 9.5322 9.68051 9.50366 9.69595 9.47546C9.71112 9.4476 9.7273 9.42053 9.73972 9.39151C9.75296 9.36072 9.76202 9.32852 9.77216 9.29642C9.78122 9.26755 9.79144 9.23929 9.79785 9.20975C9.80493 9.1774 9.80774 9.14423 9.81155 9.11099C9.81522 9.07928 9.81964 9.048 9.82028 9.01599C9.8208 8.98602 9.81757 8.95587 9.81534 8.92557C9.81271 8.88901 9.81015 8.85278 9.80344 8.81644C9.80179 8.80759 9.80243 8.79889 9.80054 8.79004C9.79596 8.76855 9.78677 8.74951 9.78092 8.72867C9.77136 8.69464 9.76193 8.66089 9.7486 8.62759C9.73496 8.59335 9.71808 8.56152 9.70102 8.52951C9.69116 8.51102 9.68497 8.49149 9.67383 8.47339C9.26807 7.8147 9.05371 7.0542 9.05371 6.27393C9.05371 3.94238 10.9504 2.04565 13.282 2.04565C15.6135 2.04565 17.5103 3.94238 17.5103 6.27393C17.5103 6.82617 17.958 7.27393 18.5103 7.27393C19.0625 7.27393 19.5103 6.82617 19.5103 6.27393C19.5103 2.8396 16.7163 0.0456543 13.282 0.0456543C9.84766 0.0456543 7.05371 2.8396 7.05371 6.27393C7.05371 7.04758 7.20026 7.8074 7.47641 8.51917C6.61819 9.11026 6.0603 10.0973 6.0603 11.1885Z"/><path d="M12.6655 10.582C12.3769 10.6673 12.0724 10.634 11.8083 10.4893C11.3234 10.2236 10.7162 10.4021 10.4509 10.8862C10.1857 11.3709 10.3635 11.9785 10.8478 12.2437C11.3144 12.499 11.8266 12.6289 12.3442 12.6289C12.6393 12.6289 12.936 12.5867 13.227 12.5015C14.029 12.2671 14.6913 11.7344 15.0922 11.0022C15.4931 10.2698 15.5847 9.42482 15.35 8.62306C15.1157 7.8213 14.5829 7.15895 13.8505 6.75807C13.3432 6.48048 12.7702 6.34718 12.1974 6.37868C11.6457 6.407 11.2216 6.87697 11.2497 7.42848C11.2778 7.97975 11.7436 8.39748 12.2995 8.37624C12.5065 8.36403 12.7084 8.41286 12.8903 8.51247C13.4355 8.81081 13.6362 9.49684 13.3378 10.0418C13.1935 10.3057 12.9548 10.4973 12.6655 10.582Z"/><path d="M47.0173 9.02325C46.7175 8.84234 46.3447 8.83087 46.0352 8.99395L37.0352 13.7203C36.7061 13.8929 36.5 14.2339 36.5 14.6055V19.4444L32.5398 21.4971C32.2083 21.6692 32 22.0115 32 22.3851V33.5001H30.5V29.5001C30.5 29.3184 30.4478 29.1504 30.3632 29.0036L30.0166 28.2276C28.9561 25.8524 26.5898 24.3174 23.9883 24.3174C21.3154 24.3174 18.9236 25.9114 17.8948 28.3782L17.6242 29.0268C17.5475 29.1682 17.5 29.3278 17.5 29.5001V33.5001H15.7462L13.2891 17.138C13.105 15.8992 12.0603 15.0001 10.8049 15.0001H7.80981C6.55444 15.0001 5.50977 15.8992 5.32593 17.1365L2.86884 33.5001H1.5C0.947754 33.5001 0.5 33.9478 0.5 34.5001V47.0001C0.5 47.5523 0.947754 48.0001 1.5 48.0001H33H37.5H42H46.5C47.0522 48.0001 47.5 47.5523 47.5 47.0001V9.87921C47.5 9.52911 47.3169 9.2044 47.0173 9.02325ZM23.9883 26.3174C25.595 26.3174 27.0728 27.157 27.9031 28.5001H20.0725C20.9016 27.1546 22.3711 26.3174 23.9883 26.3174ZM19.5 30.5001H28.5V33.5001H19.5V30.5001ZM7.3042 17.4319C7.34131 17.1817 7.55396 17.0001 7.80981 17.0001H10.8049C11.0608 17.0001 11.2734 17.1817 11.3108 17.4334L13.7236 33.5001H4.89136L7.3042 17.4319ZM2.5 35.5001H3.72998H14.885H18.5H29.5H32V46.0001H2.5L2.5 35.5001ZM37.5 46.0001H34V34.5001V22.993L41 19.3648V46.0001H37.5ZM45.5 46.0001H43V17.72C43 17.3709 42.8179 17.0469 42.5195 16.8655C42.2212 16.6849 41.8499 16.6722 41.5398 16.8321L38.5 18.4077V15.2098L45.5 11.5337V46.0001Z"/></svg>