<svg class="svgicon svgicon-saop" xmlns="http://www.w3.org/2000/svg" width="49" height="48" viewBox="0 0 49 48"><path d="M47.9623 46.6426L40.8851 28.1426C40.7372 27.7558 40.3656 27.5 39.951 27.5H33.2963L30.3534 20.1294C30.2015 19.749 29.8339 19.5 29.4247 19.5H27.9999V16.5C27.9999 15.9477 27.5521 15.5 26.9999 15.5H24.9999V11.9186L34.4891 6.59617C34.8173 6.41209 35.014 6.06004 34.9989 5.68406C34.9842 5.30808 34.7592 4.97263 34.4178 4.81541L24.4178 0.216287C24.1078 0.0741967 23.7474 0.099099 23.4603 0.283181C23.1732 0.466775 22.9999 0.784158 22.9999 1.12498V1.49998V11.333V15.5H20.9999C20.4476 15.5 19.9999 15.9477 19.9999 16.5V19.5H18.0072C17.597 19.5 17.2284 19.7505 17.0775 20.1313L11.5819 34H5.57702C5.1615 34 4.78943 34.2568 4.64196 34.6455L0.0931368 46.6455C-0.0235629 46.9526 0.0184298 47.2978 0.205442 47.5683C0.391965 47.8384 0.699582 48 1.0282 48H47.0282C47.3573 48 47.6654 47.8379 47.8519 47.5669C48.0384 47.2959 48.08 46.9502 47.9623 46.6426ZM24.9999 9.62547V2.68552L31.7982 5.81248L24.9999 9.62547ZM21.9999 17.5H25.9999V19.5H21.9999V17.5ZM2.47693 46L6.26745 36H12.2611C12.294 36 12.3242 35.9887 12.3564 35.9855C12.4037 35.9924 12.4507 36 12.4999 36H23.9999C24.5521 36 24.9999 35.5522 24.9999 35C24.9999 34.4477 24.5521 34 23.9999 34H13.7332L18.6864 21.5H20.9999H26.9999H28.7469L31.1426 27.5H23.9999C23.4476 27.5 22.9999 27.9477 22.9999 28.5C22.9999 29.0522 23.4476 29.5 23.9999 29.5H32.4999C32.5243 29.5 32.5471 29.4945 32.5711 29.4928C32.5873 29.4936 32.6021 29.5 32.6185 29.5H39.2631L45.5751 46H2.47693Z"/></svg>