<svg class="svgicon svgicon-saop" xmlns="http://www.w3.org/2000/svg" width="48" height="48" viewBox="0 0 48 48"><path d="M46.5 36H45V17.5747C45.1338 17.4984 45.2516 17.3952 45.3389 17.2647C45.4858 17.044 45.5396 16.7739 45.4873 16.5142L42.3589 0.865242C42.251 0.32325 41.7217 -0.0283123 41.1826 0.0805744L35.7896 1.1587C35.2885 1.25846 34.9555 1.71677 34.993 2.21323L26.7084 3.87614C26.0129 3.29215 25.1176 2.93897 24.1406 2.93897C22.5963 2.93897 21.2562 3.82029 20.5898 5.10496L5.51123 8.13136C4.96973 8.24024 4.61914 8.76661 4.72754 9.30811L5.31592 12.2456C5.34564 12.3937 5.41107 12.5291 5.5 12.6475V41H3.99561C2.06836 41 0.5 42.5684 0.5 44.4956V46.9224C0.5 47.5166 0.989258 48 1.59033 48H11.4097C12.0107 48 12.5 47.5166 12.5 46.9224V44.4956C12.5 42.5684 10.9316 41 9.00439 41H7.5V12.8278L21 10.1191V12H20.644C20.1377 12 19.7114 12.3784 19.6514 12.8809L18.9918 18.3714C18.9872 18.3992 18.984 18.4267 18.9818 18.4547L18.3758 23.4987C18.3633 23.558 18.3557 23.618 18.3541 23.6789L17.8178 28.1429C17.8044 28.2051 17.7968 28.2672 17.7954 28.3298L17.0182 34.7992C17.0079 34.8519 17.0007 34.9049 16.999 34.9588L16.7538 37H16C15.4478 37 15 37.4478 15 38V42.5V47C15 47.5523 15.4478 48 16 48H32C32.5522 48 33 47.5523 33 47V42.5V38C33 37.4478 32.5522 37 32 37H31.5275L31.2823 34.9584C31.2806 34.905 31.2734 34.8526 31.2633 34.8004L30.4858 28.3278C30.4843 28.2665 30.4769 28.2056 30.4638 28.1447L29.9272 23.6771C29.9255 23.6188 29.9181 23.5614 29.9065 23.5045L29.2994 18.4506C29.2973 18.4252 29.2944 18.4002 29.2903 18.3749L28.6304 12.8809C28.5703 12.3784 28.144 12 27.6377 12H27V9.73054C27.2753 9.44865 27.5082 9.12617 27.6913 8.77332L35.9607 7.11686L37.0771 12.7026C37.1206 12.9209 37.2358 13.1187 37.4043 13.2642L42.5728 17.7232C42.6968 17.83 42.8443 17.9004 43 17.9366V36H41.5C40.9478 36 40.5 36.4478 40.5 37V47C40.5 47.5523 40.9478 48 41.5 48H46.5C47.0522 48 47.5 47.5523 47.5 47V37C47.5 36.4478 47.0522 36 46.5 36ZM10.5 44.4956V46H2.5V44.4956C2.5 43.6709 3.1709 43 3.99561 43H9.00439C9.8291 43 10.5 43.6709 10.5 44.4956ZM7.08057 10.8721L6.88477 9.89552L20.1555 7.23206C20.1803 7.57139 20.2465 7.89872 20.351 8.20948L7.08057 10.8721ZM24.1406 4.93897C25.2437 4.93897 26.1406 5.83595 26.1406 6.93897C26.1406 8.042 25.2437 8.93897 24.1406 8.93897C23.0376 8.93897 22.1406 8.042 22.1406 6.93897C22.1406 5.83595 23.0376 4.93897 24.1406 4.93897ZM25 10.8436V12H23V10.7711C23.3618 10.879 23.7442 10.939 24.1406 10.939C24.4359 10.939 24.7228 10.9045 25 10.8436ZM20.7912 20.1599L22.1402 20.9387L20.5901 21.8336L20.7912 20.1599ZM19.6112 29.9822L22.1404 31.4422L19.2343 33.1197L19.6112 29.9822ZM31 46H17V43.5H31V46ZM30.6406 39H31V41.5H17V39H17.6406H30.6406ZM29.3451 35.601L29.5132 37H18.7681L18.9362 35.601L24.1406 32.5968L29.3451 35.601ZM28.6702 29.9822L29.0471 33.1197L26.1408 31.4422L28.6702 29.9822ZM28.4109 27.8228L24.1406 30.2876L19.8706 27.8229L20.292 24.3155L24.1406 22.0936L27.9896 24.3157L28.4109 27.8228ZM27.6915 21.8338L26.141 20.9387L27.4904 20.1597L27.6915 21.8338ZM27.2309 17.9998L24.1406 19.7839L21.0507 18L21.5312 14H22H26H26.7505L27.2309 17.9998ZM28.1258 6.64671C28.1011 6.30793 28.0352 5.981 27.9311 5.67063L35.373 4.17689L35.5687 5.1558L28.1258 6.64671ZM38.9707 11.9741L37.1621 2.92384L40.5938 2.2378L43.2842 15.6953L38.9707 11.9741ZM45.5 46H42.5V38H45.5V46Z"/></svg>