<svg class="svgicon svgicon-saop" xmlns="http://www.w3.org/2000/svg" width="48" height="46" viewBox="0 0 48 46"><path d="M23.1196 11.194C23.5083 11.0778 23.8027 10.8805 24.0024 10.6027C24.2021 10.3248 24.3018 10.0089 24.3018 9.65515C24.3018 9.34192 24.2285 9.0575 24.082 8.80237C23.9355 8.54724 23.7144 8.34631 23.4189 8.19983C23.123 8.0531 22.7656 7.97986 22.3462 7.97986H20.1709V13.3011H21.4668V11.2924H21.7778L22.8843 13.3011H24.3477L23.1196 11.194ZM22.8047 10.2008C22.686 10.3173 22.5078 10.3751 22.2705 10.3751H21.4668V9.05627H22.2705C22.5078 9.05627 22.686 9.11438 22.8047 9.23059C22.9233 9.3468 22.9829 9.50623 22.9829 9.70813C22.9829 9.92029 22.9233 10.0846 22.8047 10.2008Z"/><path d="M25.9541 12.7098C26.0806 12.902 26.2559 13.0585 26.481 13.1798C26.7056 13.3011 26.9648 13.3617 27.2578 13.3617C27.6064 13.3617 27.9224 13.2721 28.2056 13.0927C28.4883 12.9135 28.7119 12.6581 28.8765 12.327C29.0405 11.9962 29.1226 11.6134 29.1226 11.1786C29.1226 10.7443 29.0405 10.3627 28.8765 10.0341C28.7119 9.70569 28.4883 9.453 28.2056 9.276C27.9224 9.09924 27.6064 9.01086 27.2578 9.01086C26.9595 9.01086 26.6997 9.07141 26.4771 9.19275C26.2549 9.31409 26.0806 9.47327 25.9541 9.67029V9.07141H24.6582V15.3175H25.9541V12.7098ZM26.2158 10.4208C26.395 10.2338 26.6138 10.1403 26.8716 10.1403C27.1343 10.1403 27.355 10.2325 27.5347 10.4169C27.7139 10.6014 27.8037 10.8553 27.8037 11.1786C27.8037 11.5021 27.7129 11.7587 27.5308 11.9481C27.3491 12.1376 27.1289 12.2323 26.8716 12.2323C26.6138 12.2323 26.395 12.1388 26.2158 11.9518C26.0361 11.765 25.9468 11.5096 25.9468 11.1864C25.9468 10.8629 26.0361 10.6078 26.2158 10.4208Z"/><path d="M47.3491 18.8424C46.8281 16.4369 45.3598 16.1322 44.9204 16.0963C43.8701 16.0116 42.8959 16.702 42.4433 17.8636C42.2314 18.4147 42.1503 19.0172 42.2006 19.6461L42.2182 19.9227C42.2172 20.0641 42.2158 20.4393 42.267 22.1989C42.3291 24.2018 42.0727 25.3837 41.7753 26.078C41.7397 26.0638 41.7041 26.0507 41.6674 26.0385C41.2724 25.9061 40.8579 25.9061 40.4345 26.0399C40.4291 26.0414 40.4233 26.0431 40.4179 26.0448C40.4033 26.049 40.3886 26.0533 40.374 26.0582C40.3222 26.0756 40.2719 26.0946 40.2241 26.1158C39.7294 26.3163 39.2485 26.6705 38.6425 27.1166C37.475 27.9764 35.8754 29.1537 33.0834 30.0927C29.1624 31.4086 26.4902 32.9295 24.9999 34.6924V31.3127C25.2311 31.3679 25.475 31.4039 25.7392 31.4039C25.7978 31.4039 25.8574 31.4025 25.9179 31.3995C28.6655 31.2706 33.2578 27.8719 33.729 23.9281C33.7392 23.8417 33.7387 23.7543 33.7265 23.6681C33.6533 23.1566 33.1704 22.7858 32.6625 22.8109C32.595 22.8143 27.7539 23.0891 24.9999 25.2321V20.8599C30.0462 20.3564 34 16.0869 34 10.9105C34 5.39661 29.5141 0.910522 24 0.910522C18.4858 0.910522 14 5.39661 14 10.9105C14 16.0869 17.9537 20.3564 23 20.8599V24.4838C20.4937 21.997 15.8717 20.7745 15.3471 20.7399C15.0458 20.7181 14.7495 20.8383 14.5439 21.0619C14.3393 21.2855 14.2465 21.59 14.2929 21.8898C14.6308 24.0878 15.8447 26.1984 17.7104 27.8329C19.2597 29.1903 21.0229 30.0082 22.3745 30.0082C22.4453 30.0082 22.5151 30.006 22.5839 30.0013C22.729 29.9917 22.8675 29.9705 23 29.9403V34.6921C21.5096 32.929 18.8375 31.4085 14.9174 30.0929C12.124 29.1537 10.5249 27.976 9.35688 27.1161C8.75044 26.6698 8.26948 26.3156 7.77485 26.1151C7.72944 26.0951 7.68159 26.077 7.63179 26.0602C7.61518 26.0546 7.59809 26.0492 7.58149 26.0446C7.57515 26.0426 7.56831 26.0406 7.56196 26.0387C7.14106 25.9059 6.72798 25.9059 6.33052 26.0392C6.29487 26.0511 6.25923 26.0643 6.22456 26.078C5.92768 25.3851 5.67085 24.2023 5.73286 22.1971C5.78462 20.4332 5.78267 20.0609 5.78169 19.8871L5.79829 19.6544C5.84956 19.0179 5.76851 18.4159 5.55513 17.8595C5.10395 16.7018 4.12934 16.0114 3.07905 16.0963C2.64009 16.1324 1.17183 16.4371 0.650829 18.8424C-0.660694 23.4386 0.231884 30.7921 1.50142 32.4723C3.38325 34.9503 10.8818 40.2255 13.4497 41.4989C14.875 42.2057 15.7446 43.694 16.1357 44.5182C16.3066 44.8785 16.6655 45.0895 17.0395 45.0895C17.1835 45.0895 17.3295 45.0582 17.4677 44.9926C17.9667 44.7557 18.1791 44.1593 17.9423 43.6603C17.3291 42.3678 16.2055 40.6329 14.3383 39.7069C11.7773 38.4371 4.66694 33.3336 3.09565 31.2648C2.41645 30.3656 1.31929 23.7372 2.58247 19.3624C2.58931 19.339 2.59517 19.3153 2.60005 19.2914C2.78608 18.4078 3.11372 18.1002 3.24311 18.0895C3.31733 18.0939 3.54927 18.2201 3.68989 18.5804C3.79194 18.8466 3.83149 19.1625 3.80415 19.5021L3.79536 19.6261C3.78071 19.8268 3.78169 19.8268 3.78218 19.9308C3.78267 20.049 3.78413 20.4088 3.73384 22.1371C3.65507 24.6834 4.0193 26.5104 4.83891 27.6975C4.53123 29.0857 5.47172 30.8651 7.22261 32.0919C8.07075 32.6862 9.04927 33.2423 9.91255 33.7328C10.7431 34.205 11.8652 34.8427 12.1528 35.1627C12.2587 35.6046 12.6562 35.9283 13.1245 35.9283C13.1372 35.9283 13.1499 35.9281 13.1625 35.9276C13.7143 35.9069 14.145 35.4427 14.1245 34.8907C14.0834 33.8029 12.8852 33.1222 10.9008 31.994C10.0356 31.5023 9.14106 30.994 8.37007 30.4537C7.10795 29.5696 6.75328 28.6129 6.77769 28.2115C6.85261 28.1324 6.91899 28.0456 6.96333 27.9471C6.97261 27.9501 6.98237 27.953 6.99214 27.9559C6.99995 27.9591 7.00776 27.9623 7.01558 27.9655C7.27632 28.068 7.69087 28.3734 8.17085 28.7267C9.37349 29.6119 11.1904 30.9496 14.2802 31.9886C19.3388 33.6864 22.0659 35.6627 22.3862 37.8644C22.5546 39.0109 22.7666 40.1609 23.0157 41.2842C23.0161 41.2864 23.0166 41.2885 23.017 41.2907C23.0195 41.3019 23.0214 41.3134 23.0239 41.3246C23.0287 41.3463 23.0382 41.3656 23.0444 41.3867C23.055 41.4231 23.0652 41.4594 23.0799 41.4943C23.0926 41.5246 23.1086 41.5524 23.1239 41.581C23.1389 41.6087 23.1531 41.6365 23.1706 41.6627C23.19 41.6917 23.2121 41.7179 23.2343 41.7445C23.2532 41.7673 23.2714 41.7903 23.2924 41.8114C23.3167 41.8358 23.3432 41.8571 23.3698 41.8789C23.3932 41.898 23.4159 41.9175 23.4411 41.9346C23.4703 41.9543 23.5013 41.9704 23.5324 41.9869C23.5582 42.0007 23.5831 42.0151 23.6103 42.0266C23.6469 42.0421 23.6851 42.053 23.7234 42.0641C23.7434 42.0699 23.7616 42.079 23.7822 42.0836C23.7876 42.0848 23.7929 42.0844 23.7984 42.0856C23.8354 42.0932 23.8734 42.0958 23.9115 42.0991C23.941 42.1017 23.9704 42.1063 23.9996 42.1064C24.0278 42.1063 24.0564 42.1019 24.085 42.0994C24.1238 42.096 24.1625 42.0934 24.2002 42.0856C24.2059 42.0845 24.2115 42.0849 24.2172 42.0836C24.2389 42.0788 24.258 42.0693 24.2789 42.0632C24.3155 42.0525 24.3518 42.0423 24.3868 42.0276C24.4167 42.015 24.4442 41.9993 24.4724 41.9841C24.5007 41.9688 24.529 41.9543 24.5557 41.9364C24.5835 41.9178 24.6087 41.8965 24.6343 41.8753C24.6585 41.8553 24.6828 41.8358 24.7052 41.8135C24.7278 41.7909 24.7475 41.7664 24.7678 41.7418C24.7888 41.7165 24.8098 41.6917 24.8283 41.6642C24.8463 41.6374 24.861 41.6089 24.8763 41.5804C24.8915 41.5522 24.9073 41.5248 24.9198 41.495C24.9344 41.4605 24.9444 41.4246 24.9551 41.3886C24.9614 41.3671 24.9711 41.3475 24.976 41.3253C25.1489 40.5499 25.3999 39.3204 25.6142 37.8629C25.9345 35.6627 28.6616 33.6864 33.7207 31.9884C36.8095 30.9498 38.6259 29.6122 39.8286 28.7272C40.3085 28.3737 40.7236 28.0682 40.9848 27.9655C40.9941 27.9618 41.0034 27.9581 41.0122 27.9542C41.0205 27.9515 41.0288 27.9491 41.0356 27.9464L41.0351 27.9442L41.0312 27.9327L41.1216 27.6638C41.1204 27.702 41.1235 27.7402 41.1268 27.7787L41.0756 27.9613C41.1121 28.0422 41.1617 28.1144 41.2168 28.1817C41.2643 28.5609 40.9287 29.5439 39.6298 30.454C38.8583 30.9943 37.9638 31.5028 37.0986 31.9945C35.1142 33.1224 33.9165 33.8031 33.8754 34.8907C33.8549 35.4427 34.2856 35.9069 34.8374 35.9276C34.85 35.9281 34.8627 35.9283 34.8754 35.9283C35.3432 35.9283 35.7412 35.6046 35.8471 35.1627C36.1347 34.8429 37.2563 34.2052 38.0869 33.7333C38.9501 33.2426 39.9291 32.6864 40.7773 32.0919C42.5282 30.8651 43.4687 29.0857 43.161 27.6974C43.9812 26.5092 44.3452 24.6827 44.2661 22.1388C44.2158 20.4144 44.2177 20.0509 44.2182 19.9313C44.2187 19.8265 44.2192 19.8265 44.205 19.6307L44.1948 19.4938C44.1684 19.1625 44.208 18.847 44.3085 18.5853C44.4511 18.2198 44.686 18.0946 44.7568 18.0895C44.8862 18.1002 45.2138 18.4078 45.3999 19.2914C45.4047 19.3153 45.4106 19.339 45.4174 19.3624C46.6811 23.7374 45.5839 30.3656 44.9057 31.2628C43.333 33.3334 36.2231 38.4369 33.6621 39.7069C31.7939 40.6332 30.6708 42.3683 30.0581 43.6608C29.8212 44.1598 30.0336 44.7562 30.5327 44.9928C30.6713 45.0585 30.8168 45.0895 30.9609 45.0895C31.3349 45.0895 31.6938 44.8783 31.8647 44.5177C32.2558 43.6937 33.1245 42.2059 34.5507 41.4989C37.1186 40.2252 44.6171 34.9498 46.5 32.4706C47.768 30.7926 48.6616 23.4391 47.3491 18.8424ZM31.3813 24.9625C30.351 27.2955 27.5043 29.3229 25.8242 29.4017C25.2387 29.431 25.2055 29.2255 25.1669 29.0468C25.142 28.9308 25.1323 28.8055 25.1376 28.6747C25.2348 26.3639 29.0732 25.3239 31.3813 24.9625ZM22.5932 27.9845C22.4169 28.0463 21.8271 28.026 20.9184 27.5941C19.3603 26.8536 17.5786 25.236 16.7172 23.1642C18.975 23.9698 22.6425 25.7982 22.5991 27.9122C22.5986 27.9447 22.5961 27.9684 22.5932 27.9845ZM16 10.9105C16 6.49939 19.5888 2.91052 24 2.91052C28.4111 2.91052 31.9999 6.49939 31.9999 10.9105C31.9999 15.3217 28.4111 18.9105 24 18.9105C19.5888 18.9105 16 15.3217 16 10.9105ZM41.3057 27.1155L41.3491 26.9865L41.3168 27.1015C41.3133 27.1063 41.3092 27.1107 41.3057 27.1155Z"/></svg>