<svg class="svgicon svgicon-saop" xmlns="http://www.w3.org/2000/svg" width="48" height="48" viewBox="0 0 48 48"><path d="M35 32.5C34.4477 32.5 34 32.9477 34 33.5V43C34 43.5523 34.4477 44 35 44H41.5C42.0523 44 42.5 43.5523 42.5 43V33.5C42.5 32.9477 42.0523 32.5 41.5 32.5H35ZM40.5 42H36V34.5H40.5V42Z"/><path d="M21 27.5C20.4477 27.5 20 27.9477 20 28.5V43C20 43.5523 20.4477 44 21 44H27.5C28.0523 44 28.5 43.5523 28.5 43V28.5C28.5 27.9477 28.0523 27.5 27.5 27.5H21ZM26.5 42H22V29.5H26.5V42Z"/><path d="M6.50024 21C5.94794 21 5.50024 21.4477 5.50024 22V43C5.50024 43.5523 5.94794 44 6.50024 44H13.0002C13.5525 44 14.0002 43.5523 14.0002 43V22C14.0002 21.4477 13.5525 21 13.0002 21H6.50024ZM12.0002 42H7.50024V23H12.0002V42Z"/><path d="M22.1068 21.0149C22.4057 21.262 22.8202 21.3135 23.1708 21.1478C23.5214 20.982 23.7445 20.6287 23.7436 20.241L23.7289 14.7647L37.411 27.1925L34.4999 27.1932C33.9472 27.1934 33.4999 27.6412 33.4999 28.1934C33.4999 28.7457 33.9477 29.1932 34.4999 29.1932L39.9859 29.1919C39.9904 29.192 39.9949 29.1932 39.9994 29.1932C40.1391 29.1932 40.2723 29.1641 40.3931 29.1124C40.4128 29.104 40.4306 29.0913 40.4498 29.0816C40.4904 29.061 40.5308 29.0406 40.568 29.0149C40.5886 29.0006 40.6069 28.9825 40.6266 28.9665C40.6601 28.9393 40.6932 28.9121 40.7229 28.8809C40.7283 28.8752 40.7348 28.8714 40.7401 28.8655C40.7555 28.8486 40.766 28.8293 40.78 28.8116C40.8021 28.7838 40.8241 28.7564 40.8431 28.7263C40.8604 28.6989 40.8744 28.6706 40.8888 28.6421C40.9037 28.6128 40.9185 28.5837 40.9304 28.5528C40.9425 28.5216 40.9511 28.4899 40.9599 28.4579C40.9683 28.4273 40.977 28.3971 40.9825 28.3655C40.9886 28.3303 40.9908 28.2952 40.9932 28.2597C40.9947 28.2372 40.9999 28.2158 40.9999 28.1929V28.1917L40.9989 22.6929C40.9989 22.1407 40.5512 21.6932 39.9989 21.6932C39.4467 21.6932 38.9989 22.1412 38.9989 22.6934L38.9995 25.9335L23.3954 11.7598C23.102 11.4935 22.6791 11.4256 22.3173 11.5862C21.955 11.7471 21.7221 12.1065 21.723 12.5027L21.7377 18.117L6.10342 5.21148C5.67715 4.86016 5.04678 4.92022 4.69571 5.34624C4.34414 5.77202 4.4042 6.40239 4.82998 6.75396L22.1068 21.0149Z"/><path d="M46.5 46H1C0.447754 46 0 46.4478 0 47C0 47.5522 0.447754 48 1 48H46.5C47.0522 48 47.5 47.5522 47.5 47C47.5 46.4478 47.0522 46 46.5 46Z"/><path d="M39 18C43.9624 18 48 13.9626 48 9C48 4.03735 43.9624 0 39 0C34.0376 0 30 4.03735 30 9C30 13.9626 34.0376 18 39 18ZM39 2C42.8599 2 46 5.14014 46 9C46 12.8599 42.8599 16 39 16C35.1401 16 32 12.8599 32 9C32 5.14014 35.1401 2 39 2Z"/><path d="M35.5 8.5H36.0434L37.2122 11H38.2288L37.036 8.77002C37.4119 8.65982 37.6955 8.45868 37.8859 8.16721C38.0763 7.87573 38.1716 7.54868 38.1716 7.1861C38.1716 6.87094 38.1036 6.58624 37.968 6.33121C37.8322 6.07645 37.6286 5.87415 37.3574 5.72455C37.0859 5.57495 36.7572 5.5 36.3716 5.5H34.5V11H35.5V8.5ZM35.5 6.5H36.3563C36.6344 6.5 36.8416 6.56464 36.9783 6.69366C37.1147 6.82321 37.1832 7.00476 37.1832 7.23886C37.1832 7.47791 37.1147 7.66467 36.9783 7.79865C36.8416 7.93289 36.6344 8 36.3563 8H35.5V6.5Z"/><path d="M40 9.98434C40.1383 10.1702 40.3179 10.3241 40.5395 10.4462C40.7607 10.5684 41.0166 10.6296 41.3072 10.6296C41.6453 10.6296 41.9514 10.5416 42.225 10.3657C42.4989 10.1895 42.7156 9.94162 42.8751 9.62119C43.0346 9.30106 43.1144 8.93292 43.1144 8.51709C43.1144 8.10153 43.0346 7.73618 42.8751 7.42072C42.7156 7.10526 42.4989 6.86206 42.225 6.69083C41.9514 6.51959 41.6453 6.43408 41.3072 6.43408C41.0166 6.43408 40.7583 6.49643 40.5322 6.62106C40.3061 6.74597 40.1286 6.90121 40 7.08679V6.5H39V12.5H40V9.98434ZM40.1073 7.89294C40.2108 7.70609 40.3475 7.5629 40.5169 7.46445C40.6864 7.36575 40.8672 7.31641 41.0595 7.31641C41.257 7.31641 41.4401 7.36462 41.6099 7.46048C41.7793 7.55661 41.9157 7.69696 42.0195 7.88184C42.1231 8.06641 42.175 8.28522 42.175 8.53796C42.175 8.79614 42.1231 9.01868 42.0195 9.20581C41.9157 9.39325 41.7793 9.53732 41.6099 9.63861C41.4401 9.73959 41.257 9.79037 41.0595 9.79037C40.8672 9.79037 40.6864 9.741 40.5169 9.6423C40.3475 9.54361 40.2108 9.40067 40.1073 9.21353C40.0034 9.02637 39.9515 8.80643 39.9515 8.55338C39.9515 8.30032 40.0034 8.08038 40.1073 7.89294Z"/></svg>