<svg class="svgicon svgicon-saop" xmlns="http://www.w3.org/2000/svg" width="44" height="48" viewBox="0 0 44 48"><path d="M7.99988 38.5C10.4813 38.5 12.4999 36.4814 12.4999 34C12.4999 31.5186 10.4813 29.5 7.99988 29.5C5.51843 29.5 3.49988 31.5186 3.49988 34C3.49988 36.4814 5.51843 38.5 7.99988 38.5ZM7.99988 31.5C9.3783 31.5 10.4999 32.6216 10.4999 34C10.4999 35.3784 9.3783 36.5 7.99988 36.5C6.62146 36.5 5.49988 35.3784 5.49988 34C5.49988 32.6216 6.62146 31.5 7.99988 31.5Z"/><path d="M17.4999 34C17.4999 36.4814 19.5184 38.5 21.9999 38.5C24.4813 38.5 26.4999 36.4814 26.4999 34C26.4999 31.5186 24.4813 29.5 21.9999 29.5C19.5184 29.5 17.4999 31.5186 17.4999 34ZM24.4999 34C24.4999 35.3784 23.3783 36.5 21.9999 36.5C20.6215 36.5 19.4999 35.3784 19.4999 34C19.4999 32.6216 20.6215 31.5 21.9999 31.5C23.3783 31.5 24.4999 32.6216 24.4999 34Z"/><path d="M21.9999 12C25.3085 12 27.9999 9.30859 27.9999 6C27.9999 2.69141 25.3085 0 21.9999 0C18.6913 0 15.9999 2.69141 15.9999 6C15.9999 9.30859 18.6913 12 21.9999 12ZM21.9999 2C24.2054 2 25.9999 3.79443 25.9999 6C25.9999 8.20557 24.2054 10 21.9999 10C19.7943 10 17.9999 8.20557 17.9999 6C17.9999 3.79443 19.7943 2 21.9999 2Z"/><path d="M33.016 21.022C33.016 16.4014 30.6342 13.563 26.3094 13.0288L25.89 12.9771L25.5609 13.2417C24.7426 13.8989 23.4711 13.9521 22.016 13.9521C20.5604 13.9521 19.2889 13.8989 18.4706 13.2417L18.1415 12.9771L17.722 13.0288C13.3978 13.5625 11.016 16.4014 11.016 21.022V25.5H33.016V21.022ZM22.0096 17.8896L22.8212 19.6611L22.0033 20.5337L21.1967 19.6641L22.0096 17.8896ZM31.016 23.5H13.016V21.022C13.016 17.5298 14.5135 15.5786 17.5907 15.0684C18.549 15.68 19.6754 15.8651 20.7105 15.9231L19.1005 19.4385C18.932 19.8062 19.0018 20.2388 19.2767 20.5352L21.267 22.6802C21.4554 22.8833 21.7201 22.9995 21.9974 23H21.9999C22.2762 23 22.5404 22.8857 22.7299 22.6836L24.7396 20.5386C25.017 20.2427 25.0878 19.8076 24.9188 19.4385L23.3094 15.9238C24.3476 15.8665 25.4789 15.6823 26.4408 15.0684C29.5184 15.5786 31.016 17.5298 31.016 21.022V23.5Z"/><path d="M31.4999 34C31.4999 36.4814 33.5184 38.5 35.9999 38.5C38.4813 38.5 40.4999 36.4814 40.4999 34C40.4999 31.5186 38.4813 29.5 35.9999 29.5C33.5184 29.5 31.4999 31.5186 31.4999 34ZM35.9999 31.5C37.3783 31.5 38.4999 32.6216 38.4999 34C38.4999 35.3784 37.3783 36.5 35.9999 36.5C34.6215 36.5 33.4999 35.3784 33.4999 34C33.4999 32.6216 34.6215 31.5 35.9999 31.5Z"/><path d="M42.4052 40.8281L42.3597 40.7822C42.3314 40.7534 42.3036 40.7251 42.2743 40.6982C41.389 39.8213 40.2162 39.2397 38.9691 39.0601L38.5736 39.0029L38.2474 39.2344C36.9125 40.1821 35.0204 40.1743 33.7064 39.231L33.3846 39L32.9921 39.0522C31.5995 39.2368 30.3314 39.8804 29.4266 40.8594C29.2489 41.0491 29.0949 41.2721 28.9519 41.5062C28.7862 41.2699 28.6074 41.0411 28.4052 40.8281L28.3597 40.7822C28.3314 40.7534 28.3036 40.7251 28.2743 40.6982C27.389 39.8213 26.2162 39.2397 24.9691 39.0601L24.5736 39.0029L24.2474 39.2344C22.913 40.1821 21.0204 40.1743 19.7064 39.231L19.3846 39L18.9921 39.0522C17.5995 39.2368 16.3314 39.8804 15.4266 40.8594C15.2489 41.0491 15.0949 41.2721 14.9519 41.5062C14.7862 41.2699 14.6074 41.0411 14.4052 40.8281L14.3597 40.7822C14.3314 40.7534 14.3036 40.7251 14.2743 40.6982C13.389 39.8213 12.2162 39.2397 10.9691 39.0601L10.5736 39.0029L10.2474 39.2344C8.91296 40.1821 7.02039 40.1743 5.70642 39.231L5.38464 39L4.99207 39.0522C3.59949 39.2368 2.33142 39.8804 1.42664 40.8594C0.442749 41.9097 -0.00012207 43.7954 -0.00012207 44.7983V48H43.9999V44.7983C43.9999 43.3213 43.4335 41.9111 42.4052 40.8281ZM13.9999 46H1.99988V44.7983C1.99988 44.1357 2.34509 42.8042 2.89099 42.2217C3.40857 41.6616 4.11316 41.2695 4.90271 41.0967C5.8241 41.6597 6.87927 41.9556 7.97986 41.9556C9.06775 41.9556 10.1161 41.6636 11.0365 41.1074C11.7333 41.2744 12.3812 41.6343 12.912 42.1626L12.955 42.2051C13.6288 42.915 13.9999 43.8359 13.9999 44.7983V46ZM27.9999 46H15.9999V44.7983C15.9999 44.1357 16.3451 42.8042 16.891 42.2217C17.4086 41.6616 18.1132 41.2695 18.9027 41.0967C19.8241 41.6597 20.8793 41.9556 21.9799 41.9556C23.0677 41.9556 24.1161 41.6636 25.0365 41.1074C25.7333 41.2744 26.3812 41.6343 26.912 42.1626L26.955 42.2051C27.6288 42.915 27.9999 43.8359 27.9999 44.7983V46ZM41.9999 46H29.9999V44.7983C29.9999 44.1357 30.3451 42.8042 30.891 42.2217C31.4086 41.6616 32.1132 41.2695 32.9027 41.0967C33.8241 41.6597 34.8793 41.9556 35.9799 41.9556C37.0677 41.9556 38.1161 41.6636 39.0365 41.1074C39.7333 41.2744 40.3812 41.6343 40.912 42.1626L40.955 42.2051C41.6288 42.915 41.9999 43.8359 41.9999 44.7983V46Z"/></svg>