<svg class="svgicon svgicon-saop" xmlns="http://www.w3.org/2000/svg" width="48" height="48" viewBox="0 0 48 48"><path d="M47.4707 27.1177L45 25.8V15.0552C45 14.7017 44.8132 14.3745 44.509 14.1943C44.2043 14.0142 43.8279 14.0078 43.5181 14.1792L35 18.8646V5.5C35 4.94775 34.5522 4.5 34 4.5H30V2.5C30 1.94775 29.5522 1.5 29 1.5C28.4478 1.5 28 1.94775 28 2.5V4.5H25V1C25 0.447754 24.5522 0 24 0C23.4478 0 23 0.447754 23 1V4.5H20V2.5C20 1.94775 19.5522 1.5 19 1.5C18.4478 1.5 18 1.94775 18 2.5V4.5H14C13.4478 4.5 13 4.94775 13 5.5V18.8646L4.48193 14.1792C4.17236 14.0078 3.7959 14.0142 3.49097 14.1943C3.18677 14.3745 3 14.7017 3 15.0552V25.8L0.529297 27.1177C0.203613 27.2915 0 27.6309 0 28V47C0 47.5522 0.447754 48 1 48H4H8.5H14H19.5H28.5H34H39.5H44H47C47.5522 48 48 47.5522 48 47V28C48 27.6309 47.7964 27.2915 47.4707 27.1177ZM5 16.7466L13 21.147V46H9.5V24C9.5 23.6489 9.31567 23.3232 9.0144 23.1426C8.71338 22.9619 8.33936 22.9526 8.0293 23.1177L5 24.7333V16.7466ZM4 46H2V28.6001L7.5 25.6665V46H4ZM15 20.5557V6.5H33V20.5557V46H29.5V31C29.5 30.4478 29.0522 30 28.5 30H19.5C18.9478 30 18.5 30.4478 18.5 31V46H15V20.5557ZM20.5 46V32H27.5V46H20.5ZM35 21.147L43 16.7466V24.7333L39.9707 23.1177C39.6609 22.9526 39.2869 22.9619 38.9856 23.1426C38.6843 23.3232 38.5 23.6489 38.5 24V46H35V21.147ZM46 46H44H40.5V25.6665L46 28.6001V46Z"/><path d="M26.5 16.0552H28.5C29.0522 16.0552 29.5 15.6074 29.5 15.0552C29.5 14.5029 29.0522 14.0552 28.5 14.0552H26.5C25.9478 14.0552 25.5 14.5029 25.5 15.0552C25.5 15.6074 25.9478 16.0552 26.5 16.0552Z"/><path d="M26.5 11.3452H28.5C29.0522 11.3452 29.5 10.8975 29.5 10.3452C29.5 9.79297 29.0522 9.34521 28.5 9.34521H26.5C25.9478 9.34521 25.5 9.79297 25.5 10.3452C25.5 10.8975 25.9478 11.3452 26.5 11.3452Z"/><path d="M26.5 20.7656H28.5C29.0522 20.7656 29.5 20.3179 29.5 19.7656C29.5 19.2134 29.0522 18.7656 28.5 18.7656H26.5C25.9478 18.7656 25.5 19.2134 25.5 19.7656C25.5 20.3179 25.9478 20.7656 26.5 20.7656Z"/><path d="M26.5 25.4756H28.5C29.0522 25.4756 29.5 25.0278 29.5 24.4756C29.5 23.9233 29.0522 23.4756 28.5 23.4756H26.5C25.9478 23.4756 25.5 23.9233 25.5 24.4756C25.5 25.0278 25.9478 25.4756 26.5 25.4756Z"/><path d="M19.5 16.0552H21.5C22.0522 16.0552 22.5 15.6074 22.5 15.0552C22.5 14.5029 22.0522 14.0552 21.5 14.0552H19.5C18.9478 14.0552 18.5 14.5029 18.5 15.0552C18.5 15.6074 18.9478 16.0552 19.5 16.0552Z"/><path d="M19.5 11.3452H21.5C22.0522 11.3452 22.5 10.8975 22.5 10.3452C22.5 9.79297 22.0522 9.34521 21.5 9.34521H19.5C18.9478 9.34521 18.5 9.79297 18.5 10.3452C18.5 10.8975 18.9478 11.3452 19.5 11.3452Z"/><path d="M19.5 20.7656H21.5C22.0522 20.7656 22.5 20.3179 22.5 19.7656C22.5 19.2134 22.0522 18.7656 21.5 18.7656H19.5C18.9478 18.7656 18.5 19.2134 18.5 19.7656C18.5 20.3179 18.9478 20.7656 19.5 20.7656Z"/><path d="M19.5 25.4756H21.5C22.0522 25.4756 22.5 25.0278 22.5 24.4756C22.5 23.9233 22.0522 23.4756 21.5 23.4756H19.5C18.9478 23.4756 18.5 23.9233 18.5 24.4756C18.5 25.0278 18.9478 25.4756 19.5 25.4756Z"/></svg>