<svg class="svgicon svgicon-saop" xmlns="http://www.w3.org/2000/svg" width="42" height="50" viewBox="0 0 42 50"><path d="M41.3768 32.689C41.4335 32.396 41.3558 32.0933 41.1659 31.8633C40.976 31.6333 40.6932 31.5 40.3949 31.5H35.9999V30.5C35.9999 30.4228 35.9892 30.3484 35.9727 30.2763C36.7065 29.662 37.8271 28.4509 37.8358 26.7781C37.8246 25.2769 37.2816 23.906 35.684 21.3459C35.5013 21.0532 35.181 20.8752 34.8358 20.8752C34.4906 20.8752 34.1703 21.053 33.9877 21.3457C32.39 23.905 31.847 25.2759 31.8358 26.7908C31.8459 28.7093 33.3305 30.0188 33.9999 30.5126V31.5H22.0018V26.1631L23.8828 24.2821C24.2244 24.4471 24.6137 24.5354 25.0345 24.5354C25.347 24.5354 25.6762 24.488 26.0136 24.3911C28.2201 23.7573 31.4945 20.6868 31.4706 14.8245C31.4691 14.5066 31.3168 14.2083 31.0599 14.0208C30.8031 13.8333 30.4725 13.7798 30.1693 13.875C29.5424 14.0732 23.9384 17.2839 22.7338 20.5374C22.4515 21.3005 22.4172 22.0399 22.6215 22.7153L22.0018 23.335V17.7515C23.2302 16.9441 26.1826 14.6545 26.2015 11.2856C26.1796 8.5918 25.0751 6.08472 21.8241 1.35059C21.6376 1.07886 21.3295 0.916504 20.9999 0.916504C20.6703 0.916504 20.3622 1.07886 20.1757 1.35059C16.9247 6.08569 15.8202 8.59277 15.7987 11.2996C15.8173 14.6604 18.7757 16.9493 20.0018 17.7543V27.3652L19.5228 26.8862C20.3174 21.5452 17.1744 19.8804 13.8402 18.1292C13.308 17.8494 12.7553 17.5593 12.1932 17.2429C11.9354 17.0977 11.6259 17.0735 11.348 17.179C11.0712 17.2839 10.8544 17.5066 10.7577 17.7869C9.77674 20.6187 10.2904 23.7834 12.0663 25.8499C13.3514 27.3457 15.1151 28.1292 17.1346 28.1292C17.3861 28.1292 17.6417 28.1168 17.9009 28.0924L20.0018 30.1934V31.5H7.57849V30.3866C8.29959 29.8161 9.56922 28.5608 9.57849 26.7781C9.56726 25.2759 9.0243 23.905 7.42664 21.3457C7.24402 21.053 6.92371 20.8752 6.57849 20.8752C6.23328 20.8752 5.91297 21.053 5.73035 21.3457C4.13269 23.905 3.58973 25.2759 3.57849 26.7908C3.58777 28.5641 4.85739 29.817 5.57849 30.3869V31.5H1.60486C1.30652 31.5 1.02381 31.6333 0.833866 31.8633C0.643924 32.0933 0.566287 32.396 0.622928 32.689C2.49842 42.4299 11.0682 49.5 20.9999 49.5C28.5377 49.5 35.2878 45.4251 38.9254 39.2032C38.9357 39.1859 38.9459 39.1689 38.9552 39.1512C40.0948 37.1888 40.9287 35.0163 41.3768 32.689ZM34.8358 23.833C35.5614 25.1431 35.83 25.9734 35.8358 26.7805C35.8319 27.5691 35.2733 28.2253 34.8353 28.6191C34.3969 28.2258 33.8397 27.5732 33.8358 26.7932C33.8417 25.9761 34.1102 25.1431 34.8358 23.833ZM24.5795 21.3181C25.1185 19.677 27.6483 17.7144 29.3466 16.6094C28.8412 20.0122 26.9017 22.0552 25.4613 22.469C25.3539 22.5 24.8046 22.6428 24.6493 22.3918C24.5306 22.2007 24.3944 21.8813 24.5795 21.3181ZM13.5829 24.5464C12.4955 23.2808 12.0546 21.4324 12.3529 19.6062C12.5409 19.7056 12.7269 19.8032 12.9105 19.8999C16.0219 21.5342 17.975 22.5601 17.6141 26.1086C15.974 26.2319 14.5653 25.6897 13.5829 24.5464ZM17.7987 11.302C17.8148 9.2854 18.6425 7.27734 20.9999 3.70557C23.3573 7.27661 24.1849 9.28345 24.2015 11.2883C24.1884 13.5798 22.0208 15.3193 21.0179 16.0016C21.0124 16.0015 21.0074 16 21.0018 16C20.9952 16 20.989 16.0018 20.9823 16.002C19.9787 15.3194 17.8113 13.5826 17.7987 11.302ZM6.57849 23.8328C7.30408 25.1423 7.57264 25.9729 7.57849 26.7805C7.57459 27.5691 7.01599 28.2253 6.57801 28.6191C6.13953 28.2258 5.5824 27.5732 5.57849 26.7932C5.58435 25.9758 5.85291 25.1431 6.57849 23.8328ZM39.1439 33.5C38.7356 35.0652 38.1316 36.543 37.364 37.911C35.6002 38.6422 33.4955 37.8582 32.0814 37.3284C31.7992 37.2227 31.5419 37.1265 31.3163 37.0513C26.8729 35.5701 23.9091 37.3193 21.5272 38.7244C19.5326 39.9004 17.9574 40.8281 15.8417 40.0603C11.131 38.3472 8.84427 39.4412 6.71332 40.8918C4.9234 38.7917 3.58182 36.2831 2.85584 33.5H39.1439ZM20.9999 47.5C16.0643 47.5 11.5036 45.5655 8.11396 42.3629C9.86484 41.2201 11.5495 40.6278 15.1581 41.9397C18.1586 43.0305 20.3881 41.7178 22.5429 40.447C24.89 39.0635 27.1044 37.7561 30.684 38.9487C30.889 39.0171 31.1229 39.105 31.3798 39.2012C32.5017 39.6212 34.1217 40.2237 35.8397 40.2086C32.3766 44.6801 26.9609 47.5 20.9999 47.5Z"/></svg>