<svg width="50" height="49" viewBox="0 0 50 49" fill="none" xmlns="http://www.w3.org/2000/svg">
<path d="M48.4607 27.2001L40.4631 23.1118C40.178 22.9656 39.8412 22.9656 39.5561 23.1118L35.3289 25.2727C35.3941 24.5963 35.4265 23.9048 35.4265 23.1882C35.4265 16.409 31.0757 9.54639 22.7602 9.54639C14.4482 9.54639 10.0989 16.409 10.0989 23.1882C10.0989 28.219 11.6907 31.2693 13.0951 33.9607C13.612 34.9507 14.0997 35.8857 14.4746 36.8551C14.8596 37.858 15.4406 38.506 16.2636 38.8501V42.3428C16.2636 43.6426 17.1669 44.7324 18.3752 45.0187C18.7939 46.7866 20.3755 48.1071 22.2618 48.1071H23.2615C25.1227 48.1071 26.6864 46.8214 27.1302 45.089C28.5896 45.0306 29.7596 43.8228 29.7596 42.3428V38.5805C30.3196 38.2057 30.7454 37.6386 31.0488 36.8595C31.2805 36.2654 31.5551 35.6843 31.8491 35.0968C33.0518 39.1586 35.5651 41.4746 39.479 43.9374C39.641 44.0394 39.8256 44.0904 40.0096 44.0904C40.1936 44.0904 40.3781 44.0394 40.5402 43.9374C46.2768 40.3276 49.007 37.036 49.007 28.0949C49.007 27.7174 48.7961 27.3712 48.4607 27.2001ZM23.2615 46.0987H22.2618C21.5233 46.0987 20.877 45.6942 20.5309 45.0946H24.9925C24.6464 45.6942 24.0001 46.0987 23.2615 46.0987ZM27.0207 43.0862H26.2607H19.2627H19.003C18.5949 43.0862 18.263 42.7528 18.263 42.3428V39.1691C18.2834 39.1692 18.3008 39.1699 18.3216 39.1699H27.2038C27.3813 39.1699 27.5691 39.1643 27.7602 39.1542V42.3428C27.7602 42.7528 27.4283 43.0862 27.0207 43.0862ZM30.6485 33.0492C30.1111 34.0833 29.603 35.0595 29.1871 36.128C28.9386 36.7649 28.6745 36.9345 28.4226 37.0238C28.1532 37.1204 27.7885 37.1616 27.2038 37.1616H18.3216C17.9262 37.1616 17.6528 37.1444 17.4229 37.1042C16.9206 37.0218 16.615 36.8487 16.3392 36.1304C15.9229 35.0532 15.4093 34.0696 14.866 33.0281C13.5056 30.4206 12.0983 27.7243 12.0983 23.1882C12.0983 15.1954 17.625 11.5548 22.7602 11.5548C27.8979 11.5548 33.427 15.1954 33.427 23.1882C33.427 24.3087 33.335 25.3574 33.1581 26.3824L31.5584 27.2001C31.2231 27.3712 31.0122 27.7174 31.0122 28.0949C31.0122 29.5086 31.0809 30.7802 31.2185 31.935C31.0286 32.3125 30.8373 32.6859 30.6485 33.0492ZM40.0096 41.8966C35.2136 38.7894 33.1239 36.0647 33.016 28.7083L40.0096 25.1334L47.0032 28.7083C46.8953 36.0647 44.8051 38.7894 40.0096 41.8966Z" fill="#EB212E"/>
<path d="M22.7617 7.46734C23.3138 7.46734 23.7614 7.01771 23.7614 6.46316V1.11124C23.7614 0.556685 23.3138 0.107056 22.7617 0.107056C22.2096 0.107056 21.762 0.556685 21.762 1.11124V6.46316C21.762 7.01771 22.2096 7.46734 22.7617 7.46734Z" fill="#EB212E"/>
<path d="M37.1828 19.6014C37.2682 20.0888 37.6899 20.4316 38.1664 20.4316C38.224 20.4316 38.2821 20.4267 38.3406 20.4164L43.7043 19.4676C44.2481 19.3715 44.6113 18.8508 44.5156 18.3045C44.4194 17.7583 43.901 17.3925 43.3577 17.4896L37.9941 18.4384C37.4503 18.5345 37.0871 19.0552 37.1828 19.6014Z" fill="#EB212E"/>
<path d="M32.9232 11.1026C33.1942 11.1026 33.4641 10.9928 33.6613 10.7766L37.2652 6.82011C37.6377 6.41069 37.6099 5.77572 37.2028 5.40111C36.7947 5.02552 36.1625 5.05494 35.7901 5.46436L32.1861 9.42031C31.8137 9.82973 31.8415 10.4647 32.2486 10.8393C32.4405 11.0158 32.6826 11.1026 32.9232 11.1026Z" fill="#EB212E"/>
<path d="M7.68633 29.7394L2.88744 32.521C2.40955 32.7981 2.24553 33.4125 2.52133 33.893C2.70634 34.2151 3.04266 34.3951 3.38827 34.3951C3.55765 34.3951 3.72948 34.3519 3.88714 34.2607L8.68604 31.4791C9.16393 31.2021 9.32794 30.5877 9.05214 30.1072C8.77634 29.6266 8.16519 29.4619 7.68633 29.7394Z" fill="#EB212E"/>
<path d="M7.35744 20.4316C7.83386 20.4316 8.25561 20.0888 8.34104 19.6014C8.43671 19.0552 8.07354 18.5345 7.52975 18.4384L2.16608 17.4896C1.62278 17.393 1.10389 17.7583 1.00821 18.3045C0.912538 18.8508 1.27571 19.3715 1.8195 19.4676L7.18317 20.4164C7.24175 20.4267 7.29984 20.4316 7.35744 20.4316Z" fill="#EB212E"/>
<path d="M11.8626 10.7765C12.0598 10.9928 12.3297 11.1026 12.6007 11.1026C12.8413 11.1026 13.0834 11.0153 13.2753 10.8393C13.6824 10.4647 13.7102 9.82971 13.3377 9.42029L9.73332 5.46385C9.36087 5.05541 8.72824 5.02648 8.32065 5.40109C7.91354 5.7757 7.88572 6.41067 8.25817 6.82009L11.8626 10.7765Z" fill="#EB212E"/>
<path d="M25.9906 27.9472C25.769 28.1031 25.5316 28.2356 25.2784 28.3447C24.7326 28.5796 24.1307 28.6967 23.4727 28.6967C22.6932 28.6967 22.0005 28.5143 21.3942 28.1491C20.788 27.7833 20.312 27.2875 19.9655 26.6614C19.6189 26.0353 19.4461 25.3135 19.4461 24.4956C19.4461 23.6783 19.6189 22.956 19.9655 22.3299C20.312 21.7032 20.788 21.2119 21.3942 20.8554C22.0005 20.499 22.6932 20.3205 23.4727 20.3205C24.1132 20.3205 24.7107 20.4377 25.2652 20.6726C25.5188 20.7801 25.7543 20.9104 25.9717 21.0635C26.4211 21.3799 27.0256 21.3442 27.4136 20.9543C27.8839 20.482 27.8508 19.6887 27.32 19.2863C26.9523 19.0076 26.5531 18.7738 26.1223 18.5852C25.3081 18.2288 24.4251 18.0503 23.4727 18.0503C22.2602 18.0503 21.1648 18.3332 20.1866 18.8981C19.2079 19.4639 18.4371 20.2337 17.8743 21.2075C17.3114 22.1823 17.0303 23.2782 17.0303 24.4956C17.0303 25.6959 17.3114 26.7879 17.8743 27.7705C18.4371 28.7536 19.2079 29.5318 20.1866 30.1059C21.1648 30.6801 22.2602 30.967 23.4727 30.967C24.4251 30.967 25.3125 30.7846 26.1355 30.4193C26.5679 30.2272 26.9656 29.9943 27.3287 29.7205C27.8558 29.323 27.8916 28.5374 27.4295 28.0653C27.0451 27.6726 26.4397 27.6313 25.9906 27.9472Z" fill="#EB212E"/>
<path d="M37.763 32.3832C37.4004 31.9665 36.7682 31.9238 36.3523 32.2881C35.9369 32.6534 35.8944 33.2874 36.2576 33.7052L38.4425 36.2156C38.6329 36.4343 38.9072 36.5589 39.1952 36.5589C39.2065 36.5589 39.2172 36.5589 39.2284 36.5584C39.5286 36.5481 39.8079 36.4034 39.9899 36.1637L43.8033 31.1427C44.1381 30.7019 44.0537 30.0718 43.6149 29.7355C43.175 29.3991 42.5483 29.4839 42.2139 29.9248L39.1425 33.9685L37.763 32.3832Z" fill="#EB212E"/>
</svg>
