<svg class="svgicon svgicon-saop" xmlns="http://www.w3.org/2000/svg" width="48" height="44" viewBox="0 0 48 44"><path d="M47.6264 24.7261L44.0018 21.8121V14.5C44.0018 13.9478 43.5541 13.5 43.0018 13.5H39.0018C38.4496 13.5 38.0018 13.9478 38.0018 14.5V16.9884L33.6264 13.4707C33.2611 13.1768 32.7387 13.1768 32.3734 13.4707L25.0018 19.3971V1C25.0018 0.447754 24.5541 0 24.0018 0H10.0018C9.4496 0 9.00185 0.447754 9.00185 1V10.0829C9.00197 10.0849 9.00172 10.0868 9.00185 10.0887V14.5H0.999894C0.447648 14.5 -0.000106812 14.9478 -0.000106812 15.5V43C-0.000106812 43.5522 0.447648 44 0.999894 44H9.99989C10.0002 44 10.0005 43.9999 10.0009 43.9999C10.0012 43.9999 10.0015 44 10.0018 44H18.9999H23.4999H24.0018H29.4999H35.4999H42.4999H46.9999C47.5521 44 47.9999 43.5522 47.9999 43V25.5054C47.9999 25.2026 47.8627 24.916 47.6264 24.7261ZM40.0018 15.5H42.0018V20.2042L40.0018 18.5963V15.5ZM23.0018 10.5H16.9999C16.8436 10.5 16.6898 10.5366 16.5507 10.6064L11.0018 13.3979V10.637L17.2372 7.5H23.0018V10.5ZM11.0018 15.637L17.2372 12.5H23.0018V15.5H16.9999C16.8436 15.5 16.6898 15.5366 16.5507 15.6064L11.0018 18.3979V15.637ZM23.0018 2V5.5H16.9999C16.8436 5.5 16.6898 5.53662 16.5507 5.60645L11.0018 8.39789V2H23.0018ZM1.99989 42V16.5H8.99989V19H6.49989C5.94765 19 5.49989 19.4478 5.49989 20C5.49989 20.5522 5.94765 21 6.49989 21H8.99989V23.5H6.49989C5.94765 23.5 5.49989 23.9478 5.49989 24.5C5.49989 25.0522 5.94765 25.5 6.49989 25.5H8.99989V28H6.49989C5.94765 28 5.49989 28.4478 5.49989 29C5.49989 29.5522 5.94765 30 6.49989 30H8.99989V32.5H6.49989C5.94765 32.5 5.49989 32.9478 5.49989 33.5C5.49989 34.0522 5.94765 34.5 6.49989 34.5H8.99989V37H6.49989C5.94765 37 5.49989 37.4478 5.49989 38C5.49989 38.5522 5.94765 39 6.49989 39H8.99989V42H1.99989ZM11.0018 20.637L17.2372 17.5H23.0018V21.005L18.3734 24.7261C18.1371 24.916 17.9999 25.2026 17.9999 25.5054V42H11.0018V20.637ZM30.4999 42V33.5H34.4999V42H30.4999ZM36.4999 42V32.5C36.4999 31.9478 36.0521 31.5 35.4999 31.5H29.4999C28.9476 31.5 28.4999 31.9478 28.4999 32.5V42H24.4999V28.939L32.9999 22.0742L41.4999 28.939V42H36.4999ZM45.9999 42H43.4999V28.4614C43.4999 28.1592 43.3632 27.8735 43.1283 27.6836L33.6283 20.0107C33.2611 19.7148 32.7387 19.7148 32.3715 20.0107L22.8715 27.6836C22.6366 27.8735 22.4999 28.1592 22.4999 28.4614V42H19.9999V25.9844L32.9999 15.5332L45.9999 25.9844V42Z"/></svg>