<svg class="svgicon svgicon-saop" xmlns="http://www.w3.org/2000/svg" width="42" height="48" viewBox="0 0 42 48"><path d="M33 31.25C30.2803 31.25 27.7996 32.5484 26.2549 34.75H21.75V29.3032C22.1039 29.4449 22.5016 29.5273 22.9456 29.5273C23.009 29.5273 23.0735 29.5259 23.1387 29.5229C26.1836 29.3799 31.2732 25.6118 31.7954 21.2388C31.8057 21.1528 31.8054 21.0654 31.7932 20.9795C31.7207 20.4678 31.24 20.0884 30.7278 20.1216C30.7026 20.123 28.1042 20.2842 25.5156 21.1436C23.7625 21.7258 22.5658 22.4471 21.75 23.2082V20.712C27.0518 20.3253 31.25 15.8987 31.25 10.5C31.25 4.84814 26.6519 0.25 21 0.25C15.3481 0.25 10.75 4.84814 10.75 10.5C10.75 15.7279 14.6868 20.0462 19.75 20.6658V26.6338C19.0372 25.9415 18.1426 25.2754 17.0645 24.6465C14.8008 23.3267 12.375 22.5273 11.7632 22.4868C11.4578 22.4683 11.1653 22.585 10.96 22.8091C10.7549 23.0327 10.6626 23.3369 10.7087 23.6367C11.5188 28.9023 16.5112 32.9111 19.5034 32.9111C19.5742 32.9111 19.6443 32.9087 19.7129 32.9043C19.7258 32.9034 19.7372 32.8998 19.75 32.8987V34.75H12.5C10.4321 34.75 8.75 36.4321 8.75 38.5C8.75 39.5871 9.21765 40.5645 9.95905 41.25C9.21765 41.9355 8.75 42.9129 8.75 44C8.75 46.0679 10.4321 47.75 12.5 47.75H29.5C29.9961 47.75 30.4688 47.651 30.9026 47.4753C31.5904 47.6541 32.2935 47.75 33 47.75C37.5491 47.75 41.25 44.0488 41.25 39.5C41.25 34.9512 37.5491 31.25 33 31.25ZM29.4783 22.2603C28.3772 25.0059 25.0122 27.4326 23.0449 27.5249C22.2939 27.5581 22.2295 27.2524 22.1807 27.0278C22.1504 26.8877 22.1384 26.7373 22.145 26.5796C22.2607 23.8247 26.8835 22.6392 29.4783 22.2603ZM12.75 10.5C12.75 5.95117 16.4509 2.25 21 2.25C25.5491 2.25 29.25 5.95117 29.25 10.5C29.25 15.0488 25.5491 18.75 21 18.75C16.4509 18.75 12.75 15.0488 12.75 10.5ZM19.7437 30.8755C19.6682 30.9204 19.1611 30.9961 18.168 30.5376C16.2271 29.6416 14.0833 27.5469 13.1187 24.9736C15.5301 25.9244 19.7993 28.1355 19.75 30.7265V30.7329C19.7475 30.8297 19.7331 30.8837 19.7437 30.8755ZM10.75 38.5C10.75 37.5352 11.5352 36.75 12.5 36.75H29.5C30.4648 36.75 31.25 37.5352 31.25 38.5C31.25 39.4648 30.4648 40.25 29.5 40.25H12.5C11.5352 40.25 10.75 39.4648 10.75 38.5ZM12.5 45.75C11.5352 45.75 10.75 44.9648 10.75 44C10.75 43.0352 11.5352 42.25 12.5 42.25H29.5C30.4648 42.25 31.25 43.0352 31.25 44C31.25 44.9648 30.4648 45.75 29.5 45.75H12.5ZM33 45.75C32.9391 45.75 32.8784 45.7448 32.8175 45.743C33.0925 45.2218 33.25 44.6292 33.25 44C33.25 42.9129 32.7823 41.9355 32.041 41.25C32.7823 40.5645 33.25 39.5871 33.25 38.5C33.25 36.4321 31.5679 34.75 29.5 34.75H28.9498C30.0616 33.7969 31.4777 33.25 33 33.25C36.4463 33.25 39.25 36.0537 39.25 39.5C39.25 42.9463 36.4463 45.75 33 45.75Z"/><path d="M5 15.75C2.65649 15.75 0.75 17.6567 0.75 20C0.75 22.3433 2.65649 24.25 5 24.25C7.34351 24.25 9.25 22.3433 9.25 20C9.25 17.6567 7.34351 15.75 5 15.75ZM5 22.25C3.75928 22.25 2.75 21.2407 2.75 20C2.75 18.7593 3.75928 17.75 5 17.75C6.24072 17.75 7.25 18.7593 7.25 20C7.25 21.2407 6.24072 22.25 5 22.25Z"/><path d="M19.4907 10.1556C19.9122 10.0296 20.2315 9.8157 20.448 9.51443C20.6646 9.21316 20.7726 8.8706 20.7726 8.487C20.7726 8.14735 20.6932 7.83893 20.5343 7.56229C20.3755 7.28564 20.1356 7.06777 19.8153 6.90893C19.4944 6.74982 19.1069 6.6704 18.6521 6.6704H16.2933V12.4405H17.6985V10.2623H18.0358L19.2355 12.4405H20.8223L19.4907 10.1556ZM19.1492 9.07868C19.0206 9.20496 18.8273 9.2677 18.57 9.2677H17.6985V7.83761H18.57C18.8273 7.83761 19.0206 7.90062 19.1492 8.02663C19.2779 8.15264 19.3425 8.32551 19.3425 8.54445C19.3425 8.7745 19.2779 8.95267 19.1492 9.07868Z"/><path d="M22.5643 11.7993C22.7014 12.0077 22.8915 12.1774 23.1356 12.309C23.3791 12.4405 23.6603 12.5062 23.978 12.5062C24.356 12.5062 24.6986 12.409 25.0057 12.2144C25.3122 12.0201 25.5547 11.7432 25.7332 11.3842C25.911 11.0255 26 10.6104 26 10.1389C26 9.66797 25.911 9.2542 25.7332 8.89787C25.5547 8.5418 25.3122 8.2678 25.0057 8.07587C24.6986 7.8842 24.356 7.78837 23.978 7.78837C23.6545 7.78837 23.3728 7.85402 23.1314 7.98559C22.8904 8.11717 22.7014 8.28977 22.5643 8.50341V7.85402H21.1591V14.627H22.5643V11.7993ZM22.8481 9.3172C23.0424 9.11442 23.2796 9.01302 23.5592 9.01302C23.844 9.01302 24.0833 9.11309 24.2782 9.31297C24.4725 9.51311 24.5699 9.78843 24.5699 10.1389C24.5699 10.4897 24.4714 10.7679 24.2739 10.9734C24.077 11.1788 23.8382 11.2815 23.5592 11.2815C23.2796 11.2815 23.0424 11.1801 22.8481 10.9773C22.6532 10.7748 22.5564 10.4979 22.5564 10.1474C22.5564 9.79663 22.6532 9.51999 22.8481 9.3172Z"/></svg>