<svg width="48" height="48" viewBox="0 0 48 48" fill="none" xmlns="http://www.w3.org/2000/svg">
<path d="M47 21.5H44.5V18C44.5 17.4478 44.0522 17 43.5 17H35.2758C34.8307 13.4538 32.0697 7.80969 24.9853 7.32721L24.989 6H30.5C31.0522 6 31.5 5.55225 31.5 5V1C31.5 0.447754 31.0522 0 30.5 0H24C23.4478 0 23 0.447754 23 1V1.99731L22.9853 7.32959C15.9228 7.82581 13.1687 13.4587 12.7242 17H4.5C3.94775 17 3.5 17.4478 3.5 18V21.5H1C0.447754 21.5 0 21.9478 0 22.5V26.5C0 27.0522 0.447754 27.5 1 27.5H3.5V47C3.5 47.5522 3.94775 48 4.5 48H10H13H18.5H21.5H26.5H29.5H35H38H43.5C44.0522 48 44.5 47.5522 44.5 47V27.5H47C47.5522 27.5 48 27.0522 48 26.5V22.5C48 21.9478 47.5522 21.5 47 21.5ZM25 2H29.5V4H25V2ZM24 9.29028C30.3076 9.29028 32.8027 13.9751 33.2627 17H14.7373C15.1973 13.9751 17.6924 9.29028 24 9.29028ZM5.5 19H13.6567H34.3433H42.5V21H5.5L5.5 19ZM10.5 46V34C10.5 33.4485 10.9487 33 11.5 33C12.0513 33 12.5 33.4485 12.5 34V46H10.5ZM19 46V34C19 33.4485 19.4487 33 20 33C20.5513 33 21 33.4485 21 34V46H19ZM27 46V34C27 33.4485 27.4487 33 28 33C28.5513 33 29 33.4485 29 34V46H27ZM35.5 46V34C35.5 33.4485 35.9487 33 36.5 33C37.0513 33 37.5 33.4485 37.5 34V46H35.5ZM42.5 46H39.5V34C39.5 32.3457 38.1543 31 36.5 31C34.8457 31 33.5 32.3457 33.5 34V46H31V34C31 32.3457 29.6543 31 28 31C26.3457 31 25 32.3457 25 34V46H23V34C23 32.3457 21.6543 31 20 31C18.3457 31 17 32.3457 17 34V46H14.5V34C14.5 32.3457 13.1543 31 11.5 31C9.8457 31 8.5 32.3457 8.5 34V46H5.5V27.5H42.5V46ZM46 25.5H43.5H4.5H2V23.5H46V25.5Z" fill="#EB212E"/>
</svg>
