<svg class="svgicon svgicon-saop" xmlns="http://www.w3.org/2000/svg" width="50" height="46" viewBox="0 0 50 46"><path d="M9.06299 11.7249C6.45362 14.1531 6.30616 18.2515 8.73438 20.8609C10.0056 22.2273 11.7351 22.9185 13.469 22.9185C15.0464 22.9185 16.6274 22.3462 17.8704 21.1897C20.4797 18.7615 20.6272 14.6629 18.199 12.0535C15.7708 9.44363 11.6719 9.29642 9.06299 11.7249ZM16.5081 19.7256C14.7058 21.4019 11.8752 21.3003 10.1985 19.4986C8.52149 17.6963 8.6233 14.8658 10.4253 13.189C11.2839 12.3899 12.3757 11.9949 13.4651 11.9949C14.6624 11.9949 15.8569 12.4724 16.7349 13.4158C18.4119 15.218 18.3101 18.0486 16.5081 19.7256Z"/><path d="M25.9223 15.9363L29.7202 12.4021L25.1941 7.53827C25.575 7.23257 25.9631 6.95743 26.3571 6.74194C26.8417 6.47681 27.0197 5.86938 26.7548 5.38477C26.4904 4.90039 25.8825 4.72217 25.3976 4.98706C24.8598 5.28116 24.3322 5.64569 23.8235 6.06537L18.6791 0.537109L14.8815 4.07129C11.2409 3.65088 7.65374 4.8252 4.9682 7.32422C-0.0676916 12.0105 -0.35236 19.9197 4.33368 24.9556C6.60394 27.395 9.68792 28.8047 13.018 28.9243C13.1718 28.9299 13.3249 28.9326 13.4777 28.9326C16.6396 28.9326 19.6381 27.7554 21.965 25.5898C24.6508 23.0906 26.0773 19.5955 25.9223 15.9363ZM20.6027 24.1257C18.5541 26.032 15.8849 27.0281 13.09 26.9258C10.2936 26.8252 7.70404 25.6416 5.79803 23.5933C3.89178 21.5447 2.8974 18.8767 2.99798 16.0806C3.09857 13.2842 4.28216 10.6946 6.3305 8.78857C8.28534 6.96948 10.8105 5.98877 13.4401 5.98877C13.9787 5.98877 14.5217 6.02979 15.0649 6.11328L15.5436 6.18701L18.5776 3.36377L26.8935 12.3005L23.8598 15.1238L23.8986 15.6064C24.1591 18.8291 22.9577 21.9343 20.6027 24.1257Z"/><path d="M19.8101 7.67437C19.4336 7.27031 18.8013 7.24712 18.3967 7.62334C17.9924 7.99981 17.9695 8.63238 18.3457 9.03667L21.2185 12.1238C21.4155 12.3355 21.6829 12.4427 21.9509 12.4427C22.1948 12.4427 22.4392 12.3541 22.6319 12.1749C23.0361 11.7984 23.0591 11.1658 22.6829 10.7615L19.8101 7.67437Z"/><path d="M36.5335 26.5195C36.5254 26.5195 36.5169 26.5195 36.5086 26.5195C32.9441 26.5334 30.0555 29.4443 30.0689 33.0088C30.0828 36.5649 32.98 39.4485 36.5332 39.4485C36.5413 39.4485 36.5499 39.4485 36.5582 39.4485C40.1226 39.4346 43.0113 36.5237 42.9978 32.9592C42.9839 29.4031 40.0867 26.5195 36.5335 26.5195ZM36.5503 37.4485C34.1048 37.4631 32.0787 35.4629 32.0689 33.001C32.0599 30.5396 34.0547 28.5291 36.5164 28.5195C36.5223 28.5195 36.5276 28.5195 36.5335 28.5195C38.9871 28.5195 40.9883 30.5112 40.9978 32.967C41.0071 35.4285 39.012 37.439 36.5503 37.4485Z"/><path d="M44.6009 23.4797L44.5809 18.2919L37.6616 18.3184C37.705 18.0277 37.7457 17.7374 37.7757 17.4509C37.8331 16.9016 37.4344 16.4096 36.8851 16.3522C36.3341 16.2966 35.8441 16.6938 35.7865 17.2429C35.7492 17.5998 35.6966 17.9622 35.6359 18.3262L28.3734 18.354L28.3934 23.5415C25.618 25.9316 24.044 29.363 24.058 33.0317C24.0841 39.8945 29.6754 45.4594 36.5326 45.4592C36.5484 45.4592 36.5648 45.4592 36.5809 45.4592C39.9132 45.4465 43.0409 44.1369 45.3883 41.7717C47.7354 39.4064 49.0211 36.2685 49.0084 32.9362C48.9945 29.2678 47.3944 25.8486 44.6009 23.4797ZM43.9686 40.3627C41.9977 42.3488 39.3712 43.4484 36.5731 43.4592C30.8143 43.4877 26.0799 38.8002 26.058 33.0239C26.0457 29.8071 27.4891 26.8066 30.0182 24.7922L30.3971 24.4904L30.3812 20.3461L36.4656 20.323C36.4669 20.323 36.4683 20.3234 36.4696 20.3234C36.4713 20.3234 36.473 20.323 36.4748 20.323L42.5887 20.2998L42.6046 24.4438L42.9854 24.7426C45.5299 26.7377 46.9962 29.727 47.0084 32.944C47.0191 35.7421 45.9395 38.3767 43.9686 40.3627Z"/><path d="M34.3882 24.3652C34.3894 24.3652 34.3906 24.3652 34.3921 24.3652L38.6091 24.3491C39.1614 24.3469 39.6074 23.8975 39.6052 23.3452C39.603 22.7942 39.1558 22.3491 38.6052 22.3491C38.604 22.3491 38.6028 22.3491 38.6013 22.3491L34.3843 22.3652C33.832 22.3674 33.386 22.8169 33.3882 23.3691C33.3904 23.9202 33.8377 24.3652 34.3882 24.3652Z"/><path d="M35.7424 13.5418C35.812 14.0422 36.2404 14.4043 36.7317 14.4043C36.7776 14.4043 36.8239 14.4011 36.8706 14.3945C37.4177 14.3184 37.7995 13.8132 37.7234 13.2664C37.5188 11.7959 37.1147 10.4287 36.5222 9.20265C36.2817 8.70533 35.6833 8.49733 35.1867 8.73756C34.6894 8.97804 34.4812 9.57594 34.7214 10.073C35.2231 11.1111 35.5666 12.2781 35.7424 13.5418Z"/><path d="M29.5819 6.01103C30.652 6.10698 31.6989 6.554 32.6088 7.30327C32.7951 7.45659 33.0202 7.53129 33.244 7.53129C33.5326 7.53129 33.8188 7.40702 34.0165 7.16703C34.3676 6.74052 34.3065 6.11039 33.8803 5.75932C32.6579 4.75297 31.2335 4.15117 29.7606 4.01884C29.2152 3.96782 28.7245 4.37529 28.6752 4.92558C28.6259 5.47563 29.0319 5.96147 29.5819 6.01103Z"/></svg>