<svg class="impavida-logo" xmlns="http://www.w3.org/2000/svg" width="400" height="404.5" viewBox="0 0 400 404.5" fill="#072732"><path d="M220.8,57.6c-2.1-0.3-4.1,1.2-4.3,3.2c-0.3,2.1,1.2,4,3.3,4.2c2.1,0.3,4.1-1.2,4.3-3.2C224.4,59.7,222.9,57.8,220.8,57.6z M260.4,68c-2-0.8-4.2,0.1-5,2c-0.8,1.9,0.1,4.1,2.1,4.9c2,0.8,4.2-0.1,5-2C263.3,71,262.3,68.8,260.4,68z M295.8,88c-1.7-1.3-4.1-1-5.4,0.7c-1.3,1.6-1,4,0.7,5.3c1.7,1.3,4.1,1,5.4-0.7C297.8,91.7,297.5,89.3,295.8,88z M324.7,116.4c-1.3-1.7-3.7-2-5.4-0.7c-1.7,1.3-2,3.6-0.7,5.3c1.3,1.7,3.7,2,5.4,0.7C325.7,120.4,326,118,324.7,116.4z M345.2,151.1c-0.8-1.9-3.1-2.8-5-2c-2,0.8-2.9,3-2.1,4.9c0.8,1.9,3.1,2.8,5,2C345,155.2,346,153,345.2,151.1z M355.7,189.7c-0.3-2.1-2.2-3.5-4.3-3.2c-2.1,0.3-3.6,2.2-3.3,4.2c0.3,2.1,2.2,3.5,4.3,3.2C354.5,193.7,356,191.8,355.7,189.7z M355.6,229.7c0.3-2.1-1.2-4-3.3-4.2c-2.1-0.3-4.1,1.2-4.3,3.2c-0.3,2.1,1.2,4,3.3,4.2C353.4,233.2,355.3,231.8,355.6,229.7z M345,268.3c0.8-1.9-0.1-4.1-2.1-4.9c-2-0.8-4.2,0.1-5.1,2c-0.8,1.9,0.1,4.1,2.1,4.9C341.9,271.1,344.1,270.2,345,268.3z M324.4,302.9c1.3-1.6,1-4-0.7-5.3c-1.7-1.3-4.1-1-5.4,0.7c-1.3,1.6-1,4,0.7,5.3C320.7,304.9,323.1,304.6,324.4,302.9z M295.4,331.1c1.7-1.3,2-3.6,0.7-5.3c-1.3-1.7-3.7-2-5.4-0.7c-1.7,1.3-2,3.6-0.7,5.3C291.3,332.1,293.7,332.4,295.4,331.1z M259.9,351.1c2-0.8,2.9-3,2.1-4.9c-0.8-1.9-3.1-2.8-5-2.1c-2,0.8-2.9,3-2.1,4.9C255.6,350.9,257.9,351.9,259.9,351.1z M220.3,361.4c2.1-0.3,3.6-2.2,3.3-4.2c-0.3-2.1-2.2-3.5-4.3-3.3c-2.1,0.3-3.6,2.2-3.3,4.2C216.2,360.2,218.2,361.6,220.3,361.4z M179.3,361.3c2.1,0.3,4.1-1.2,4.3-3.2c0.3-2.1-1.2-4-3.3-4.2c-2.1-0.3-4.1,1.2-4.3,3.2C175.7,359.1,177.2,361,179.3,361.3z M139.7,350.9c2,0.8,4.2-0.1,5-2c0.8-1.9-0.1-4.1-2.1-4.9c-2-0.8-4.2,0.1-5,2C136.8,347.9,137.8,350.1,139.7,350.9z M104.3,330.8c1.7,1.3,4.1,1,5.4-0.7c1.3-1.6,1-4-0.7-5.3c-1.7-1.3-4.1-1-5.4,0.7C102.3,327.2,102.6,329.5,104.3,330.8z M75.4,302.5c1.3,1.7,3.7,2,5.4,0.7c1.7-1.3,2-3.6,0.7-5.3c-1.3-1.7-3.7-2-5.4-0.7C74.4,298.5,74.1,300.8,75.4,302.5z M55,267.8c0.8,1.9,3.1,2.8,5,2c2-0.8,2.9-3,2.1-4.9c-0.8-1.9-3.1-2.8-5-2C55.1,263.7,54.1,265.9,55,267.8z M44.4,229.2c0.3,2.1,2.2,3.5,4.3,3.3c2.1-0.3,3.6-2.2,3.3-4.2c-0.3-2.1-2.2-3.5-4.3-3.3C45.6,225.2,44.1,227.1,44.4,229.2z M44.5,189.2c-0.3,2.1,1.2,4,3.3,4.2c2.1,0.3,4.1-1.2,4.3-3.2c0.3-2.1-1.2-4-3.3-4.2C46.7,185.7,44.8,187.1,44.5,189.2z M55.2,150.6c-0.8,1.9,0.1,4.1,2.1,4.9c2,0.8,4.2-0.1,5.1-2c0.8-1.9-0.1-4.1-2.1-4.9C58.3,147.7,56,148.6,55.2,150.6z M75.7,115.9c-1.3,1.6-1,4,0.7,5.3c1.7,1.3,4.1,1,5.4-0.7c1.3-1.6,1-4-0.7-5.3C79.4,114,77,114.3,75.7,115.9z M104.7,87.7c-1.7,1.3-2,3.6-0.7,5.3c1.3,1.7,3.7,2,5.4,0.7c1.7-1.3,2-3.6,0.7-5.3C108.9,86.8,106.4,86.5,104.7,87.7z M140.3,67.8c-2,0.8-2.9,3-2.1,4.9c0.8,1.9,3.1,2.8,5,2.1c2-0.8,2.9-3,2.1-4.9C144.5,67.9,142.2,67,140.3,67.8z M179.9,57.5c-2.1,0.3-3.6,2.2-3.3,4.2c0.3,2.1,2.2,3.5,4.3,3.3c2.1-0.3,3.6-2.2,3.3-4.2C183.9,58.7,182,57.2,179.9,57.5z M240.7,61.4c-2.1-0.5-4.2,0.7-4.7,2.7c-0.6,2,0.7,4.1,2.7,4.6c2.1,0.5,4.2-0.7,4.7-2.7C244,64.1,242.7,62,240.7,61.4z M278.5,76.7c-1.8-1-4.2-0.4-5.3,1.4c-1.1,1.8-0.4,4.1,1.4,5.1c1.8,1,4.2,0.4,5.3-1.4C281,80.1,280.4,77.8,278.5,76.7z M311,101.1c-1.5-1.5-4-1.5-5.5,0c-1.5,1.5-1.5,3.9,0,5.3c1.5,1.5,4,1.5,5.5,0C312.5,105,312.5,102.6,311,101.1z M336,132.8c-1.1-1.8-3.4-2.4-5.3-1.4c-1.8,1-2.5,3.3-1.4,5.1c1.1,1.8,3.4,2.4,5.3,1.4C336.4,136.9,337,134.6,336,132.8z M351.7,169.8c-0.6-2-2.7-3.2-4.7-2.7c-2.1,0.5-3.3,2.6-2.7,4.6c0.6,2,2.7,3.2,4.7,2.7C351,173.9,352.2,171.8,351.7,169.8z M357,209.4c0-2.1-1.7-3.8-3.9-3.8c-2.1,0-3.9,1.7-3.9,3.8c0,2.1,1.7,3.8,3.9,3.8C355.3,213.2,357,211.5,357,209.4z M351.7,249.1c0.5-2-0.7-4.1-2.7-4.6c-2.1-0.5-4.2,0.7-4.7,2.7c-0.5,2,0.7,4.1,2.7,4.6C349,252.3,351.1,251.1,351.7,249.1z M336,286c1.1-1.8,0.4-4.1-1.4-5.1c-1.8-1-4.2-0.4-5.3,1.4c-1.1,1.8-0.4,4.1,1.4,5.1C332.6,288.5,334.9,287.8,336,286z M311,317.8c1.5-1.5,1.5-3.9,0-5.3c-1.5-1.5-4-1.5-5.5,0c-1.5,1.5-1.5,3.9,0,5.3C307.1,319.2,309.5,319.2,311,317.8z M278.5,342.1c1.8-1,2.5-3.3,1.4-5.1c-1.1-1.8-3.4-2.4-5.3-1.4c-1.8,1-2.5,3.4-1.4,5.2C274.3,342.5,276.7,343.2,278.5,342.1z M240.7,357.4c2.1-0.5,3.3-2.6,2.7-4.6c-0.5-2-2.7-3.2-4.7-2.7c-2.1,0.5-3.3,2.6-2.7,4.6C236.5,356.8,238.6,358,240.7,357.4z M200.1,362.6c2.1,0,3.9-1.7,3.9-3.8c0-2.1-1.7-3.8-3.9-3.8c-2.1,0-3.9,1.7-3.9,3.8C196.2,361,197.9,362.6,200.1,362.6z M159.4,357.4c2.1,0.5,4.2-0.7,4.7-2.7c0.6-2-0.7-4.1-2.7-4.6c-2.1-0.5-4.2,0.7-4.7,2.7C156.2,354.8,157.4,356.9,159.4,357.4z M121.6,342.1c1.8,1,4.2,0.4,5.3-1.4c1.1-1.8,0.4-4.1-1.4-5.2c-1.8-1-4.2-0.4-5.3,1.4C119.1,338.8,119.7,341.1,121.6,342.1z M89.1,317.8c1.5,1.5,4,1.5,5.5,0c1.5-1.5,1.5-3.9,0-5.3c-1.5-1.5-4-1.5-5.5,0C87.6,313.9,87.6,316.3,89.1,317.8z M64.1,286c1.1,1.8,3.4,2.4,5.3,1.4c1.8-1,2.5-3.3,1.4-5.1c-1.1-1.8-3.4-2.4-5.3-1.4C63.7,281.9,63.1,284.2,64.1,286z M48.5,249.1c0.6,2,2.7,3.2,4.7,2.7c2.1-0.5,3.3-2.6,2.7-4.6c-0.5-2-2.7-3.2-4.7-2.7C49.1,245,47.9,247.1,48.5,249.1z M43.1,209.4c0,2.1,1.7,3.8,3.9,3.8c2.1,0,3.9-1.7,3.9-3.8c0-2.1-1.7-3.8-3.9-3.8C44.8,205.7,43.1,207.3,43.1,209.4z M48.5,169.8c-0.5,2,0.7,4.1,2.7,4.6c2,0.5,4.2-0.7,4.7-2.7c0.6-2-0.7-4.1-2.7-4.6C51.1,166.6,49,167.8,48.5,169.8z M64.1,132.8c-1.1,1.8-0.4,4.1,1.4,5.1c1.8,1,4.2,0.4,5.3-1.4c1.1-1.8,0.4-4.1-1.4-5.2C67.6,130.4,65.2,131,64.1,132.8z M89.1,101.1c-1.5,1.5-1.5,3.9,0,5.3c1.5,1.5,4,1.5,5.5,0c1.5-1.5,1.5-3.9,0-5.3C93,99.6,90.6,99.6,89.1,101.1z M121.6,76.7c-1.8,1-2.5,3.4-1.4,5.2c1.1,1.8,3.4,2.4,5.3,1.4c1.8-1,2.5-3.3,1.4-5.1C125.8,76.3,123.4,75.7,121.6,76.7z M159.4,61.4c-2.1,0.5-3.3,2.6-2.7,4.6c0.5,2,2.7,3.2,4.7,2.7c2.1-0.5,3.3-2.6,2.7-4.6C163.6,62.1,161.5,60.9,159.4,61.4z M388.7,200.5c-0.8-34.8-11.3-67.2-29-94.7c-0.2,0-0.4,0-0.7,0c-2.9,0-5.3-2.3-5.3-5.1c0-2.8,2.4-5.1,5.3-5.1c2.9,0,5.3,2.3,5.3,5.1c0,1-0.3,1.9-0.8,2.7c18.1,28.2,28.8,61.4,29.6,97c1.8,0.8,3.1,2.6,3.1,4.7c0,2.8-2.4,5.1-5.3,5.1c-2.9,0-5.3-2.3-5.3-5.1C385.7,203,386.9,201.3,388.7,200.5z M11.6,200.5c0.8-34.8,11.3-67.2,29-94.7c0.2,0,0.4,0,0.7,0c2.9,0,5.3-2.3,5.3-5.1c0-2.8-2.4-5.1-5.3-5.1c-2.9,0-5.3,2.3-5.3,5.1c0,1,0.3,1.9,0.8,2.7c-18.1,28.2-28.8,61.4-29.6,97C5.3,201.2,4,203,4,205.1c0,2.8,2.4,5.1,5.3,5.1c2.9,0,5.3-2.3,5.3-5.1C14.6,203,13.3,201.3,11.6,200.5z M160.4,98.1h79.3v21.6h-79.3V98.1z M239.7,147.6v151.8l-22.1,17.9V147.6h-6.5v173.7l-11.1,9.5l-11.1-9.5V147.6h-6.5v169l-22.1-17.1V147.6h-37.8c-4.2,0-9.9,1.3-11.1,5.9c-1.8,7,4.3,14.1,11.8,11.6c4.5-1.5,7-5.5,8.3-9.7l0.8-2.7h22.4l-0.9,4.6c-2.6,12.8-10.5,23.9-23.5,28.3c-9.6,3.2-19.8,1.8-28-4c-10.7-7.6-15.6-20.7-12.4-33.3c3.8-14.7,17.7-22.2,32.5-22.2c55.4,0,99.6,0,154.9,0c14.8,0,28.7,7.5,32.5,22.2c3.2,12.5-1.6,25.7-12.4,33.3c-8.2,5.8-18.4,7.3-28,4c-13-4.3-20.9-15.5-23.5-28.3l-0.9-4.6h22.4l0.8,2.7c1.3,4.2,3.9,8.2,8.3,9.7c7.5,2.5,13.6-4.6,11.8-11.6c-1.2-4.6-6.8-5.9-11.1-5.9H239.7z M339.3,68.5l-6.6,10.7l-5-5L339.3,68.5z M335.4,96.7l-1.7-2.4l1.2-2.8l15.2-28.2l-4.5-3.8l-27.5,12.2l-4.8,1.5l-1.9-1.4l-2.6,2.8c0,0,2.1,1.8,5.2,5c1.7,1.7,3.6,4.1,3.6,4.1l2.8-2.3l-1.6-2.6l1.7-1.1l3.1-1.6l6.8,7l-1.4,2.3l-1.8,2l-2.5-1.9l-2.6,2.8c0,0,3.3,3,7.6,7.4c1.3,1.3,2.8,3.3,2.8,3.3L335.4,96.7z M304.6,33c6.7,3.8,5.7,10.7,1.7,17.4c-4.1,6.9-9.6,11-16.4,7.1c-1.2-0.7-2.4-1.5-2.9-1.8c0.3-0.6,1.6-3.2,2.8-5.1l9.2-15.5c0.4-0.7,1.8-2.8,2.3-3.5C302.5,32.1,303.7,32.5,304.6,33z M307.4,29.7c-2.2-1.3-7.6-3.7-9.8-4.9c-2.1-1.2-4.4-2.8-4.4-2.8l-2.2,3.2l2.6,2.2c0,0-1.2,2.9-2.5,5.2L282,48c-0.5,0.9-2.7,3.6-2.7,3.6l-3.3-1.2l-1.6,3.2c0,0,2.5,1.1,4.7,2.3c2.7,1.5,6.5,4,9.4,5.7c10.5,6,19.9,2.5,25.4-6.8C319.5,45.3,317.9,35.7,307.4,29.7z M276,14.6c0,0-4.1-1.1-9.7-3c-2.3-0.8-4.9-1.9-4.9-1.9l-1.5,3.6l3,1.7c-0.2,0.8-0.6,3.1-1.5,5.5l-6,16.9c-0.3,1-1.7,3.5-1.9,4l-3.5-0.5l-1,3.5c0,0,2.7,0.6,5,1.4c5.6,1.9,9.5,3.5,9.5,3.5l1.6-3.6l-3.1-1.4c0.1-0.7,0.7-3.3,1.5-5.8l6-16.9c0.3-1,1.4-3.1,1.8-3.8l3.4,0.8L276,14.6z M219.3,38l6,0.8l14.2-26.3c0.8-1.5,2.9-4.1,2.9-4.1l2.6,0l0.2-3.7c0,0-3.4-0.2-7.7-0.7c-2.4-0.4-5.7-1-5.7-1l-0.7,3.5l3.2,1.1c0,0-0.1,0.9-0.6,1.9L224.5,28L221,8.5c-0.2-1-0.1-2.7-0.1-2.7l3.4-0.1l0.2-3.7c0,0-5-0.4-10.9-1.1C211.9,0.6,209,0,209,0l-0.7,3.5l3.1,0.8c0,0,0.7,1.6,1,2.9L219.3,38z M180.3,12.3l5,11.5l-7.1,1L180.3,12.3z M201.4,32l-3-0.1l-1.6-2.6L182.4,0.8l-5.8,1.3L170.6,31l-1.6,4.7l-2.3,0.7l0.8,3.7c0,0,2.8-0.6,7.2-1.2c2.4-0.3,5.6-0.5,5.6-0.5l-0.2-3.6l-3.1-0.2l0-2l0.4-3.4l9.8-1.3l1.1,2.4l0.6,2.6l-3,0.9l0.8,3.7c0,0,4.4-0.8,10.6-1.6c1.8-0.2,4.4-0.3,4.4-0.3L201.4,32z M138.5,18.8c-0.3-0.8-1-3.1-1.3-4.4c0.6-0.2,1.1-0.4,1.4-0.5c4.6-1.5,7.3-0.1,8.9,4.5c1.5,4.5-0.4,7.9-5,9.4l-0.8,0.3L138.5,18.8z M140.1,8.9c-2.7,0.9-7.9,3.1-10.5,4c-2.3,0.8-5,1.4-5,1.4l1,3.7l3.4-0.5c0.4,0.7,1.5,2.8,2.3,5.2l5.8,17c0.3,1,0.9,3.8,1,4.3l-3.1,1.7l1.4,3.3c0,0,2.6-1.1,4.9-1.9c5.6-1.8,10.2-3.1,10.2-3.1l-1-3.8l-3.8,0.9c-0.3-0.6-1.5-3.1-2.4-5.5l-1.3-3.8l2.7-0.9c7.1-2.3,12.1-8.4,9.8-15.3C153.2,8.9,147.1,6.6,140.1,8.9z M93.6,29.7l-0.3,1.4c0,0,1.8,5.8,2.1,7l4.5,17.2L86.4,44.7c-1.6-1.3-6.2-5.3-6.2-5.3l-1.5-0.3l-6.2,3.9c-1.9,1.2-4.8,2.8-4.8,2.8l1.8,3.2l3.3-1.4c0.6,0.7,1.6,1.8,1.9,2.3L86,69.5c0.2,0.6,0.8,2,1,2.9l-2.6,2.4l2.1,2.7c0,0,2.5-1.9,4.3-3c4.7-3,6.9-4.1,6.9-4.1L96,67.1l-3.2,1.6c-0.7-0.9-2.1-2.7-2.7-3.7l-9.4-15.8l22.7,17.2l4-2.6l-6.8-27.4l10.9,14.8c0.6,0.9,1.8,2.8,2.4,3.9l-2.6,2.4l2.1,2.7c0,0,2.5-1.9,4.4-3.1c4.7-3,8.1-4.8,8.1-4.8l-1.9-3.3l-3.1,1.6c-0.7-0.7-1.8-1.6-2.2-2.1l-13.9-17.9c-0.4-0.6-1.1-1.7-1.5-2.6l2.5-2.3l-2.2-3c0,0-3.4,2.5-5.7,3.9L93.6,29.7z M52.3,61.5c0,0-2.7,3.2-6.8,7.4c-1.7,1.8-3.8,3.6-3.8,3.6l2.7,2.8l2.8-2c0.7,0.5,2.7,1.8,4.6,3.6l13.4,12.2c0.8,0.7,2.6,3,3,3.4l-1.9,2.9l2.9,2.3c0,0,1.7-2.2,3.4-3.9c4.1-4.2,7.2-7.1,7.2-7.1l-2.7-2.9l-2.6,2.2c-0.6-0.4-2.8-2-4.8-3.7L56.2,70c-0.8-0.7-2.3-2.5-2.8-3.2l2.1-2.7L52.3,61.5z M392.3,233.3l5.8,0.9c0,0,1.7-2.7,2-6.6c0.3-4.1-1.9-7.6-6-7.9c-6.9-0.5-7,8.7-11,8.4c-1.5-0.1-2.3-1.3-2.2-3.1c0.1-1,0.5-1.7,0.9-2.3c0.5-0.2,0.9-0.3,1-0.3l2.2,0.2l0.3-2.4l-5.8-0.8c-0.8,2-1.4,4.2-1.6,6.3c-0.3,3.9,1.7,6.9,5.4,7.2c7.1,0.5,7-8.7,11.4-8.4c1.7,0.1,2.4,1.5,2.3,3.2c-0.1,1.5-0.7,2.5-1.1,3c-0.5,0.2-1.1,0.3-1.3,0.3c-0.4,0-2.1-0.1-2.1-0.1L392.3,233.3z M382.5,236l-5-0.6l-0.6,0.4c0,0-0.2,2.7-0.3,3.3l-1.7,9.3c-0.1,0.6-0.9,3.2-0.9,3.2l0.4,0.6l4.9,1l0.5-2c-0.4-0.1-1.6-0.4-2-0.6c-0.1,0-0.4-0.2-0.6-0.4c0-0.6,0.1-1.4,0.3-2.3l0.2-1.3c0.5,0,1.9,0.1,3.3,0.3l10.3,1.7c0.6,0.1,2.2,0.6,2.5,0.7l0,1.9l2.1,0.2c0,0,0.1-1.5,0.4-2.9c0.6-3.2,1.2-5.5,1.2-5.5l-2.2-0.5l-0.5,1.8c-0.4,0-2-0.1-3.5-0.3l-10.3-1.7c-0.6-0.1-1.9-0.5-2.3-0.7l0.3-1.4c0.2-0.9,0.4-1.6,0.5-2.1c0.3-0.1,0.6-0.1,0.7-0.1c0.5,0,1.6,0,2.1,0.1L382.5,236z M373.7,253.6c0,0-0.7,2.4-1.4,4.6l-1.1,2.7l2.1,0.8l1-1.7c0.5,0.1,2.2,0.4,3.2,0.8l8,2.6l-10.8,3.2c-0.8,0.2-5.1,1.1-5.1,1.1l-0.8,0.3l-1,2.8c-0.4,1.3-1.1,2.7-1.1,2.7l2.1,0.8l1-1.7c0.3,0,1.8,0.3,3.2,0.8l9.9,3.2c0.6,0.2,2.1,0.9,2.4,1l-0.3,1.9l2,0.5c0,0,0.4-1.5,0.8-2.8c1.1-3.1,1.7-4.5,1.7-4.5l-2.1-0.8l-0.8,1.7c-0.3-0.1-2-0.4-3.4-0.8l-7.3-2.4l15.9-4.8l1.3-3.7l-15.4-5c-0.6-0.2-1.9-0.8-2.2-1l0.5-1.9L373.7,253.6z M367.3,287.5l7.2,1.1l-1.6,3.6L367.3,287.5z M383.5,283.5l-0.9,1.4l-1.8,0l-18.6-1.8l-1.1,3.1l12.5,11.5l1.8,2.1l-0.4,1.3l2.1,0.7c0,0,0.5-1.5,1.6-3.7c0.6-1.2,1.5-2.7,1.5-2.7l-1.9-1l-1.1,1.4l-1-0.6l-1.5-1.2l2.4-5l1.5,0.2l1.5,0.5l-0.5,1.7l2.1,0.7c0,0,0.9-2.3,2.4-5.4c0.4-0.9,1.2-2.1,1.2-2.1L383.5,283.5z M362.4,295.6l-4.3-2.4l-0.8,0.2c0,0-1.3,2.4-1.6,2.9l-5.3,7.9c-0.3,0.5-2.1,2.6-2.1,2.6l0.1,0.7l4.1,2.8l1.3-1.7c-0.4-0.3-1.3-1-1.6-1.3c-0.1-0.1-0.2-0.3-0.4-0.6c0.3-0.5,0.7-1.3,1.2-2l0.8-1.1c0.5,0.2,1.7,0.8,3,1.5l8.8,5.4c0.5,0.3,1.8,1.4,2,1.6l-0.8,1.8l1.9,1c0,0,0.7-1.4,1.5-2.5c1.8-2.7,3.3-4.6,3.3-4.6l-1.8-1.3l-1.2,1.5c-0.4-0.2-1.8-0.8-3.1-1.6l-8.8-5.4c-0.5-0.3-1.5-1.2-1.9-1.5l0.8-1.2c0.5-0.7,1-1.4,1.4-1.8c0.3,0.1,0.6,0.1,0.7,0.1c0.4,0.1,1.5,0.7,1.9,0.9L362.4,295.6z M344.1,312.9c0,0-1.4,1.9-3.5,4.5c-0.9,1.1-2,2.2-2,2.2l1.7,1.4l1.5-1.3c0.4,0.2,1.6,0.9,2.8,1.8l8.3,6.2c0.5,0.4,1.7,1.5,1.9,1.7l-0.9,1.7l1.8,1.1c0,0,0.9-1.3,1.7-2.4l4.8-5.8c0.4-0.5,2.2-2.5,2.2-2.5l-0.1-0.8l-3.9-3.5l-1.4,1.5c0.3,0.3,0.8,0.9,1.1,1.3c0.1,0.1,0.4,0.7,0.7,1.2c-0.3,0.5-0.7,1.2-1.2,1.9l-1.7,2.1c-0.6-0.3-1.7-1-2.7-1.7l-8.3-6.2c-0.5-0.4-1.5-1.3-1.8-1.6l1.1-1.6L344.1,312.9z M336.8,322.6c0,0-1.1,1.3-3.4,3.7c-1,1-2.2,2-2.2,2l1.5,1.6l1.6-1.1c0.4,0.3,1.5,1,2.6,2l5.5,5c2.2,2,2.8,4,0.6,6.2c-2,2-4.6,1.6-6.5-0.1l-6.1-5.6c-0.4-0.4-1.4-1.5-1.6-1.8l1.2-1.5l-1.9-1.5c0,0-1.7,1.9-4,4.3c-1,1-2.2,2-2.2,2l1.5,1.6l1.6-1.1c0.4,0.2,1.5,1,2.6,2l5.3,4.8c3.7,3.4,8.2,3.6,12.1-0.4c3.9-4,3.6-8.3-0.2-11.7l-6-5.4c-0.4-0.4-1.3-1.5-1.6-1.8l1.2-1.5L336.8,322.6z M317.8,358.9l3.2,4.7c0,0,3.2-0.7,6.4-3.1c3.4-2.6,4.6-6.4,2-9.6c-4.3-5.2-11.4,0.9-13.9-2.1c-0.9-1.2-0.6-2.6,0.9-3.6c0.9-0.6,1.6-0.8,2.3-0.9c0.5,0.3,0.8,0.5,0.9,0.6l1.4,1.7l2.1-1.4l-3.2-4.6c-2,0.8-4.2,1.8-5.9,3.1c-3.2,2.4-4.1,5.9-1.9,8.7c4.4,5.4,11.4-0.9,14.1,2.4c1.1,1.3,0.4,2.7-0.9,3.8c-1.2,0.9-2.4,1.2-3.1,1.3c-0.5-0.3-1-0.5-1.1-0.7c-0.2-0.3-1.3-1.6-1.3-1.6L317.8,358.9z M306.1,350.4c0,0-2.1,1.4-4.1,2.7l-2.6,1.4l1.1,1.9l1.8-0.7c0.3,0.4,1.4,1.7,2,2.6l4.6,6.9l-10.5-4c-0.7-0.3-4.6-2.2-4.6-2.2l-0.8-0.2l-2.6,1.6c-1.2,0.7-2.6,1.4-2.6,1.4l1.1,1.9l1.8-0.7c0.2,0.2,1.2,1.3,2,2.6l5.7,8.5c0.3,0.5,1,1.9,1.2,2.2l-1.5,1.3l1.3,1.6c0,0,1.3-0.9,2.4-1.7c2.9-1.8,4.3-2.5,4.3-2.5l-1.1-1.9l-1.7,0.9c-0.2-0.2-1.3-1.5-2.1-2.7l-4.2-6.2l15.5,5.9l3.4-2.1l-8.8-13.2c-0.3-0.5-0.9-1.8-1.1-2.1l1.6-1.2L306.1,350.4z M275.2,378.8c-2.3-4.9-1.9-7.9,1.4-9.3c3.3-1.4,5.9,0.2,8.3,5.1c2.3,4.9,1.9,7.9-1.4,9.3C280.2,385.3,277.5,383.7,275.2,378.8z M289.8,372.4c-2.8-5.9-8.5-8.1-14.4-5.5c-5.9,2.6-7.9,8.1-5.1,14.1c2.8,5.9,8.5,8.1,14.4,5.5C290.6,383.8,292.6,378.3,289.8,372.4z M268.4,386.5l-2.1,0.8c0,0,0.3,1,0.4,1.3c0.1,0.2,0,1.3,0,1.5c-1.2,0.7-2.1,1.2-3.4,1.6c-3.5,1.2-6-1.7-7.5-5.9c-1.5-4.2-1.4-7.9,2.1-9.1c1.1-0.4,2.1-0.5,3.3-0.7c0.3,0.3,0.7,0.8,0.8,1l0.7,1.6l2.2-0.6l-1.4-5c-2,0.2-4,0.3-6.5,1.1c-6.6,2.2-8.4,7.5-6.2,13.4c2.2,5.9,7,8.9,13.6,6.6c2.4-0.8,4.4-2,6-3.1L268.4,386.5z M234.6,380.4c0,0-2.4,0.6-5.7,1.2c-1.4,0.2-3,0.4-3,0.4l0.3,2.2l2,0c0.2,0.4,0.6,1.7,0.9,3.1l1.9,9.9c0.1,0.6,0.2,2.2,0.2,2.5l-1.9,0.7l0.5,2c0,0,1.5-0.4,2.9-0.7l7.6-1.4c0.6-0.1,3.4-0.5,3.4-0.5l0.5-0.6l-0.5-5.1l-2.1,0.2c0,0.5,0,1.2,0,1.7c0,0.2-0.2,0.7-0.3,1.3c-0.5,0.2-1.4,0.5-2.2,0.6l-2.8,0.5c-0.2-0.6-0.6-1.8-0.8-3l-1.9-9.9c-0.1-0.6-0.2-1.9-0.2-2.3l1.9-0.5L234.6,380.4z M213.4,389.3l2.5,6.6l-4.1,0.4L213.4,389.3z M224.8,401l-1.7-0.1l-0.8-1.5l-7.3-16.5l-3.3,0.6l-4.4,16.1l-1.1,2.6l-1.3,0.3l0.3,2.1c0,0,1.6-0.3,4.2-0.4c1.4-0.1,3.2-0.1,3.2-0.1l0-2l-1.8-0.2l0.1-1.1l0.4-1.9l5.7-0.4l0.5,1.4l0.3,1.5l-1.7,0.4l0.3,2.1c0,0,2.5-0.3,6.1-0.6c1-0.1,2.5,0,2.5,0L224.8,401z M193.1,383.1c-7.3-0.2-11.2,4-11.4,10.3c-0.2,6.3,3.4,10.7,10.7,10.9c2.7,0.1,5.1-0.4,7.2-0.8l0.2-5.1c0-1.4,0.4-4.2,0.4-4.2l-0.8-0.7c0,0-2.5,0-3.5,0l-3.3-0.1l-0.2,2.8l3.2,0.3c0,0,0.3,1.2,0.2,1.8l-0.1,2c0,0.2-0.1,0.7-0.2,1.2c-1,0.1-1.9,0.2-2.9,0.1c-4-0.1-5.5-3.7-5.3-8.1c0.1-4.4,1.8-7.9,5.9-7.7c1.3,0,2.3,0.2,3.6,0.5c0.1,0.4,0.3,1,0.3,1.2l0,1.4l2.4,0.2l0.5-4.7C197.9,383.7,195.8,383.1,193.1,383.1z M164.4,382.2l1.9,0.7c0,0.6-0.1,1.8-0.3,3.2L164,396c-0.1,0.6-0.6,2.1-0.7,2.4l-2,0l-0.2,2c0,0,1.6,0.2,3,0.4l8.3,1.5c0.6,0.1,3.3,0.7,3.3,0.7l0.7-0.4l1.4-4.9l-2-0.5c-0.1,0.4-0.5,1.1-0.7,1.6c-0.1,0.3-0.4,0.7-0.8,1.1c-0.6,0-1.5,0-2.3-0.2l-3.7-0.7c0.1-0.6,0.3-1.9,0.5-3l0.7-3.5c0.2,0,0.8,0.1,0.9,0.1l0.9,0.2c0.6,0.1,1.9,0.5,1.9,0.5l-0.1,1.8l1.9,0.2c0,0,0.3-2.2,0.6-3.6c0.1-0.6,0.5-2.4,0.5-2.4l-1.8-0.5l-0.6,1.8c0,0-0.8,0.1-1.4,0l-1.7-0.3c-0.1,0-0.5-0.1-0.8-0.2l0.8-4.1c0.1-0.5,0.4-1.8,0.6-2.3l3.2,0.6c0.9,0.2,1.7,0.4,2.3,0.5c0.1,0.3,0.2,0.6,0.2,0.7c0,0.4,0,1.3-0.1,1.7l2.2,0.2l0.7-4.5l-0.5-0.6c0,0-2.8-0.2-3.4-0.3l-7.9-1.4c-1.1-0.2-2.9-0.7-2.9-0.7L164.4,382.2z M155.6,378.1c0,0-2.4-0.5-5.7-1.4c-1.4-0.4-2.9-0.9-2.9-0.9l-0.8,2l1.8,0.8c-0.1,0.5-0.2,1.8-0.6,3.2l-2.9,9.7c-0.2,0.6-0.9,2-1,2.3l-2-0.2l-0.4,2c0,0,1.6,0.3,2.9,0.6l7.4,2c0.6,0.2,3.3,1,3.3,1l0.7-0.4l1.9-4.8l-2-0.7c-0.2,0.4-0.6,1.1-0.8,1.5c-0.1,0.2-0.5,0.6-0.9,1c-0.6,0-1.5-0.2-2.3-0.4l-2.7-0.7c0.1-0.6,0.3-1.8,0.6-3l2.9-9.7c0.2-0.6,0.7-1.8,0.9-2.2l2,0.4L155.6,378.1z M118.6,381.3c0.3-0.6,0.8-1.3,2-1.8c0.8,2,1.8,4.1,2.7,6.2c-1,0-2-0.2-2.8-0.5C119.1,384.5,117.8,383.1,118.6,381.3z M128.4,373.9c0,0,0,1.1-0.1,1.2l-0.5,1.1l1.7,0.9l2.3-4c-0.6-0.6-2.3-2-4.2-2.8c-3-1.3-6.4-1.2-7.7,1.5c-0.6,1.3-0.6,2.8-0.2,4.5c-2.7,0.3-4.6,1.3-5.6,3.5c-1.6,3.4,0.6,6.1,4.3,7.8c2.2,1,4.3,1.3,6.2,1c0.2,0.6,0.4,1.1,0.6,1.6l0.4,0.2c3.1,1.4,5,2.4,5,2.4l1.1-1.9l-1.3-0.7c-0.2-0.3-1-1.8-1.2-2.4l-0.4-0.9c0.9-0.7,1.6-1.5,2.2-2.5l1-1.6l1.8,0.6l0.8-1.9c0,0-1.2-0.4-2.7-1.1c-1.5-0.7-3.2-1.6-3.2-1.6l-1,1.8l1.3,0.8c-0.2,0.4-0.4,1.1-0.6,1.6c-0.2,0.4-0.5,0.8-0.7,1.1c-2.7-5.9-3.7-8.4-2.8-10.3c0.4-0.9,1.2-1.4,2.4-0.8C127.5,373.2,128.2,373.7,128.4,373.9z M93.5,366.6L90,371c0,0,1.7,2.7,5.1,4.8c3.6,2.3,7.8,2.1,10.1-1.2c3.8-5.6-4.6-10-2.4-13.3c0.8-1.2,2.3-1.3,3.8-0.4c0.9,0.6,1.3,1.2,1.7,1.8c-0.1,0.5-0.2,0.9-0.3,1l-1.2,1.8l2,1.4l3.5-4.4c-1.4-1.6-3.2-3.2-4.9-4.3c-3.4-2.1-7.2-1.9-9.2,1.1c-3.9,5.8,4.6,10,2.2,13.6c-0.9,1.4-2.6,1.3-4,0.4c-1.3-0.8-1.9-1.8-2.3-2.4c0.1-0.5,0.2-1.1,0.3-1.2c0.2-0.3,1.1-1.7,1.1-1.7L93.5,366.6z M83.8,344.8l1.3,1.4c-0.3,0.6-0.9,1.5-1.8,2.7l-6.5,7.9c-0.4,0.5-1.5,1.6-1.8,1.8l-1.8-0.9l-1.2,1.7c0,0,1.3,0.9,2.5,1.7l6.7,5c0.5,0.4,2.6,2.1,2.6,2.1l0.8-0.1l3.6-3.7l-1.6-1.4c-0.3,0.3-1,0.8-1.3,1.1c-0.3,0.2-0.7,0.4-1.2,0.6c-0.5-0.3-1.3-0.7-2-1.2l-3-2.2c0.3-0.5,1.2-1.6,1.9-2.5l2.3-2.8c0.2,0.1,0.7,0.5,0.8,0.5l0.7,0.6c0.5,0.4,1.4,1.3,1.4,1.3l-0.9,1.5l1.6,1c0,0,1.4-1.8,2.3-2.9c0.4-0.5,1.6-1.9,1.6-1.9l-1.4-1.2l-1.4,1.3c0,0-0.7-0.2-1.2-0.6l-1.3-1c-0.1-0.1-0.4-0.3-0.6-0.5l2.7-3.3c0.3-0.4,1.2-1.4,1.6-1.8l2.6,2c0.7,0.5,1.4,1.1,1.8,1.5c0,0.3-0.2,0.6-0.2,0.7c-0.2,0.4-0.6,1.1-0.9,1.5l1.8,1.2l2.7-3.7l-0.1-0.7c0,0-2.4-1.4-2.9-1.8l-6.3-4.8c-0.9-0.6-2.3-1.9-2.3-1.9L83.8,344.8z M79.2,345.1l3.3-3.6l0-0.8c0,0-2.2-1.7-2.7-2.1l-7-6.5c-0.4-0.4-2.3-2.5-2.3-2.5l-0.8,0l-3.6,3.3l1.5,1.5c0.3-0.3,1.2-1,1.6-1.2c0.1-0.1,0.4-0.2,0.7-0.3c0.5,0.4,1.2,0.9,1.8,1.5l1,0.9c-0.3,0.4-1.1,1.5-2.1,2.5l-7.3,7.2c-0.4,0.4-1.8,1.4-2,1.6l-1.7-1.1l-1.4,1.6c0,0,1.3,1,2.3,1.9c2.4,2.3,4.1,4,4.1,4l1.7-1.5l-1.3-1.4c0.3-0.3,1.2-1.6,2.2-2.6l7.3-7.2c0.4-0.4,1.5-1.2,1.9-1.5l1.1,1c0.7,0.6,1.2,1.2,1.5,1.6c-0.1,0.3-0.2,0.6-0.3,0.7c-0.2,0.4-1,1.3-1.2,1.6L79.2,345.1z M58,325.6l-4.1,5.8l-2.7-3L58,325.6z M54.9,341.3l-0.9-1.4l0.8-1.5l9.6-15.4l-2.4-2.3l-16.1,6l-2.8,0.7l-1-0.9l-1.6,1.5c0,0,1.2,1.1,2.8,3c0.9,1,2,2.4,2,2.4l1.7-1.2l-0.9-1.5l1-0.6l1.8-0.8l3.7,4.2l-0.9,1.2l-1.1,1.1l-1.4-1.1l-1.6,1.5c0,0,1.8,1.8,4.1,4.4c0.7,0.8,1.5,1.9,1.5,1.9L54.9,341.3z M42.5,321.2l-1.3-1.8c0,0-0.9,0.5-1.2,0.7c-0.2,0.1-1.3,0.3-1.5,0.4c-1-0.9-1.7-1.7-2.4-2.8c-2-3,0.4-6,4.3-8.4c3.9-2.4,7.7-3.1,9.7-0.1c0.6,1,1,1.8,1.4,3c-0.2,0.3-0.7,0.8-0.8,0.9l-1.5,1l1.1,1.9l4.7-2.5c-0.6-1.8-1.2-3.7-2.6-5.8c-3.7-5.7-9.4-6.2-15-2.9c-5.5,3.4-7.4,8.5-3.7,14.2c1.4,2.1,3,3.6,4.5,5L42.5,321.2z M28,287.8c5-2.5,8.1-2.1,9.8,0.9c1.6,3.1,0.1,5.7-4.9,8.2c-5,2.4-8.1,2.1-9.8-0.9C21.5,292.9,23,290.3,28,287.8z M35.3,301.6c6-3,8-8.5,5.1-14.1c-3-5.6-8.8-7.3-14.8-4.3c-6,3-8,8.5-5,14.1C23.5,302.8,29.3,304.5,35.3,301.6z M11,273.6l1.1,3.2l17.4,0.6c1,0,2.9,0.5,2.9,0.5l0.7,1.3l2-0.8c0,0-0.7-1.7-1.5-4c-0.4-1.3-0.9-3.1-0.9-3.1l-2,0.5l0.2,1.9c0,0-0.5,0.2-1.2,0.2l-12.1,0l9.4-6.5c0.5-0.3,1.4-0.7,1.4-0.7l0.9,1.7l2-0.8c0,0-1-2.6-2.1-5.7c-0.4-1-0.8-2.6-0.8-2.6l-2,0.5l0.3,1.7c0,0-0.7,0.8-1.3,1.2L11,273.6z M23.3,248.2c1,4.1-2.4,6.4-6.9,7.3c-4.5,1-8.5,0.3-9.4-3.9c-0.2-0.8-0.3-1.5-0.3-1.9c0.3-0.1,2-0.5,3.3-0.8l10.2-2.2c0.5-0.1,1.9-0.3,2.4-0.4C22.9,247,23.2,247.6,23.3,248.2z M25.8,248c-0.3-1.4-1.3-4.5-1.7-5.8c-0.3-1.3-0.5-2.8-0.5-2.8l-2.2,0.3l0.1,1.9c0,0-1.7,0.6-3.2,0.9l-10.2,2.2c-0.6,0.1-2.6,0.3-2.6,0.3l-0.8-1.8l-2,0.6c0,0,0.5,1.5,0.8,2.8c0.4,1.7,0.8,4.2,1.2,6c1.5,6.5,6.6,9,12.8,7.7C23.8,258.9,27.4,254.6,25.8,248z M15.8,228.3l-6.9,2.4l-0.4-3.9L15.8,228.3z M3.6,239.2l0.1-1.6l1.6-0.8l17.2-7l-0.6-3.2l-16.7-4.3l-2.7-1L2.2,220L0,220.3c0,0,0.3,1.5,0.5,4c0.1,1.4,0.1,3.1,0.1,3.1l2.1,0l0.2-1.7l1.2,0.1l2,0.3l0.4,5.4L5,232.1l-1.5,0.3L3,230.6l-2.2,0.3c0,0,0.3,2.4,0.6,5.9c0.1,1,0,2.4,0,2.4L3.6,239.2z M200.1,56.2c-2.1,0-3.9,1.7-3.9,3.8c0,2.1,1.7,3.8,3.9,3.8c2.1,0,3.9-1.7,3.9-3.8C203.9,57.9,202.2,56.2,200.1,56.2z"/></svg>